{
.formatVersion = 3;
axes = (
{
name = Weight;
tag = wght;
}
);
classes = (
{
code = "zero.lnum five.lnum seven.lnum eight.lnum a g i ordfeminine periodcentered agrave aacute acircumflex atilde adieresis aring ae amacron abreve aogonek gcircumflex gbreve gdotaccent gcommaaccent Scedilla scedilla Tcedilla tcedilla gcaron aringacute aeacute adblgrave ainvertedbreve gravecomb acutecomb circumflexcomb tildecomb macroncomb brevecomb dotaccentcomb dieresiscomb hookabovecomb ringcomb hungarumlautcomb dblgravecomb breveinvertedcomb commaturnedabovecomb strokeshortcomb tonos Decyr Kacyr Elcyr acyr becyr vecyr zhecyr zecyr icyr ishortcyr kacyr elcyr tsecyr shacyr shchacyr hardcyr softcyr yucyr gjecyr igravecyr abrevecyr adieresiscyr aiecyr adotbelow ahoi acircumflexacute acircumflexgrave acircumflexhoi acircumflextilde acircumflexdotbelow abreveacute abrevegrave abrevehoi abrevetilde abrevedotbelow zero two.lnum.ss05 five six seven eight nine periodcentered.loclCAT caroncomb.case horncomb.case pecyr.loclSRB tecyr.loclSRB gjecyr.loclMKD";
name = aalt;
},
{

glyphs = (
{
glyphname = .notdef;
layers = (
{
layerId = "6FE47AEA-F74C-4003-B51F-DE39BA7C9A54";
shapes = (
{
closed = 1;
nodes = (
(1120,0,l),
(1505,1440,l),
(376,1440,l),
(-10,0,l)
);
},
{
closed = 1;
nodes = (
(630,1170,l),
(1104,1170,l),
(863,270,l),
(389,270,l)
);
}
);
width = 1357;
},
{
layerId = "12ED6207-3C14-4312-BF04-326F9D0146DE";
shapes = (
{
closed = 1;
nodes = (
(1010,0,l),
(1395,1440,l),
(412,1440,l),
(27,0,l)
);
},
{
closed = 1;
nodes = (
(550,1282,l),
(1171,1282,l),
(870,158,l),
(249,158,l)
);
}
);
width = 1270;
},
{
layerId = "51237170-216B-44E4-96C8-4B0B4EBB077A";
shapes = (
{
closed = 1;
nodes = (
(935,0,l),
(1321,1440,l),
(436,1440,l),
(50,0,l)
);
},
{
closed = 1;
nodes = (
(495,1357,l),
(1216,1357,l),
(874,85,l),
(154,85,l)
);
}
);
width = 1213;
}
);
},
{
glyphname = exclam;
layers = (
{
layerId = "6FE47AEA-F74C-4003-B51F-DE39BA7C9A54";
shapes = (
{
closed = 1;
nodes = (
(532,534,l),
(839,1440,l),
(364,1440,l),
(182,534,l)
);
},
{
closed = 1;
nodes = (
(312,-30,o),
(377,-6,o),
(427,38,cs),
(477,83,o),
(506,147,o),
(506,227,cs),
(506,286,o),
(481,329,o),
(445,361,cs),
(408,393,o),
(356,410,o),
(297,410,cs),
(230,410,o),
(165,388,o),
(118,345,cs),
(70,302,o),
(37,239,o),
(37,157,cs),
(37,100,o),
(61,53,o),
(97,21,c),
(134,-10,o),
(188,-30,o),
(248,-30,cs)
);
}
);
width = 717;
},
{
layerId = "12ED6207-3C14-4312-BF04-326F9D0146DE";
shapes = (
{
closed = 1;
nodes = (
(397,469,l),
(692,1440,l),
(445,1440,l),
(217,469,l)
);
},
{
closed = 1;
nodes = (
(241,-30,o),
(283,-15,o),
(315,15,cs),
(347,44,o),
(365,83,o),
(365,132,cs),
(365,168,o),
(351,195,o),
(329,216,cs),
(306,237,o),
(272,249,o),
(233,249,cs),
(190,249,o),
(149,235,o),
(118,207,cs),
(87,180,o),
(66,139,o),
(66,89,cs),
(66,54,o),
(81,25,o),
(104,4,cs),
(127,-17,o),
(161,-30,o),
(199,-30,cs)
);
}
);
width = 636;
},
{
layerId = "51237170-216B-44E4-96C8-4B0B4EBB077A";
shapes = (
{
closed = 1;
nodes = (
(306,425,l),
(594,1440,l),
(499,1440,l),
(239,425,l)
);
},
{
closed = 1;
nodes = (
(193,-30,o),
(220,-21,o),
(240,-1,cs),
(260,19,o),
(271,39,o),
(271,69,cs),
(271,89,o),
(264,107,o),
(252,120,c),
(237,133,o),
(215,142,o),
(191,142,cs),
(165,142,o),
(139,133,o),
(118,116,cs),
(97,98,o),
(85,73,o),
(85,44,cs),
(85,24,o),
(94,6,o),
(108,-8,cs),
(121,-20,o),
(143,-30,o),
(165,-30,cs)
);
}
);
width = 582;
}
);
leftKerningGroup = _b2;
rightKerningGroup = _d;
unicode = 33;
},
{
glyphname = quotedbl;
layers = (
{
layerId = "6FE47AEA-F74C-4003-B51F-DE39BA7C9A54";
shapes = (
{
closed = 1;
nodes = (
(461,729,l),
(690,1440,l),
(326,1440,l),
(178,729,l)
);
},
{
closed = 1;
nodes = (
(927,729,l),
(1156,1440,l),
(792,1440,l),
(644,729,l)
);
}
);
width = 970;
},
{
layerId = "12ED6207-3C14-4312-BF04-326F9D0146DE";
shapes = (
{
closed = 1;
nodes = (
(420,924,l),
(574,1429,l),
(385,1429,l),
(270,924,l)
);
},
{
closed = 1;
nodes = (
(775,924,l),
(929,1429,l),
(740,1429,l),
(625,924,l)
);
}
);
width = 797;
},
{
layerId = "51237170-216B-44E4-96C8-4B0B4EBB077A";
shapes = (
{
closed = 1;
nodes = (
(394,1057,l),
(499,1429,l),
(426,1429,l),
(331,1057,l)
);
},
{
closed = 1;
nodes = (
(676,1057,l),
(781,1429,l),
(708,1429,l),
(613,1057,l)
);
}
);
width = 682;
}
);
leftKerningGroup = _tonos2;
rightKerningGroup = _tonos;
unicode = 34;
},
{
glyphname = numbersign;
layers = (
{
layerId = "6FE47AEA-F74C-4003-B51F-DE39BA7C9A54";
shapes = (
{
closed = 1;
nodes = (
(450,33,l),
(523,338,l),
(711,336,l),
(639,33,l),
(907,33,l),
(981,336,l),
(1143,336,l),
(1204,590,l),
(1044,590,l),
(1093,804,l),
(1253,804,l),
(1312,1056,l),
(1154,1056,l),
(1229,1367,l),
(961,1367,l),
(886,1056,l),
(696,1056,l),
(771,1367,l),
(503,1367,l),
(428,1056,l),
(266,1056,l),
(204,804,l),
(367,804,l),
(316,590,l),
(156,590,l),
(94,338,l),
(255,338,l),
(182,33,l)
);
},
{
closed = 1;
nodes = (
(633,804,l),
(825,804,l),
(776,590,l),
(584,590,l)
);
}
);
width = 1312;
},
{
layerId = "12ED6207-3C14-4312-BF04-326F9D0146DE";
shapes = (
{
closed = 1;
nodes = (
(377,50,l),
(462,393,l),
(770,393,l),
(686,49,l),
(837,49,l),
(922,393,l),
(1094,393,l),
(1129,540,l),
(957,540,l),
(1029,858,l),
(1202,858,l),
(1235,1005,l),
(1065,1005,l),
(1150,1351,l),
(999,1351,l),
(913,1005,l),
(604,1005,l),
(690,1350,l),
(539,1350,l),
(452,1005,l),
(280,1005,l),
(245,859,l),
(418,859,l),
(343,539,l),
(170,539,l),
(137,393,l),
(310,393,l),
(225,50,l)
);
},
{
closed = 1;
nodes = (
(566,859,l),
(878,858,l),
(806,540,l),
(495,539,l)
);
}
);
width = 1261;
},
{
layerId = "51237170-216B-44E4-96C8-4B0B4EBB077A";
shapes = (
{
closed = 1;
nodes = (
(327,62,l),
(420,431,l),
(809,431,l),
(717,59,l),
(790,59,l),
(882,431,l),
(1060,431,l),
(1078,506,l),
(900,506,l),
(987,894,l),
(1167,894,l),
(1184,970,l),
(1005,970,l),
(1097,1341,l),
(1023,1341,l),
(931,970,l),
(543,970,l),
(635,1338,l),
(562,1338,l),
(468,970,l),
(290,970,l),
(272,897,l),
(453,897,l),
(361,504,l),
(180,504,l),
(165,431,l),
(346,431,l),
(253,62,l)
);
},
{
closed = 1;
nodes = (
(522,897,l),
(913,894,l),
(825,506,l),
(435,504,l)
);
}
);
width = 1226;
}
);
unicode = 35;
},
{
glyphname = dollar;
layers = (
{
layerId = "6FE47AEA-F74C-4003-B51F-DE39BA7C9A54";
shapes = (
{
closed = 1;
nodes = (
(814,-30,o),
(1079,152,o),
(1084,469,cs),
(1088,669,o),
(918,786,o),
(761,820,cs),
(654,843,ls),
(585,857,o),
(547,927,o),
(548,1002,cs),
(550,1117,o),
(668,1163,o),
(756,1163,cs),
(871,1163,o),
(986,1115,o),
(1054,1012,c),
(1254,1232,l),
(1152,1377,o),
(952,1432,o),
(789,1432,cs),
(530,1432,o),
(274,1241,o),
(268,939,cs),
(266,799,o),
(328,624,o),
(527,584,cs),
(631,563,ls),
(715,546,o),
(790,498,o),
(788,393,cs),
(786,277,o),
(678,238,o),
(587,238,cs),
(465,238,o),
(309,301,o),
(234,408,c),
(39,180,l),
(157,36,o),
(371,-30,o),
(545,-30,cs)
);
},
{
closed = 1;
nodes = (
(553,-160,l),
(1007,1560,l),
(763,1560,l),
(308,-160,l)
);
}
);
width = 1200;
},
{
layerId = "12ED6207-3C14-4312-BF04-326F9D0146DE";
shapes = (
{
closed = 1;
nodes = (
(803,-30,o),
(1032,137,o),
(1038,435,cs),
(1041,606,o),
(918,701,o),
(784,750,c),
(657,800,ls),
(569,835,o),
(477,902,o),
(479,1016,cs),
(482,1188,o),
(626,1277,o),
(770,1277,cs),
(892,1277,o),
(1011,1235,o),
(1091,1134,c),
(1211,1262,l),
(1112,1385,o),
(949,1432,o),
(803,1432,cs),
(559,1432,o),
(322,1263,o),
(317,977,cs),
(315,845,o),
(382,725,o),
(558,659,c),
(677,611,ls),
(770,574,o),
(874,512,o),
(872,388,cs),
(868,208,o),
(721,127,o),
(572,127,cs),
(440,127,o),
(296,178,o),
(207,283,c),
(87,149,l),
(198,26,o),
(391,-30,o),
(547,-30,cs)
);
},
{
closed = 1;
nodes = (
(503,-160,l),
(957,1560,l),
(814,1560,l),
(359,-160,l)
);
}
);
width = 1200;
},
{
layerId = "51237170-216B-44E4-96C8-4B0B4EBB077A";
shapes = (
{
closed = 1;
nodes = (
(796,-30,o),
(1002,127,o),
(1006,412,cs),
(1009,564,o),
(918,644,o),
(799,703,cs),
(659,772,l),
(557,820,o),
(430,886,o),
(432,1025,cs),
(435,1235,o),
(598,1352,o),
(778,1352,cs),
(904,1352,o),
(1026,1314,o),
(1116,1215,c),
(1182,1281,l),
(1087,1389,o),
(946,1431,o),
(812,1431,cs),
(578,1431,o),
(354,1278,o),
(349,1002,cs),
(347,876,o),
(417,792,o),
(577,709,c),
(708,644,ls),
(808,593,o),
(930,522,o),
(928,385,cs),
(923,161,o),
(749,54,o),
(562,54,cs),
(424,54,o),
(287,96,o),
(188,201,c),
(119,128,l),
(223,19,o),
(404,-30,o),
(548,-30,cs)
);
},
{
closed = 1;
nodes = (
(469,-160,l),
(923,1560,l),
(848,1560,l),
(394,-160,l)
);
}
);
width = 1200;
}
);
unicode = 36;
},
{
glyphname = percent;
layers = (
{
layerId = "6FE47AEA-F74C-4003-B51F-DE39BA7C9A54";
shapes = (
{
closed = 1;
nodes = (
(627,772,o),
(759,1022,o),
(759,1216,cs),
(759,1366,o),
(675,1470,o),
(519,1470,cs),
(300,1470,o),
(167,1222,o),
(167,1029,cs),
(167,878,o),
(252,772,o),
(408,772,cs)
);
},
{
closed = 1;
nodes = (
(382,1105,o),
(425,1270,o),
(500,1270,cs),
(534,1270,o),
(543,1220,o),
(543,1193,cs),
(543,1136,o),
(504,975,o),
(430,975,cs),
(392,975,o),
(382,1014,o),
(382,1044,cs)
);
},
{
closed = 1;
nodes = (
(1038,-41,o),
(1170,210,o),
(1170,403,cs),
(1170,554,o),
(1085,658,o),
(929,658,cs),
(712,658,o),
(579,411,o),
(579,216,cs),
(579,66,o),
(663,-41,o),
(819,-41,cs)
);
},
{
closed = 1;
nodes = (
(792,292,o),
(835,457,o),
(911,457,cs),
(945,457,o),
(954,407,o),
(954,381,cs),
(954,324,o),
(915,162,o),
(841,162,cs),
(804,162,o),
(792,201,o),
(792,233,cs)
);
},
{
closed = 1;
nodes = (
(150,-44,l),
(1320,1373,l),
(1182,1470,l),
(12,57,l)
);
}
);
width = 1200;
},
{
layerId = "12ED6207-3C14-4312-BF04-326F9D0146DE";
shapes = (
{
closed = 1;
nodes = (
(629,765,o),
(759,1029,o),
(759,1213,cs),
(759,1352,o),
(692,1463,o),
(540,1463,cs),
(330,1463,o),
(202,1203,o),
(202,1018,cs),
(202,880,o),
(268,765,o),
(420,765,cs)
);
},
{
closed = 1;
nodes = (
(327,1129,o),
(398,1348,o),
(532,1348,cs),
(606,1348,o),
(633,1268,o),
(633,1205,cs),
(633,1100,o),
(562,882,o),
(433,882,cs),
(351,882,o),
(327,953,o),
(327,1022,cs)
);
},
{
closed = 1;
nodes = (
(1010,-34,o),
(1137,231,o),
(1137,415,cs),
(1137,552,o),
(1071,665,o),
(920,665,cs),
(710,665,o),
(580,403,o),
(580,218,cs),
(580,81,o),
(647,-34,o),
(798,-34,cs)
);
},
{
closed = 1;
nodes = (
(706,331,o),
(777,548,o),
(910,548,cs),
(984,548,o),
(1011,470,o),
(1011,405,cs),
(1011,300,o),
(942,84,o),
(813,84,cs),
(731,84,o),
(706,154,o),
(706,224,cs)
);
},
{
closed = 1;
nodes = (
(124,-30,l),
(1294,1393,l),
(1211,1457,l),
(37,38,l)
);
}
);
width = 1200;
},
{
layerId = "51237170-216B-44E4-96C8-4B0B4EBB077A";
shapes = (
{
closed = 1;
nodes = (
(630,761,o),
(758,1033,o),
(758,1210,cs),
(758,1342,o),
(702,1459,o),
(553,1459,cs),
(349,1459,o),
(224,1189,o),
(224,1011,cs),
(224,881,o),
(278,761,o),
(426,761,cs)
);
},
{
closed = 1;
nodes = (
(290,1146,o),
(382,1400,o),
(551,1400,cs),
(654,1400,o),
(693,1301,o),
(693,1212,cs),
(693,1075,o),
(600,821,o),
(435,821,cs),
(326,821,o),
(290,911,o),
(290,1007,cs)
);
},
{
closed = 1;
nodes = (
(990,-30,o),
(1116,243,o),
(1116,421,cs),
(1116,550,o),
(1061,669,o),
(914,669,cs),
(708,669,o),
(581,397,o),
(581,220,cs),
(581,90,o),
(637,-30,o),
(783,-30,cs)
);
},
{
closed = 1;
nodes = (
(647,356,o),
(738,610,o),
(909,610,cs),
(1010,610,o),
(1050,510,o),
(1050,422,cs),
(1050,285,o),
(959,32,o),
(793,32,cs),
(683,32,o),
(647,121,o),
(647,217,cs)
);
},
{
closed = 1;
nodes = (
(105,-19,l),
(1277,1405,l),
(1230,1449,l),
(52,26,l)
);
}
);
width = 1200;
}
);
leftKerningGroup = _percent;
unicode = 37;
},
{
glyphname = ampersand;
layers = (
{
layerId = "6FE47AEA-F74C-4003-B51F-DE39BA7C9A54";
shapes = (
{
closed = 1;
nodes = (
(556,-29,o),
(630,-18,o),
(703,6,cs),
(775,29,o),
(842,59,o),
(906,102,c),
(972,0,l),
(1380,0,l),
(1175,317,l),
(1244,375,o),
(1321,453,o),
(1391,538,cs),
(1459,621,o),
(1522,709,o),
(1555,777,c),
(1267,896,l),
(1226,820,o),
(1188,759,o),
(1148,704,cs),
(1108,647,o),
(1066,603,o),
(1021,558,c),
(741,955,l),
(711,1000,o),
(706,1029,o),
(706,1053,cs),
(706,1094,o),
(722,1122,o),
(749,1142,cs),
(777,1162,o),
(814,1168,o),
(856,1168,cs),
(898,1168,o),
(943,1159,o),
(989,1146,cs),
(1034,1133,o),
(1076,1113,o),
(1116,1087,c),
(1261,1330,l),
(1139,1411,o),
(1011,1443,o),
(870,1440,c),
(741,1440,o),
(619,1404,o),
(530,1334,cs),
(441,1265,o),
(383,1160,o),
(383,1023,cs),
(383,958,o),
(399,894,o),
(432,826,c),
(747,344,l),
(698,305,o),
(626,284,o),
(564,284,cs),
(518,284,o),
(481,295,o),
(453,315,cs),
(426,334,o),
(412,365,o),
(412,399,cs),
(412,441,o),
(435,487,o),
(472,525,cs),
(508,563,o),
(556,595,o),
(606,607,c),
(462,837,l),
(345,796,o),
(245,735,o),
(172,650,cs),
(98,566,o),
(53,462,o),
(53,340,cs),
(53,232,o),
(96,141,o),
(172,76,cs),
(249,10,o),
(353,-29,o),
(486,-29,cs)
);
}
);
width = 1556;
},
{
layerId = "12ED6207-3C14-4312-BF04-326F9D0146DE";
shapes = (
{
closed = 1;
nodes = (
(576,-26,o),
(658,-11,o),
(736,20,c),
(814,49,o),
(889,93,o),
(963,150,c),
(1061,0,l),
(1286,0,l),
(1107,271,l),
(1173,336,o),
(1241,413,o),
(1304,495,cs),
(1367,577,o),
(1425,666,o),
(1467,751,c),
(1313,821,l),
(1265,727,o),
(1218,649,o),
(1170,579,cs),
(1122,508,o),
(1074,452,o),
(1023,402,c),
(700,865,ls),
(641,951,o),
(624,1009,o),
(624,1066,cs),
(624,1132,o),
(651,1184,o),
(696,1223,cs),
(740,1262,o),
(800,1282,o),
(864,1282,cs),
(918,1282,o),
(965,1272,o),
(1010,1257,cs),
(1054,1242,o),
(1090,1218,o),
(1130,1190,c),
(1221,1333,l),
(1120,1406,o),
(1009,1442,o),
(867,1440,c),
(757,1440,o),
(650,1404,o),
(571,1334,c),
(491,1266,o),
(439,1170,o),
(439,1050,cs),
(439,972,o),
(464,902,o),
(522,811,c),
(875,284,l),
(769,187,o),
(655,145,o),
(537,145,cs),
(454,145,o),
(390,165,o),
(344,199,cs),
(299,234,o),
(276,284,o),
(276,345,cs),
(276,428,o),
(309,504,o),
(374,566,cs),
(438,628,o),
(528,674,o),
(641,696,c),
(554,819,l),
(425,786,o),
(307,727,o),
(221,641,cs),
(134,556,o),
(81,447,o),
(81,320,cs),
(81,213,o),
(121,128,o),
(194,68,cs),
(269,8,o),
(370,-26,o),
(497,-26,cs)
);
}
);
width = 1491;
},
{
layerId = "51237170-216B-44E4-96C8-4B0B4EBB077A";
shapes = (
{
closed = 1;
nodes = (
(588,-23,o),
(674,-5,o),
(757,29,cs),
(839,62,o),
(921,114,o),
(1001,183,c),
(1122,0,l),
(1222,0,l),
(1061,241,l),
(1126,311,o),
(1187,386,o),
(1247,467,cs),
(1306,548,o),
(1360,637,o),
(1410,733,c),
(1344,769,l),
(1290,666,o),
(1237,576,o),
(1185,496,c),
(1131,417,o),
(1078,350,o),
(1024,297,c),
(673,805,ls),
(594,916,o),
(569,996,o),
(569,1074,cs),
(569,1156,o),
(604,1225,o),
(661,1277,cs),
(716,1328,o),
(790,1357,o),
(868,1357,cs),
(931,1357,o),
(980,1345,o),
(1023,1330,cs),
(1066,1314,o),
(1101,1289,o),
(1140,1260,c),
(1196,1335,l),
(1107,1403,o),
(1007,1441,o),
(865,1440,cs),
(767,1440,o),
(672,1403,o),
(598,1334,cs),
(526,1266,o),
(477,1176,o),
(477,1066,cs),
(477,981,o),
(508,906,o),
(582,800,cs),
(960,243,l),
(818,109,o),
(675,51,o),
(518,51,cs),
(412,51,o),
(328,79,o),
(272,123,c),
(215,166,o),
(183,231,o),
(183,309,cs),
(183,420,o),
(227,515,o),
(309,593,cs),
(391,671,o),
(508,727,o),
(664,753,c),
(614,807,l),
(478,779,o),
(349,721,o),
(254,635,cs),
(157,550,o),
(99,437,o),
(99,305,cs),
(99,201,o),
(137,119,o),
(209,62,cs),
(281,6,o),
(380,-23,o),
(504,-23,cs)
);
}
);
width = 1447;
}
);
rightKerningGroup = _x;
unicode = 38;
},
{
glyphname = quotesingle;
layers = (
{
layerId = "6FE47AEA-F74C-4003-B51F-DE39BA7C9A54";
shapes = (
{
closed = 1;
nodes = (
(461,729,l),
(690,1440,l),
(326,1440,l),
(178,729,l)
);
}
);
width = 514;
},
{
layerId = "12ED6207-3C14-4312-BF04-326F9D0146DE";
shapes = (
{
closed = 1;
nodes = (
(423,930,l),
(578,1440,l),
(388,1440,l),
(272,930,l)
);
}
);
width = 449;
},
{
layerId = "51237170-216B-44E4-96C8-4B0B4EBB077A";
shapes = (
{
closed = 1;
nodes = (
(397,1064,l),
(502,1440,l),
(429,1440,l),
(333,1064,l)
);
}
);
width = 405;
}
);
leftKerningGroup = _tonos2;
rightKerningGroup = _tonos;
unicode = 39;
},
{
glyphname = parenleft;
layers = (
{
layerId = "6FE47AEA-F74C-4003-B51F-DE39BA7C9A54";
shapes = (
{
closed = 1;
nodes = (
(479,-125,l),
(451,-4,o),
(439,115,o),
(439,247,cs),
(439,474,o),
(486,705,o),
(572,922,cs),
(657,1140,o),
(782,1335,o),
(939,1493,c),
(637,1610,l),
(468,1419,o),
(332,1209,o),
(239,984,cs),
(146,756,o),
(96,519,o),
(96,268,cs),
(96,100,o),
(113,-62,o),
(158,-230,c)
);
}
);
width = 730;
},
{
layerId = "12ED6207-3C14-4312-BF04-326F9D0146DE";
shapes = (
{
closed = 1;
nodes = (
(384,-171,l),
(354,-42,o),
(338,81,o),
(338,221,cs),
(338,454,o),
(385,699,o),
(474,933,cs),
(564,1167,o),
(695,1377,o),
(863,1542,c),
(714,1610,l),
(542,1427,o),
(405,1212,o),
(310,977,cs),
(215,742,o),
(165,494,o),
(165,242,cs),
(165,80,o),
(181,-76,o),
(225,-230,c)
);
}
);
width = 686;
},
{
layerId = "51237170-216B-44E4-96C8-4B0B4EBB077A";
shapes = (
{
closed = 1;
nodes = (
(321,-202,l),
(290,-67,o),
(271,59,o),
(271,205,cs),
(271,441,o),
(316,696,o),
(410,940,cs),
(502,1183,o),
(636,1405,o),
(812,1575,c),
(765,1610,l),
(592,1433,o),
(453,1214,o),
(357,973,cs),
(260,732,o),
(210,478,o),
(210,226,cs),
(210,65,o),
(226,-85,o),
(269,-230,c)
);
}
);
width = 657;
}
);
rightKerningGroup = _parenleft;
unicode = 40;
},
{
glyphname = parenright;
layers = (
{
layerId = "6FE47AEA-F74C-4003-B51F-DE39BA7C9A54";
shapes = (
{
closed = 1;
nodes = (
(188,-230,l),
(359,-37,o),
(493,170,o),
(586,398,cs),
(678,627,o),
(728,864,o),
(728,1112,cs),
(728,1280,o),
(709,1442,o),
(667,1610,c),
(344,1505,l),
(375,1387,o),
(385,1266,o),
(385,1133,cs),
(385,906,o),
(338,675,o),
(253,459,cs),
(210,350,o),
(159,249,o),
(96,152,cs),
(33,55,o),
(-35,-34,o),
(-114,-111,c)
);
}
);
width = 730;
},
{
layerId = "12ED6207-3C14-4312-BF04-326F9D0146DE";
shapes = (
{
closed = 1;
nodes = (
(80,-230,l),
(253,-45,o),
(389,168,o),
(484,405,cs),
(578,641,o),
(628,889,o),
(628,1138,cs),
(628,1301,o),
(610,1456,o),
(569,1610,c),
(408,1551,l),
(440,1425,o),
(455,1300,o),
(455,1159,cs),
(455,926,o),
(409,682,o),
(319,449,cs),
(275,332,o),
(221,223,o),
(154,118,cs),
(88,14,o),
(15,-79,o),
(-70,-160,c)
);
}
);
width = 686;
},
{
layerId = "51237170-216B-44E4-96C8-4B0B4EBB077A";
shapes = (
{
closed = 1;
nodes = (
(7,-230,l),
(183,-51,o),
(319,166,o),
(415,408,cs),
(512,650,o),
(562,905,o),
(562,1154,cs),
(562,1314,o),
(544,1465,o),
(503,1610,c),
(450,1582,l),
(482,1450,o),
(502,1322,o),
(502,1175,cs),
(502,939,o),
(456,685,o),
(363,442,cs),
(317,320,o),
(262,205,o),
(193,96,cs),
(124,-14,o),
(49,-108,o),
(-41,-193,c)
);
}
);
width = 657;
}
);
leftKerningGroup = _parenright;
unicode = 41;
},
{
glyphname = asterisk;
layers = (
{
layerId = "6FE47AEA-F74C-4003-B51F-DE39BA7C9A54";
shapes = (
{
closed = 1;
nodes = (
(630,658,l),
(701,382,l),
(1050,504,l),
(921,756,l),
(1205,749,l),
(1187,1115,l),
(907,1075,l),
(1011,1338,l),
(653,1434,l),
(608,1157,l),
(387,1333,l),
(183,1026,l),
(430,891,l),
(194,735,l),
(428,457,l)
);
}
);
width = 1188;
},
{
layerId = "12ED6207-3C14-4312-BF04-326F9D0146DE";
shapes = (
{
closed = 1;
nodes = (
(648,866,l),
(736,577,l),
(919,640,l),
(793,918,l),
(1098,917,l),
(1087,1109,l),
(787,1079,l),
(882,1364,l),
(700,1414,l),
(636,1117,l),
(392,1297,l),
(284,1136,l),
(547,984,l),
(303,806,l),
(422,662,l)
);
}
);
width = 1088;
},
{
layerId = "51237170-216B-44E4-96C8-4B0B4EBB077A";
shapes = (
{
closed = 1;
nodes = (
(660,1004,l),
(759,706,l),
(831,732,l),
(708,1026,l),
(1026,1028,l),
(1021,1106,l),
(708,1081,l),
(796,1380,l),
(731,1401,l),
(654,1090,l),
(395,1273,l),
(351,1209,l),
(624,1045,l),
(375,854,l),
(418,798,l)
);
}
);
width = 1022;
}
);
leftKerningGroup = _degree2;
rightKerningGroup = _degree;
unicode = 42;
},
{
glyphname = plus;
layers = (
{
layerId = "6FE47AEA-F74C-4003-B51F-DE39BA7C9A54";
shapes = (
{
closed = 1;
nodes = (
(677,113,l),
(792,538,l),
(1231,538,l),
(1301,802,l),
(862,802,l),
(977,1227,l),
(702,1227,l),
(586,802,l),
(146,802,l),
(76,538,l),
(516,538,l),
(401,113,l)
);
}
);
width = 1296;
},
{
layerId = "12ED6207-3C14-4312-BF04-326F9D0146DE";
shapes = (
{
closed = 1;
nodes = (
(644,187,l),
(752,592,l),
(1177,592,l),
(1216,740,l),
(791,740,l),
(900,1145,l),
(746,1145,l),
(637,740,l),
(213,740,l),
(174,592,l),
(598,592,l),
(490,187,l)
);
}
);
width = 1296;
},
{
layerId = "51237170-216B-44E4-96C8-4B0B4EBB077A";
shapes = (
{
closed = 1;
nodes = (
(622,237,l),
(727,628,l),
(1141,628,l),
(1159,698,l),
(744,698,l),
(849,1090,l),
(775,1090,l),
(672,698,l),
(257,698,l),
(239,628,l),
(653,628,l),
(549,237,l)
);
}
);
width = 1296;
}
);
leftKerningGroup = _plus2;
rightKerningGroup = _plus;
unicode = 43;
},
{
glyphname = hyphen;
layers = (
{
layerId = "6FE47AEA-F74C-4003-B51F-DE39BA7C9A54";
shapes = (
{
closed = 1;
nodes = (
(675,395,l),
(768,739,l),
(151,739,l),
(58,395,l)
);
}
);
width = 799;
},
{
layerId = "12ED6207-3C14-4312-BF04-326F9D0146DE";
shapes = (
{
closed = 1;
nodes = (
(649,476,l),
(694,648,l),
(164,648,l),
(119,476,l)
);
}
);
width = 775;
},
{
layerId = "51237170-216B-44E4-96C8-4B0B4EBB077A";
shapes = (
{
closed = 1;
nodes = (
(631,530,l),
(644,588,l),
(172,588,l),
(159,530,l)
);
}
);
width = 759;
}
);
leftKerningGroup = _hyphen2;
rightKerningGroup = _hyphen;
unicode = 45;
},
{
glyphname = slash;
layers = (
{
layerId = "6FE47AEA-F74C-4003-B51F-DE39BA7C9A54";
shapes = (
{
closed = 1;
nodes = (
(1201,1431,l),
(931,1610,l),
(-155,-50,l),
(115,-230,l)
);
}
);
width = 947;
},
{
layerId = "12ED6207-3C14-4312-BF04-326F9D0146DE";
shapes = (
{
closed = 1;
nodes = (
(1171,1513,l),
(1030,1610,l),
(-150,-136,l),
(-6,-230,l)
);
}
);
width = 909;
},
{
layerId = "51237170-216B-44E4-96C8-4B0B4EBB077A";
shapes = (
{
closed = 1;
nodes = (
(1150,1568,l),
(1095,1610,l),
(-147,-193,l),
(-87,-230,l)
);
}
);
width = 884;
}
);
unicode = 47;
},
{
glyphname = zero;
layers = (
{
layerId = "6FE47AEA-F74C-4003-B51F-DE39BA7C9A54";
shapes = (
{
closed = 1;
nodes = (
(1029,-31,o),
(1270,510,o),
(1270,912,cs),
(1270,1254,o),
(1085,1470,o),
(767,1470,cs),
(301,1470,o),
(59,929,o),
(59,529,cs),
(59,189,o),
(247,-31,o),
(565,-31,cs)
);
},
{
closed = 1;
nodes = (
(469,314,o),
(428,416,o),
(428,534,cs),
(428,719,o),
(513,1125,o),
(738,1125,cs),
(860,1125,o),
(905,1028,o),
(905,909,cs),
(905,724,o),
(817,314,o),
(591,314,cs)
);
}
);
width = 1200;
},
{
layerId = "12ED6207-3C14-4312-BF04-326F9D0146DE";
shapes = (
{
closed = 1;
nodes = (
(987,-31,o),
(1241,515,o),
(1241,919,cs),
(1241,1225,o),
(1088,1470,o),
(788,1470,cs),
(342,1470,o),
(102,902,o),
(102,518,cs),
(102,213,o),
(256,-31,o),
(554,-31,cs)
);
},
{
closed = 1;
nodes = (
(380,155,o),
(301,322,o),
(301,513,cs),
(301,791,o),
(450,1284,o),
(767,1284,cs),
(964,1284,o),
(1041,1125,o),
(1041,930,cs),
(1041,652,o),
(893,155,o),
(575,155,cs)
);
}
);
width = 1200;
},
{
layerId = "51237170-216B-44E4-96C8-4B0B4EBB077A";
shapes = (
{
closed = 1;
nodes = (
(958,-31,o),
(1221,517,o),
(1221,923,cs),
(1221,1206,o),
(1090,1470,o),
(804,1470,cs),
(368,1470,o),
(128,883,o),
(128,510,cs),
(128,231,o),
(262,-31,o),
(547,-31,cs)
);
},
{
closed = 1;
nodes = (
(321,48,o),
(216,259,o),
(216,499,cs),
(216,840,o),
(407,1391,o),
(785,1391,cs),
(1033,1391,o),
(1132,1188,o),
(1132,943,cs),
(1132,604,o),
(942,48,o),
(565,48,cs)
);
}
);
width = 1200;
}
);
leftKerningGroup = _plus2;
rightKerningGroup = _plus;
unicode = 48;
},
{
glyphname = one;
layers = (
{
layerId = "6FE47AEA-F74C-4003-B51F-DE39BA7C9A54";
shapes = (
{
closed = 1;
nodes = (
(1041,0,l),
(1130,361,l),
(801,361,l),
(1070,1440,l),
(998,1440,l),
(221,1180,l),
(306,871,l),
(605,966,l),
(452,361,l),
(83,361,l),
(-7,0,l)
);
}
);
width = 1200;
},
{
layerId = "12ED6207-3C14-4312-BF04-326F9D0146DE";
shapes = (
{
closed = 1;
nodes = (
(982,0,l),
(1027,188,l),
(668,188,l),
(980,1440,l),
(915,1440,l),
(306,1225,l),
(354,1065,l),
(737,1201,l),
(481,188,l),
(83,188,l),
(36,0,l)
);
}
);
width = 1200;
},
{
layerId = "51237170-216B-44E4-96C8-4B0B4EBB077A";
shapes = (
{
closed = 1;
nodes = (
(941,0,l),
(958,71,l),
(579,71,l),
(919,1440,l),
(860,1440,l),
(362,1254,l),
(388,1195,l),
(824,1357,l),
(500,71,l),
(82,71,l),
(63,0,l)
);
}
);
width = 1200;
}
);
leftKerningGroup = _plus2;
rightKerningGroup = _plus;
unicode = 49;
},
{
glyphname = two;
layers = (
{
layerId = "6FE47AEA-F74C-4003-B51F-DE39BA7C9A54";
shapes = (
{
closed = 1;
nodes = (
(426,875,l),
(493,983,o),
(633,1161,o),
(770,1161,cs),
(845,1161,o),
(909,1125,o),
(909,1044,cs),
(909,1023,o),
(905,1000,o),
(897,979,c),
(843,804,o),
(222,402,o),
(40,292,c),
(-38,0,l),
(996,0,l),
(1082,324,l),
(609,324,l),
(831,421,o),
(1112,601,o),
(1229,839,cs),
(1264,909,o),
(1285,984,o),
(1285,1064,cs),
(1285,1347,o),
(1046,1470,o),
(785,1470,cs),
(478,1470,o),
(271,1280,o),
(133,1033,c)
);
}
);
width = 1200;
},
{
layerId = "12ED6207-3C14-4312-BF04-326F9D0146DE";
shapes = (
{
closed = 1;
nodes = (
(416,1033,l),
(478,1171,o),
(647,1306,o),
(798,1306,cs),
(976,1306,o),
(1072,1242,o),
(1072,1114,cs),
(1072,1060,o),
(1051,995,o),
(1025,946,c),
(904,699,o),
(296,304,o),
(39,155,c),
(-3,0,l),
(961,0,l),
(1010,178,l),
(360,178,l),
(591,301,o),
(1007,569,o),
(1183,854,cs),
(1236,937,o),
(1269,1025,o),
(1269,1109,cs),
(1269,1360,o),
(1101,1470,o),
(808,1470,cs),
(566,1470,o),
(354,1319,o),
(246,1110,c)
);
}
);
width = 1200;
},
{
layerId = "51237170-216B-44E4-96C8-4B0B4EBB077A";
shapes = (
{
closed = 1;
nodes = (
(408,1140,l),
(466,1295,o),
(657,1402,o),
(818,1402,cs),
(1063,1402,o),
(1182,1319,o),
(1182,1163,cs),
(1182,1084,o),
(1148,992,o),
(1109,925,cs),
(944,628,o),
(344,241,o),
(38,64,c),
(19,0,l),
(939,0,l),
(960,81,l),
(194,81,l),
(431,224,o),
(934,547,o),
(1153,864,cs),
(1217,957,o),
(1256,1053,o),
(1256,1141,cs),
(1256,1368,o),
(1137,1470,o),
(824,1470,cs),
(623,1470,o),
(409,1345,o),
(321,1163,c)
);
}
);
width = 1200;
}
);
leftKerningGroup = _two.tnum2;
rightKerningGroup = _two.tnum;
unicode = 50;
},
{
glyphname = three;
layers = (
{
layerId = "6FE47AEA-F74C-4003-B51F-DE39BA7C9A54";
shapes = (
{
closed = 1;
nodes = (
(807,-33,o),
(1108,157,o),
(1108,489,cs),
(1108,660,o),
(1011,785,o),
(856,833,c),
(1232,1144,l),
(1311,1440,l),
(361,1440,l),
(275,1113,l),
(766,1113,l),
(383,844,l),
(416,610,l),
(455,618,o),
(500,620,o),
(543,620,cs),
(645,620,o),
(746,585,o),
(746,481,cs),
(746,360,o),
(631,305,o),
(523,305,cs),
(397,305,o),
(254,355,o),
(197,459,c),
(12,169,l),
(93,32,o),
(354,-33,o),
(506,-33,cs)
);
}
);
width = 1200;
},
{
layerId = "12ED6207-3C14-4312-BF04-326F9D0146DE";
shapes = (
{
closed = 1;
nodes = (
(799,-31,o),
(1075,167,o),
(1075,482,cs),
(1075,713,o),
(879,816,o),
(682,839,c),
(1233,1278,l),
(1276,1440,l),
(387,1440,l),
(340,1262,l),
(970,1262,l),
(405,823,l),
(427,700,l),
(457,706,o),
(497,707,o),
(536,707,cs),
(694,707,o),
(879,654,o),
(879,471,cs),
(879,270,o),
(714,153,o),
(519,153,cs),
(383,153,o),
(232,202,o),
(148,300,c),
(41,141,l),
(141,23,o),
(361,-31,o),
(508,-31,cs)
);
}
);
width = 1200;
},
{
layerId = "51237170-216B-44E4-96C8-4B0B4EBB077A";
shapes = (
{
closed = 1;
nodes = (
(793,-29,o),
(1054,174,o),
(1054,478,cs),
(1054,748,o),
(790,836,o),
(566,842,c),
(1233,1367,l),
(1253,1440,l),
(403,1440,l),
(384,1361,l),
(1105,1361,l),
(421,807,l),
(434,759,l),
(458,764,o),
(494,764,o),
(530,764,cs),
(726,764,o),
(966,701,o),
(966,465,cs),
(966,207,o),
(768,51,o),
(517,51,cs),
(372,51,o),
(215,99,o),
(114,193,c),
(59,121,l),
(173,17,o),
(366,-29,o),
(509,-29,cs)
);
}
);
width = 1200;
}
);
leftKerningGroup = _plus2;
rightKerningGroup = _plus;
unicode = 51;
},
{
glyphname = four;
layers = (
{
layerId = "6FE47AEA-F74C-4003-B51F-DE39BA7C9A54";
shapes = (
{
closed = 1;
nodes = (
(876,0,l),
(940,255,l),
(1114,255,l),
(1197,577,l),
(1024,577,l),
(1088,834,l),
(767,834,l),
(703,577,l),
(486,577,l),
(1069,1440,l),
(669,1440,l),
(58,535,l),
(-16,255,l),
(619,255,l),
(555,0,l)
);
}
);
width = 1200;
},
{
layerId = "12ED6207-3C14-4312-BF04-326F9D0146DE";
shapes = (
{
closed = 1;
nodes = (
(811,0,l),
(888,300,l),
(1106,300,l),
(1151,476,l),
(933,476,l),
(1016,803,l),
(838,803,l),
(756,476,l),
(287,476,l),
(1029,1440,l),
(811,1440,l),
(59,459,l),
(19,300,l),
(711,300,l),
(633,0,l)
);
}
);
width = 1200;
},
{
layerId = "51237170-216B-44E4-96C8-4B0B4EBB077A";
shapes = (
{
closed = 1;
nodes = (
(768,0,l),
(853,330,l),
(1100,330,l),
(1120,410,l),
(872,410,l),
(967,783,l),
(886,783,l),
(790,410,l),
(154,410,l),
(1004,1440,l),
(906,1440,l),
(60,410,l),
(42,330,l),
(771,330,l),
(686,0,l)
);
}
);
width = 1200;
}
);
leftKerningGroup = _plus2;
rightKerningGroup = _plus;
unicode = 52;
},
{
glyphname = five;
layers = (
{
layerId = "6FE47AEA-F74C-4003-B51F-DE39BA7C9A54";
shapes = (
{
closed = 1;
nodes = (
(855,-31,o),
(1105,197,o),
(1105,525,cs),
(1105,796,o),
(906,922,o),
(641,922,cs),
(632,922,o),
(623,922,o),
(614,920,c),
(611,920,l),
(677,1089,l),
(1225,1089,l),
(1316,1440,l),
(497,1440,l),
(251,759,l),
(351,587,l),
(421,611,o),
(480,619,o),
(535,619,cs),
(620,619,o),
(737,595,o),
(737,484,cs),
(737,362,o),
(637,307,o),
(532,307,cs),
(402,307,o),
(275,344,o),
(196,456,c),
(19,163,l),
(135,26,o),
(352,-31,o),
(520,-31,cs)
);
}
);
width = 1200;
},
{
layerId = "12ED6207-3C14-4312-BF04-326F9D0146DE";
shapes = (
{
closed = 1;
nodes = (
(811,-31,o),
(1069,187,o),
(1069,509,cs),
(1069,773,o),
(862,894,o),
(626,894,cs),
(581,894,o),
(537,888,o),
(489,876,c),
(486,876,l),
(627,1255,l),
(1236,1255,l),
(1282,1440,l),
(527,1440,l),
(281,760,l),
(327,687,l),
(411,716,o),
(487,727,o),
(555,727,cs),
(703,727,o),
(867,662,o),
(867,484,cs),
(867,280,o),
(709,153,o),
(519,153,cs),
(389,153,o),
(241,203,o),
(150,302,c),
(46,140,l),
(150,26,o),
(359,-31,o),
(505,-31,cs)
);
}
);
width = 1200;
},
{
layerId = "51237170-216B-44E4-96C8-4B0B4EBB077A";
shapes = (
{
closed = 1;
nodes = (
(782,-31,o),
(1046,180,o),
(1046,499,cs),
(1046,757,o),
(833,876,o),
(616,876,cs),
(545,876,o),
(479,867,o),
(408,847,c),
(405,847,l),
(593,1365,l),
(1243,1365,l),
(1260,1440,l),
(545,1440,l),
(300,760,l),
(310,752,l),
(405,784,o),
(490,798,o),
(569,798,cs),
(759,798,o),
(952,708,o),
(952,484,cs),
(952,224,o),
(757,49,o),
(510,49,cs),
(380,49,o),
(217,110,o),
(119,198,c),
(62,124,l),
(160,25,o),
(363,-31,o),
(496,-31,cs)
);
}
);
width = 1200;
}
);
leftKerningGroup = _plus2;
rightKerningGroup = _plus;
unicode = 53;
},
{
glyphname = six;
layers = (
{
layerId = "6FE47AEA-F74C-4003-B51F-DE39BA7C9A54";
shapes = (
{
closed = 1;
nodes = (
(913,-31,o),
(1170,207,o),
(1170,516,cs),
(1170,768,o),
(989,946,o),
(722,946,cs),
(662,946,o),
(604,930,o),
(553,897,c),
(668,1059,o),
(912,1135,o),
(1199,1160,c),
(1183,1470,l),
(599,1470,o),
(68,1090,o),
(68,515,cs),
(68,187,o),
(281,-31,o),
(596,-31,cs)
);
},
{
closed = 1;
nodes = (
(514,291,o),
(450,360,o),
(450,451,cs),
(450,564,o),
(533,641,o),
(631,641,cs),
(723,641,o),
(786,572,o),
(786,482,cs),
(786,373,o),
(704,291,o),
(607,291,cs)
);
}
);
width = 1200;
},
{
layerId = "12ED6207-3C14-4312-BF04-326F9D0146DE";
shapes = (
{
closed = 1;
nodes = (
(898,-31,o),
(1158,210,o),
(1158,513,cs),
(1158,753,o),
(971,922,o),
(716,922,cs),
(589,922,o),
(472,870,o),
(381,777,c),
(505,1089,o),
(826,1291,o),
(1232,1299,c),
(1231,1470,l),
(642,1470,o),
(116,1059,o),
(116,459,cs),
(116,159,o),
(301,-31,o),
(600,-31,cs)
);
},
{
closed = 1;
nodes = (
(429,150,o),
(315,264,o),
(315,419,cs),
(315,611,o),
(474,751,o),
(659,751,cs),
(829,751,o),
(947,633,o),
(947,480,cs),
(947,300,o),
(797,150,o),
(612,150,cs)
);
}
);
width = 1200;
},
{
layerId = "51237170-216B-44E4-96C8-4B0B4EBB077A";
shapes = (
{
closed = 1;
nodes = (
(889,-31,o),
(1150,212,o),
(1150,509,cs),
(1150,743,o),
(957,906,o),
(712,906,cs),
(541,906,o),
(384,829,o),
(264,696,c),
(398,1109,o),
(768,1394,o),
(1254,1389,c),
(1264,1470,l),
(672,1470,o),
(146,1037,o),
(146,423,cs),
(146,143,o),
(314,-31,o),
(602,-31,cs)
);
},
{
closed = 1;
nodes = (
(371,55,o),
(227,198,o),
(227,397,cs),
(227,642,o),
(435,826,o),
(676,826,cs),
(900,826,o),
(1056,675,o),
(1056,478,cs),
(1056,251,o),
(860,55,o),
(614,55,cs)
);
}
);
width = 1200;
}
);
leftKerningGroup = _plus2;
rightKerningGroup = _plus;
unicode = 54;
},
{
glyphname = seven;
layers = (
{
layerId = "6FE47AEA-F74C-4003-B51F-DE39BA7C9A54";
shapes = (
{
closed = 1;
nodes = (
(493,0,l),
(1299,1167,l),
(1367,1440,l),
(361,1440,l),
(270,1077,l),
(819,1077,l),
(61,0,l)
);
}
);
width = 1200;
},
{
layerId = "12ED6207-3C14-4312-BF04-326F9D0146DE";
shapes = (
{
closed = 1;
nodes = (
(360,0,l),
(1274,1290,l),
(1312,1440,l),
(419,1440,l),
(371,1251,l),
(1028,1251,l),
(132,0,l)
);
}
);
width = 1200;
},
{
layerId = "51237170-216B-44E4-96C8-4B0B4EBB077A";
shapes = (
{
closed = 1;
nodes = (
(273,0,l),
(1257,1369,l),
(1275,1440,l),
(457,1440,l),
(439,1367,l),
(1165,1367,l),
(177,0,l)
);
}
);
width = 1200;
}
);
leftKerningGroup = _plus2;
rightKerningGroup = _plus;
unicode = 55;
},
{
glyphname = eight;
layers = (
{
layerId = "6FE47AEA-F74C-4003-B51F-DE39BA7C9A54";
shapes = (
{
closed = 1;
nodes = (
(809,-31,o),
(1132,132,o),
(1132,450,cs),
(1132,569,o),
(1069,668,o),
(970,730,c),
(1130,787,o),
(1256,927,o),
(1256,1104,cs),
(1256,1353,o),
(1025,1470,o),
(804,1470,cs),
(541,1470,o),
(272,1323,o),
(272,1031,cs),
(272,941,o),
(322,841,o),
(395,789,c),
(199,737,o),
(43,560,o),
(43,353,cs),
(43,83,o),
(289,-31,o),
(528,-31,cs)
);
},
{
closed = 1;
nodes = (
(489,279,o),
(414,334,o),
(414,426,cs),
(414,535,o),
(505,617,o),
(612,617,cs),
(700,617,o),
(777,572,o),
(777,475,cs),
(777,361,o),
(688,279,o),
(576,279,cs)
);
},
{
closed = 1;
nodes = (
(679,930,o),
(611,972,o),
(611,1051,cs),
(611,1141,o),
(689,1205,o),
(776,1205,cs),
(845,1205,o),
(909,1164,o),
(909,1088,cs),
(909,1002,o),
(840,930,o),
(751,930,cs)
);
}
);
width = 1200;
},
{
layerId = "12ED6207-3C14-4312-BF04-326F9D0146DE";
shapes = (
{
closed = 1;
nodes = (
(818,-31,o),
(1074,151,o),
(1074,437,cs),
(1074,572,o),
(1008,665,o),
(895,734,c),
(1067,787,o),
(1201,931,o),
(1201,1118,cs),
(1201,1345,o),
(1004,1470,o),
(793,1470,cs),
(550,1470,o),
(324,1311,o),
(324,1052,cs),
(324,950,o),
(382,843,o),
(468,788,c),
(260,735,o),
(108,566,o),
(108,346,cs),
(108,92,o),
(318,-31,o),
(550,-31,cs)
);
},
{
closed = 1;
nodes = (
(432,144,o),
(304,223,o),
(304,375,cs),
(304,554,o),
(436,675,o),
(613,675,cs),
(758,675,o),
(881,598,o),
(881,441,cs),
(881,261,o),
(745,144,o),
(571,144,cs)
);
},
{
closed = 1;
nodes = (
(616,850,o),
(509,919,o),
(509,1061,cs),
(509,1212,o),
(633,1309,o),
(778,1309,cs),
(908,1309,o),
(1014,1232,o),
(1014,1096,cs),
(1014,943,o),
(893,850,o),
(747,850,cs)
);
}
);
width = 1200;
},
{
layerId = "51237170-216B-44E4-96C8-4B0B4EBB077A";
shapes = (
{
closed = 1;
nodes = (
(810,-31,o),
(1051,156,o),
(1051,424,cs),
(1051,567,o),
(974,659,o),
(855,728,c),
(1036,777,o),
(1185,917,o),
(1185,1113,cs),
(1185,1330,o),
(991,1453,o),
(791,1453,cs),
(564,1453,o),
(340,1297,o),
(340,1053,cs),
(340,941,o),
(407,833,o),
(503,778,c),
(286,730,o),
(119,570,o),
(119,338,cs),
(119,91,o),
(329,-31,o),
(555,-31,cs)
);
},
{
closed = 1;
nodes = (
(384,53,o),
(205,142,o),
(205,336,cs),
(205,570,o),
(386,702,o),
(606,702,cs),
(785,702,o),
(960,615,o),
(960,415,cs),
(960,183,o),
(773,53,o),
(557,53,cs)
);
},
{
closed = 1;
nodes = (
(576,786,o),
(428,868,o),
(428,1056,cs),
(428,1252,o),
(602,1362,o),
(782,1362,cs),
(951,1362,o),
(1100,1273,o),
(1100,1088,cs),
(1100,888,o),
(929,786,o),
(746,786,cs)
);
}
);
width = 1200;
}
);
leftKerningGroup = _plus2;
rightKerningGroup = _plus;
unicode = 56;
},
{
glyphname = nine;
layers = (
{
layerId = "6FE47AEA-F74C-4003-B51F-DE39BA7C9A54";
shapes = (
{
closed = 1;
nodes = (
(119,-31,l),
(697,-31,o),
(1224,352,o),
(1224,936,cs),
(1224,1257,o),
(1013,1470,o),
(696,1470,cs),
(387,1470,o),
(146,1249,o),
(146,947,cs),
(146,696,o),
(321,517,o),
(582,517,cs),
(640,517,o),
(693,535,o),
(740,567,c),
(626,390,o),
(387,306,o),
(105,280,c)
);
},
{
closed = 1;
nodes = (
(587,823,o),
(530,887,o),
(530,970,cs),
(530,1073,o),
(604,1149,o),
(697,1149,cs),
(782,1149,o),
(844,1083,o),
(844,1001,cs),
(844,896,o),
(766,823,o),
(674,823,cs)
);
}
);
width = 1200;
},
{
layerId = "12ED6207-3C14-4312-BF04-326F9D0146DE";
shapes = (
{
closed = 1;
nodes = (
(105,-31,l),
(687,-31,o),
(1211,386,o),
(1211,992,cs),
(1211,1285,o),
(1024,1470,o),
(725,1470,cs),
(433,1470,o),
(193,1245,o),
(193,952,cs),
(193,711,o),
(380,542,o),
(624,542,cs),
(755,542,o),
(861,594,o),
(946,688,c),
(826,358,o),
(505,149,o),
(106,141,c)
);
},
{
closed = 1;
nodes = (
(515,714,o),
(404,821,o),
(404,972,cs),
(404,1146,o),
(548,1290,o),
(728,1290,cs),
(903,1290,o),
(1012,1181,o),
(1012,1034,cs),
(1012,850,o),
(859,714,o),
(682,714,cs)
);
}
);
width = 1200;
},
{
layerId = "51237170-216B-44E4-96C8-4B0B4EBB077A";
shapes = (
{
closed = 1;
nodes = (
(96,-31,l),
(681,-31,o),
(1203,407,o),
(1203,1028,cs),
(1203,1302,o),
(1031,1470,o),
(744,1470,cs),
(461,1470,o),
(226,1242,o),
(226,954,cs),
(226,721,o),
(419,558,o),
(649,558,cs),
(830,558,o),
(972,634,o),
(1083,768,c),
(958,339,o),
(584,45,o),
(106,50,c)
);
},
{
closed = 1;
nodes = (
(467,639,o),
(320,775,o),
(320,973,cs),
(320,1194,o),
(508,1383,o),
(747,1383,cs),
(982,1383,o),
(1123,1247,o),
(1123,1056,cs),
(1123,817,o),
(920,639,o),
(686,639,cs)
);
}
);
width = 1200;
}
);
leftKerningGroup = _plus2;
rightKerningGroup = _plus;
unicode = 57;
},
{
glyphname = less;
layers = (
{
layerId = "6FE47AEA-F74C-4003-B51F-DE39BA7C9A54";
shapes = (
{
closed = 1;
nodes = (
(1151,325,l),
(510,609,l),
(1374,928,l),
(1282,1180,l),
(137,764,l),
(67,498,l),
(1045,73,l)
);
}
);
width = 1296;
},
{
layerId = "12ED6207-3C14-4312-BF04-326F9D0146DE";
shapes = (
{
closed = 1;
nodes = (
(1104,343,l),
(422,644,l),
(1306,963,l),
(1251,1114,l),
(210,728,l),
(172,583,l),
(1039,196,l)
);
}
);
width = 1296;
},
{
layerId = "51237170-216B-44E4-96C8-4B0B4EBB077A";
shapes = (
{
closed = 1;
nodes = (
(1071,355,l),
(363,666,l),
(1259,986,l),
(1230,1070,l),
(258,704,l),
(242,639,l),
(1036,278,l)
);
}
);
width = 1296;
}
);
leftKerningGroup = _plus2;
rightKerningGroup = _plus;
unicode = 60;
},
{
glyphname = equal;
layers = (
{
layerId = "6FE47AEA-F74C-4003-B51F-DE39BA7C9A54";
shapes = (
{
closed = 1;
nodes = (
(1298,782,l),
(1368,1046,l),
(213,1046,l),
(143,782,l)
);
},
{
closed = 1;
nodes = (
(1169,295,l),
(1238,559,l),
(83,559,l),
(14,295,l)
);
}
);
width = 1296;
},
{
layerId = "12ED6207-3C14-4312-BF04-326F9D0146DE";
shapes = (
{
closed = 1;
nodes = (
(1230,782,l),
(1269,930,l),
(266,930,l),
(227,782,l)
);
},
{
closed = 1;
nodes = (
(1128,405,l),
(1167,553,l),
(164,553,l),
(124,405,l)
);
}
);
width = 1296;
},
{
layerId = "51237170-216B-44E4-96C8-4B0B4EBB077A";
shapes = (
{
closed = 1;
nodes = (
(1185,782,l),
(1203,853,l),
(301,853,l),
(283,782,l)
);
},
{
closed = 1;
nodes = (
(1100,478,l),
(1119,549,l),
(217,549,l),
(197,478,l)
);
}
);
width = 1296;
}
);
leftKerningGroup = _plus2;
rightKerningGroup = _plus;
unicode = 61;
},
{
glyphname = greater;
layers = (
{
layerId = "6FE47AEA-F74C-4003-B51F-DE39BA7C9A54";
shapes = (
{
closed = 1;
nodes = (
(1220,498,l),
(1290,764,l),
(312,1186,l),
(206,937,l),
(847,653,l),
(-17,332,l),
(75,82,l)
);
}
);
width = 1296;
},
{
layerId = "12ED6207-3C14-4312-BF04-326F9D0146DE";
shapes = (
{
closed = 1;
nodes = (
(1174,584,l),
(1212,730,l),
(345,1113,l),
(281,969,l),
(963,668,l),
(79,346,l),
(134,198,l)
);
}
);
width = 1296;
},
{
layerId = "51237170-216B-44E4-96C8-4B0B4EBB077A";
shapes = (
{
closed = 1;
nodes = (
(1144,641,l),
(1159,707,l),
(366,1065,l),
(332,990,l),
(1039,678,l),
(143,356,l),
(173,274,l)
);
}
);
width = 1296;
}
);
leftKerningGroup = _plus2;
rightKerningGroup = _plus;
unicode = 62;
},
{
glyphname = question;
layers = (
{
layerId = "6FE47AEA-F74C-4003-B51F-DE39BA7C9A54";
shapes = (
{
closed = 1;
nodes = (
(628,524,l),
(602,551,o),
(560,594,o),
(560,636,cs),
(560,685,o),
(604,719,o),
(668,744,cs),
(817,803,ls),
(971,863,o),
(1096,944,o),
(1096,1123,cs),
(1096,1384,o),
(772,1470,o),
(562,1470,cs),
(469,1470,o),
(299,1461,o),
(221,1407,c),
(210,1078,l),
(281,1102,o),
(354,1124,o),
(427,1124,cs),
(474,1124,o),
(584,1119,o),
(584,1052,cs),
(584,995,o),
(533,962,o),
(470,934,cs),
(365,887,ls),
(282,850,o),
(209,794,o),
(209,686,cs),
(209,607,o),
(291,543,o),
(348,501,c)
);
},
{
closed = 1;
nodes = (
(438,-30,o),
(564,80,o),
(564,224,cs),
(564,349,o),
(454,414,o),
(340,414,cs),
(199,414,o),
(77,308,o),
(77,162,cs),
(77,39,o),
(183,-30,o),
(297,-30,cs)
);
}
);
width = 1049;
},
{
layerId = "12ED6207-3C14-4312-BF04-326F9D0146DE";
shapes = (
{
closed = 1;
nodes = (
(491,454,l),
(455,492,o),
(399,536,o),
(399,594,cs),
(399,650,o),
(456,691,o),
(530,722,cs),
(702,794,ls),
(864,862,o),
(1020,952,o),
(1020,1148,cs),
(1020,1384,o),
(728,1470,o),
(535,1470,cs),
(437,1470,o),
(319,1450,o),
(234,1400,c),
(249,1231,l),
(320,1271,o),
(401,1290,o),
(482,1290,cs),
(590,1290,o),
(788,1251,o),
(788,1110,cs),
(788,1012,o),
(675,964,o),
(583,925,cs),
(433,862,ls),
(315,812,o),
(208,749,o),
(208,624,cs),
(208,544,o),
(272,480,o),
(328,432,c)
);
},
{
closed = 1;
nodes = (
(335,-23,o),
(413,43,o),
(413,131,cs),
(413,208,o),
(345,249,o),
(274,249,cs),
(190,249,o),
(113,185,o),
(113,97,cs),
(113,21,o),
(179,-23,o),
(250,-23,cs)
);
}
);
width = 977;
},
{
layerId = "51237170-216B-44E4-96C8-4B0B4EBB077A";
shapes = (
{
closed = 1;
nodes = (
(389,407,l),
(346,454,o),
(274,512,o),
(274,582,cs),
(274,640,o),
(315,677,o),
(428,726,cs),
(615,806,ls),
(785,878,o),
(969,953,o),
(969,1161,cs),
(969,1384,o),
(703,1470,o),
(520,1470,cs),
(421,1470,o),
(331,1444,o),
(241,1397,c),
(270,1326,l),
(341,1375,o),
(426,1392,o),
(513,1392,cs),
(654,1392,o),
(887,1340,o),
(887,1158,cs),
(887,1032,o),
(767,951,o),
(653,904,cs),
(473,828,ls),
(330,770,o),
(201,721,o),
(201,583,cs),
(201,502,o),
(251,439,o),
(307,387,c)
);
},
{
closed = 1;
nodes = (
(278,-20,o),
(330,24,o),
(330,80,cs),
(330,130,o),
(285,158,o),
(238,158,cs),
(184,158,o),
(132,118,o),
(132,61,cs),
(132,11,o),
(177,-20,o),
(225,-20,cs)
);
}
);
width = 936;
}
);
unicode = 63;
},
{
glyphname = at;
layers = (
{
layerId = "6FE47AEA-F74C-4003-B51F-DE39BA7C9A54";
shapes = (
{
closed = 1;
nodes = (
(968,-234,o),
(1066,-219,o),
(1162,-191,cs),
(1258,-162,o),
(1346,-120,o),
(1426,-64,c),
(1347,113,l),
(1278,64,o),
(1202,24,o),
(1119,-3,cs),
(1036,-30,o),
(950,-43,o),
(861,-43,cs),
(687,-43,o),
(545,11,o),
(444,103,cs),
(343,196,o),
(285,323,o),
(285,480,cs),
(285,648,o),
(346,790,o),
(453,894,cs),
(561,997,o),
(705,1056,o),
(877,1056,cs),
(1038,1056,o),
(1173,1009,o),
(1269,925,cs),
(1366,840,o),
(1421,721,o),
(1421,576,cs),
(1421,502,o),
(1408,443,o),
(1382,404,c),
(1357,363,o),
(1318,343,o),
(1273,343,cs),
(1241,343,o),
(1220,353,o),
(1205,370,cs),
(1190,388,o),
(1183,416,o),
(1186,449,c),
(1208,841,l),
(1024,841,l),
(1022,788,l),
(954,844,o),
(888,867,o),
(811,867,cs),
(706,867,o),
(614,829,o),
(550,761,cs),
(486,693,o),
(449,600,o),
(449,492,cs),
(449,392,o),
(482,309,o),
(542,249,cs),
(602,189,o),
(683,153,o),
(783,153,cs),
(882,153,o),
(952,187,o),
(1027,263,c),
(1071,190,o),
(1147,153,o),
(1253,153,cs),
(1357,153,o),
(1449,202,o),
(1516,279,cs),
(1584,355,o),
(1626,460,o),
(1626,576,cs),
(1626,775,o),
(1551,939,o),
(1419,1058,cs),
(1286,1177,o),
(1103,1242,o),
(883,1242,cs),
(650,1242,o),
(452,1164,o),
(308,1028,cs),
(163,891,o),
(79,705,o),
(79,486,cs),
(79,273,o),
(157,95,o),
(297,-34,cs),
(437,-162,o),
(632,-234,o),
(864,-234,cs)
);
},
{
closed = 1;
nodes = (
(735,363,o),
(694,408,o),
(694,490,cs),
(694,540,o),
(707,583,o),
(732,611,cs),
(758,640,o),
(793,655,o),
(837,655,cs),
(910,655,o),
(953,610,o),
(953,528,cs),
(953,426,o),
(898,363,o),
(808,363,cs)
);
}
);
width = 1689;
},
{
layerId = "12ED6207-3C14-4312-BF04-326F9D0146DE";
shapes = (
{
closed = 1;
nodes = (
(979,-234,o),
(1083,-219,o),
(1180,-192,c),
(1276,-163,o),
(1361,-124,o),
(1428,-74,c),
(1376,36,l),
(1320,-9,o),
(1244,-47,o),
(1157,-74,cs),
(1071,-101,o),
(977,-116,o),
(885,-116,cs),
(690,-116,o),
(533,-54,o),
(420,53,cs),
(306,159,o),
(242,307,o),
(242,487,cs),
(242,671,o),
(310,828,o),
(429,944,cs),
(548,1059,o),
(707,1125,o),
(895,1125,cs),
(1074,1125,o),
(1224,1071,o),
(1332,973,cs),
(1440,875,o),
(1502,738,o),
(1502,573,cs),
(1502,478,o),
(1479,398,o),
(1442,342,cs),
(1404,285,o),
(1352,254,o),
(1294,254,cs),
(1245,254,o),
(1216,266,o),
(1198,292,c),
(1179,317,o),
(1172,356,o),
(1176,411,c),
(1199,857,l),
(1073,857,l),
(1070,777,l),
(1005,850,o),
(929,883,o),
(838,883,cs),
(738,883,o),
(648,841,o),
(584,769,cs),
(520,698,o),
(483,600,o),
(483,489,cs),
(483,389,o),
(515,302,o),
(572,239,cs),
(629,176,o),
(705,139,o),
(797,139,cs),
(914,139,o),
(1007,188,o),
(1069,277,c),
(1092,189,o),
(1160,139,o),
(1278,139,cs),
(1377,139,o),
(1463,186,o),
(1526,265,cs),
(1589,343,o),
(1630,450,o),
(1630,575,cs),
(1630,774,o),
(1555,937,o),
(1425,1057,cs),
(1294,1177,o),
(1114,1242,o),
(897,1242,cs),
(670,1242,o),
(478,1164,o),
(337,1027,cs),
(197,890,o),
(114,704,o),
(114,485,cs),
(114,270,o),
(188,93,o),
(324,-35,cs),
(458,-163,o),
(647,-234,o),
(875,-234,cs)
);
},
{
closed = 1;
nodes = (
(695,269,o),
(630,344,o),
(630,486,cs),
(630,568,o),
(650,637,o),
(689,682,cs),
(727,728,o),
(781,751,o),
(851,751,cs),
(971,751,o),
(1039,678,o),
(1039,538,cs),
(1039,368,o),
(958,269,o),
(819,269,cs)
);
}
);
width = 1715;
},
{
layerId = "51237170-216B-44E4-96C8-4B0B4EBB077A";
shapes = (
{
closed = 1;
nodes = (
(986,-234,o),
(1095,-219,o),
(1192,-192,cs),
(1288,-164,o),
(1371,-126,o),
(1429,-80,c),
(1395,-15,l),
(1347,-57,o),
(1271,-94,o),
(1182,-122,cs),
(1093,-149,o),
(993,-164,o),
(900,-164,cs),
(692,-164,o),
(525,-98,o),
(404,18,cs),
(282,135,o),
(214,295,o),
(214,491,cs),
(214,686,o),
(286,853,o),
(413,978,cs),
(539,1100,o),
(708,1172,o),
(907,1172,cs),
(1097,1172,o),
(1259,1112,o),
(1374,1005,cs),
(1490,897,o),
(1555,748,o),
(1555,571,cs),
(1555,462,o),
(1527,368,o),
(1482,300,cs),
(1435,232,o),
(1374,194,o),
(1307,194,cs),
(1248,194,o),
(1213,209,o),
(1192,239,cs),
(1172,269,o),
(1165,316,o),
(1169,386,cs),
(1193,867,l),
(1106,867,l),
(1102,770,l),
(1039,853,o),
(954,893,o),
(854,893,cs),
(759,893,o),
(670,848,o),
(606,775,cs),
(542,701,o),
(504,600,o),
(504,487,cs),
(504,387,o),
(536,298,o),
(591,233,cs),
(647,168,o),
(720,129,o),
(806,129,cs),
(935,129,o),
(1043,189,o),
(1096,287,c),
(1107,188,o),
(1168,129,o),
(1294,129,cs),
(1389,129,o),
(1472,174,o),
(1532,255,cs),
(1592,335,o),
(1632,444,o),
(1632,574,cs),
(1632,773,o),
(1557,935,o),
(1428,1056,cs),
(1300,1176,o),
(1121,1242,o),
(906,1242,cs),
(683,1242,o),
(494,1163,o),
(356,1026,cs),
(218,889,o),
(136,703,o),
(136,484,cs),
(136,268,o),
(209,91,o),
(340,-36,cs),
(473,-164,o),
(657,-234,o),
(881,-234,cs)
);
},
{
closed = 1;
nodes = (
(670,207,o),
(586,302,o),
(586,483,cs),
(586,587,o),
(611,672,o),
(660,729,cs),
(706,785,o),
(773,815,o),
(860,815,cs),
(1012,815,o),
(1096,722,o),
(1096,544,cs),
(1096,329,o),
(998,207,o),
(825,207,cs)
);
}
);
width = 1731;
}
);
rightKerningGroup = _at;
unicode = 64;
},
{
glyphname = A;
layers = (
{
layerId = "6FE47AEA-F74C-4003-B51F-DE39BA7C9A54";
shapes = (
{
closed = 1;
nodes = (
(329,0,l),
(483,260,l),
(930,260,l),
(944,0,l),
(1392,0,l),
(1261,1440,l),
(778,1440,l),
(-144,0,l)
);
},
{
closed = 1;
nodes = (
(909,1005,l),
(935,598,l),
(659,598,l)
);
}
);
width = 1494;
},
{
layerId = "12ED6207-3C14-4312-BF04-326F9D0146DE";
shapes = (
{
closed = 1;
nodes = (
(130.688,0,l),
(358.371,353.266,l),
(980.16,353.266,l),
(1028.147,0,l),
(1253.788,0,l),
(1058.777,1439.61,l),
(840.283,1439.61,l),
(-110.268,0,l)
);
},
{
closed = 1;
nodes = (
(884.186,1181.297,l),
(971.992,535.004,l),
(461.492,535.004,l)
);
}
);
width = 1376;
},
{
layerId = "51237170-216B-44E4-96C8-4B0B4EBB077A";
shapes = (
{
closed = 1;
nodes = (
(-2.042,0,l),
(275.67,415.547,l),
(1013.853,415.547,l),
(1082.26,0,l),
(1162.919,0,l),
(925.026,1439.61,l),
(881.123,1439.61,l),
(-87.806,0,l)
);
},
{
closed = 1;
nodes = (
(867.85,1298.712,l),
(994.454,491.101,l),
(330.804,491.101,l)
);
}
);
width = 1298;
}
);
leftKerningGroup = _A2;
rightKerningGroup = _A;
unicode = 65;
},
{
glyphname = B;
layers = (
{
layerId = "6FE47AEA-F74C-4003-B51F-DE39BA7C9A54";
shapes = (
{
closed = 1;
nodes = (
(700,0,ls),
(857,0,o),
(1006,44,o),
(1112,126,cs),
(1220,206,o),
(1291,322,o),
(1291,474,cs),
(1291,539,o),
(1276,595,o),
(1248,648,cs),
(1220,701,o),
(1178,740,o),
(1124,772,c),
(1207,801,o),
(1277,844,o),
(1327,902,cs),
(1377,960,o),
(1407,1030,o),
(1407,1112,cs),
(1407,1215,o),
(1365,1298,o),
(1283,1354,cs),
(1201,1410,o),
(1081,1440,o),
(928,1440,cs),
(402,1440,l),
(16,0,l)
);
},
{
closed = 1;
nodes = (
(584,592,l),
(697,592,ls),
(750,592,o),
(791,582,o),
(820,563,c),
(848,541,o),
(861,511,o),
(861,469,cs),
(861,417,o),
(843,375,o),
(813,344,cs),
(782,313,o),
(737,294,o),
(685,294,cs),
(501,294,l)
);
},
{
closed = 1;
nodes = (
(734,1146,l),
(829,1146,ls),
(942,1146,o),
(996,1108,o),
(996,1029,cs),
(996,990,o),
(981,949,o),
(955,916,cs),
(929,884,o),
(891,864,o),
(847,864,cs),
(657,864,l)
);
}
);
width = 1351;
},
{
layerId = "12ED6207-3C14-4312-BF04-326F9D0146DE";
shapes = (
{
closed = 1;
nodes = (
(637.104,0,ls),
(780.044,0,o),
(910.732,46.966,o),
(1004.664,126.604,cs),
(1096.554,206.242,o),
(1156.793,320.594,o),
(1156.793,459.45,cs),
(1156.793,522.752,o),
(1140.457,580.949,o),
(1107.785,634.041,cs),
(1075.113,687.133,o),
(1025.084,726.952,o),
(956.677,755.54,c),
(1053.672,778.002,o),
(1137.394,823.947,o),
(1196.612,886.228,cs),
(1256.851,949.53,o),
(1292.586,1030.189,o),
(1292.586,1114.932,cs),
(1292.586,1216.011,o),
(1252.767,1297.691,o),
(1176.192,1353.846,cs),
(1099.617,1410.001,o),
(991.391,1439.61,o),
(852.535,1439.61,cs),
(441.072,1439.61,l),
(55.134,0,l)
);
},
{
closed = 1;
nodes = (
(439.03,658.545,l),
(683.049,658.545,ls),
(761.666,658.545,o),
(827.01,643.23,o),
(872.955,609.537,cs),
(918.9,575.844,o),
(942.383,526.836,o),
(942.383,459.45,cs),
(942.383,365.518,o),
(912.774,294.048,o),
(857.64,245.04,cs),
(802.506,195.011,o),
(722.868,167.444,o),
(623.831,167.444,cs),
(307.321,167.444,l)
);
},
{
closed = 1;
nodes = (
(605.453,1272.166,l),
(791.275,1272.166,ls),
(986.286,1272.166,o),
(1080.218,1206.822,o),
(1080.218,1085.323,cs),
(1080.218,1007.727,o),
(1043.462,941.362,o),
(980.16,895.417,c),
(916.858,847.43,o),
(830.073,818.842,o),
(730.015,818.842,cs),
(482.933,818.842,l)
);
}
);
width = 1260;
},
{
layerId = "51237170-216B-44E4-96C8-4B0B4EBB077A";
shapes = (
{
closed = 1;
nodes = (
(595.243,0,ls),
(728.994,0,o),
(848.451,49.008,o),
(932.173,127.625,cs),
(1015.895,206.242,o),
(1066.945,319.573,o),
(1066.945,449.24,cs),
(1066.945,509.479,o),
(1049.588,570.739,o),
(1014.874,623.831,cs),
(979.139,677.944,o),
(922.984,718.784,o),
(845.388,743.288,c),
(949.53,761.666,o),
(1042.441,807.611,o),
(1109.827,876.018,cs),
(1177.213,942.383,o),
(1214.99,1030.189,o),
(1214.99,1117.995,cs),
(1214.99,1216.011,o),
(1178.234,1297.691,o),
(1104.722,1353.846,cs),
(1032.231,1410.001,o),
(929.11,1439.61,o),
(799.443,1439.61,cs),
(465.576,1439.61,l),
(80.659,0,l)
);
},
{
closed = 1;
nodes = (
(342.035,704.49,l),
(672.839,704.49,ls),
(767.792,704.49,o),
(849.472,685.091,o),
(908.69,641.188,cs),
(964.845,597.285,o),
(997.517,537.046,o),
(997.517,453.324,cs),
(997.517,330.804,o),
(957.698,239.935,o),
(886.228,178.675,cs),
(814.758,117.415,o),
(713.679,83.722,o),
(582.991,83.722,cs),
(176.633,83.722,l)
);
},
{
closed = 1;
nodes = (
(519.689,1355.888,l),
(766.771,1355.888,ls),
(1014.874,1355.888,o),
(1137.394,1273.187,o),
(1137.394,1123.1,cs),
(1137.394,1019.979,o),
(1084.302,937.278,o),
(996.496,880.102,cs),
(908.69,822.926,o),
(787.191,790.254,o),
(651.398,790.254,cs),
(365.518,790.254,l)
);
}
);
width = 1200;
}
);
leftKerningGroup = _B2;
rightKerningGroup = _B;
unicode = 66;
},
{
glyphname = C;
layers = (
{
layerId = "6FE47AEA-F74C-4003-B51F-DE39BA7C9A54";
shapes = (
{
closed = 1;
nodes = (
(985,-30,o),
(1145,16,o),
(1274,94,c),
(1178,446,l),
(1072,385,o),
(957,360,o),
(862,360,cs),
(759,360,o),
(679,388,o),
(625,434,cs),
(571,480,o),
(544,548,o),
(544,630,cs),
(544,750,o),
(579,855,o),
(644,929,cs),
(710,1004,o),
(806,1050,o),
(921,1050,cs),
(1056,1050,o),
(1168,1002,o),
(1225,911,c),
(1495,1213,l),
(1423,1298,o),
(1346,1353,o),
(1258,1390,c),
(1169,1425,o),
(1069,1440,o),
(949,1440,cs),
(872,1440,o),
(799,1430,o),
(727,1409,cs),
(585,1367,o),
(460,1291,o),
(359,1185,cs),
(308,1132,o),
(265,1073,o),
(230,1008,cs),
(157,876,o),
(115,726,o),
(115,561,cs),
(115,372,o),
(189,226,o),
(311,125,cs),
(432,23,o),
(599,-30,o),
(793,-30,cs)
);
}
);
width = 1406;
},
{
layerId = "12ED6207-3C14-4312-BF04-326F9D0146DE";
shapes = (
{
closed = 1;
nodes = (
(963,-30,o),
(1108,8,o),
(1242,91,c),
(1192,274,l),
(1080,201,o),
(965,168,o),
(842,168,cs),
(692,168,o),
(576,207,o),
(495,281,cs),
(414,353,o),
(371,456,o),
(371,588,cs),
(371,767,o),
(425,931,o),
(527,1050,cs),
(628,1168,o),
(773,1244,o),
(953,1244,cs),
(1122,1244,o),
(1244,1188,o),
(1320,1093,c),
(1465,1248,l),
(1409,1312,o),
(1340,1361,o),
(1258,1393,cs),
(1175,1424,o),
(1079,1440,o),
(967,1440,cs),
(890,1440,o),
(819,1430,o),
(748,1408,cs),
(607,1364,o),
(486,1285,o),
(388,1177,cs),
(338,1122,o),
(297,1063,o),
(262,996,cs),
(191,863,o),
(150,713,o),
(150,553,cs),
(150,374,o),
(215,230,o),
(328,128,cs),
(441,26,o),
(601,-30,o),
(800,-30,cs)
);
}
);
width = 1396;
},
{
layerId = "51237170-216B-44E4-96C8-4B0B4EBB077A";
shapes = (
{
closed = 1;
nodes = (
(947,-30,o),
(1082,2,o),
(1220,88,c),
(1200,159,l),
(1086,81,o),
(971,40,o),
(827,40,cs),
(647,40,o),
(506,88,o),
(409,178,cs),
(308,270,o),
(255,396,o),
(255,560,cs),
(255,779,o),
(322,983,o),
(448,1130,cs),
(574,1278,o),
(752,1371,o),
(972,1371,cs),
(1164,1371,o),
(1294,1312,o),
(1382,1214,c),
(1444,1270,l),
(1399,1322,o),
(1337,1365,o),
(1258,1395,c),
(1178,1423,o),
(1085,1440,o),
(979,1440,cs),
(902,1440,o),
(831,1430,o),
(761,1407,cs),
(622,1361,o),
(502,1282,o),
(407,1171,c),
(357,1115,o),
(318,1056,o),
(283,988,cs),
(213,854,o),
(173,704,o),
(173,547,cs),
(173,375,o),
(232,232,o),
(340,130,cs),
(447,28,o),
(602,-30,o),
(804,-30,cs)
);
}
);
width = 1390;
}
);
leftKerningGroup = _C2;
rightKerningGroup = _C;
unicode = 67;
},
{
glyphname = D;
layers = (
{
layerId = "6FE47AEA-F74C-4003-B51F-DE39BA7C9A54";
shapes = (
{
closed = 1;
nodes = (
(653,0,ls),
(902,0,o),
(1110,92,o),
(1264,241,cs),
(1416,390,o),
(1503,597,o),
(1503,835,cs),
(1503,1036,o),
(1427,1184,o),
(1296,1287,cs),
(1163,1390,o),
(984,1440,o),
(770,1440,cs),
(400,1440,l),
(14,0,l)
);
},
{
closed = 1;
nodes = (
(706,1059,l),
(748,1059,ls),
(845,1059,o),
(926,1038,o),
(984,993,cs),
(1041,947,o),
(1071,883,o),
(1071,791,cs),
(1071,675,o),
(1038,574,o),
(970,499,cs),
(904,425,o),
(808,381,o),
(686,381,cs),
(527,381,l)
);
}
);
width = 1478;
},
{
layerId = "12ED6207-3C14-4312-BF04-326F9D0146DE";
shapes = (
{
closed = 1;
nodes = (
(552.361,0,ls),
(811.695,0,o),
(1027.126,84.743,o),
(1181.297,233.809,cs),
(1336.489,381.854,o),
(1424.295,589.117,o),
(1424.295,842.325,cs),
(1424.295,1043.462,o),
(1347.72,1191.507,o),
(1216.011,1291.565,cs),
(1083.281,1390.602,o),
(906.648,1439.61,o),
(696.322,1439.61,cs),
(436.988,1439.61,l),
(51.05,0,l)
);
},
{
closed = 1;
nodes = (
(593.201,1245.62,l),
(713.679,1245.62,ls),
(865.808,1245.62,o),
(989.349,1205.801,o),
(1074.092,1129.226,cs),
(1160.877,1052.651,o),
(1203.759,946.467,o),
(1203.759,812.716,cs),
(1203.759,640.167,o),
(1146.583,487.017,o),
(1039.378,375.728,cs),
(932.173,264.439,o),
(783.107,192.969,o),
(602.39,192.969,cs),
(311.405,192.969,l)
);
}
);
width = 1421;
},
{
layerId = "51237170-216B-44E4-96C8-4B0B4EBB077A";
shapes = (
{
closed = 1;
nodes = (
(483.954,0,ls),
(753.498,0,o),
(970.971,80.659,o),
(1127.184,227.683,cs),
(1284.418,375.728,o),
(1369.161,582.991,o),
(1369.161,845.388,cs),
(1369.161,1046.525,o),
(1293.607,1194.57,o),
(1161.898,1293.607,cs),
(1031.21,1390.602,o),
(854.577,1439.61,o),
(646.293,1439.61,cs),
(460.471,1439.61,l),
(75.554,0,l)
);
},
{
closed = 1;
nodes = (
(517.647,1369.161,l),
(690.196,1369.161,ls),
(878.06,1369.161,o),
(1030.189,1317.09,o),
(1135.352,1219.074,cs),
(1238.473,1122.079,o),
(1292.586,990.37,o),
(1292.586,827.01,cs),
(1292.586,617.705,o),
(1217.032,429.841,o),
(1084.302,294.048,cs),
(950.551,156.213,o),
(766.771,69.428,o),
(547.256,69.428,cs),
(168.465,69.428,l)
);
}
);
width = 1383;
}
);
leftKerningGroup = _B2;
rightKerningGroup = _D;
unicode = 68;
},
{
glyphname = E;
layers = (
{
layerId = "6FE47AEA-F74C-4003-B51F-DE39BA7C9A54";
shapes = (
{
closed = 1;
nodes = (
(1088,0,l),
(1184,355,l),
(523,355,l),
(579,571,l),
(1117,571,l),
(1203,892,l),
(667,892,l),
(718,1087,l),
(1371,1087,l),
(1466,1440,l),
(404,1440,l),
(18,0,l)
);
}
);
width = 1303;
},
{
layerId = "12ED6207-3C14-4312-BF04-326F9D0146DE";
shapes = (
{
closed = 1;
nodes = (
(977.097,0,l),
(1025.084,185.822,l),
(313.447,185.822,l),
(443.114,664.671,l),
(1054.693,664.671,l),
(1101.659,841.304,l),
(489.059,841.304,l),
(600.348,1253.788,l),
(1305.859,1253.788,l),
(1354.867,1439.61,l),
(442.093,1439.61,l),
(56.155,0,l)
);
}
);
width = 1218;
},
{
layerId = "51237170-216B-44E4-96C8-4B0B4EBB077A";
shapes = (
{
closed = 1;
nodes = (
(901.543,0,l),
(919.921,73.512,l),
(174.591,73.512,l),
(352.245,727.973,l),
(1013.853,727.973,l),
(1034.273,805.569,l),
(372.665,805.569,l),
(523.773,1365.077,l),
(1261.956,1365.077,l),
(1281.355,1439.61,l),
(466.597,1439.61,l),
(81.68,0,l)
);
}
);
width = 1161;
}
);
leftKerningGroup = _B2;
rightKerningGroup = _E;
unicode = 69;
},
{
glyphname = F;
layers = (
{
layerId = "6FE47AEA-F74C-4003-B51F-DE39BA7C9A54";
shapes = (
{
closed = 1;
nodes = (
(427,0,l),
(556,484,l),
(1067,484,l),
(1166,840,l),
(654,840,l),
(714,1067,l),
(1289,1067,l),
(1388,1440,l),
(404,1440,l),
(18,0,l)
);
}
);
width = 1214;
},
{
layerId = "12ED6207-3C14-4312-BF04-326F9D0146DE";
shapes = (
{
closed = 1;
nodes = (
(264,0,l),
(432,624,l),
(1039,624,l),
(1090,811,l),
(483,811,l),
(600,1248,l),
(1270,1248,l),
(1319,1440,l),
(442,1440,l),
(56,0,l)
);
}
);
width = 1157;
},
{
layerId = "51237170-216B-44E4-96C8-4B0B4EBB077A";
shapes = (
{
closed = 1;
nodes = (
(156,0,l),
(350,719,l),
(1021,719,l),
(1039,791,l),
(369,791,l),
(526,1368,l),
(1257,1368,l),
(1274,1440,l),
(467,1440,l),
(82,0,l)
);
}
);
width = 1119;
}
);
leftKerningGroup = _B2;
rightKerningGroup = _F;
unicode = 70;
},
{
glyphname = G;
layers = (
{
layerId = "6FE47AEA-F74C-4003-B51F-DE39BA7C9A54";
shapes = (
{
closed = 1;
nodes = (
(909,-30,o),
(981,-25,o),
(1052,-14,cs),
(1125,-3,o),
(1199,13,o),
(1261,34,c),
(1477,840,l),
(859,840,l),
(774,527,l),
(1045,527,l),
(989,323,l),
(961,318,o),
(932,318,o),
(904,318,cs),
(802,318,o),
(708,344,o),
(639,398,cs),
(571,450,o),
(531,530,o),
(531,631,cs),
(531,763,o),
(573,872,o),
(650,955,cs),
(728,1036,o),
(840,1081,o),
(976,1081,cs),
(1048,1081,o),
(1110,1072,o),
(1165,1055,c),
(1221,1036,o),
(1270,1009,o),
(1315,969,c),
(1550,1258,l),
(1457,1334,o),
(1358,1379,o),
(1262,1407,cs),
(1166,1434,o),
(1071,1440,o),
(990,1440,cs),
(908,1440,o),
(831,1430,o),
(755,1411,cs),
(605,1371,o),
(473,1299,o),
(369,1198,cs),
(315,1147,o),
(271,1090,o),
(234,1029,cs),
(160,903,o),
(117,758,o),
(117,600,cs),
(117,406,o),
(196,249,o),
(326,140,cs),
(456,30,o),
(635,-30,o),
(841,-30,cs)
);
}
);
width = 1512;
},
{
layerId = "12ED6207-3C14-4312-BF04-326F9D0146DE";
shapes = (
{
closed = 1;
nodes = (
(902,-30,o),
(971,-25,o),
(1038,-14,cs),
(1105,-3,o),
(1174,14,o),
(1229,35,c),
(1418,737,l),
(873,737,l),
(826,565,l),
(1186,565,l),
(1083,172,l),
(1032,162,o),
(969,153,o),
(896,153,cs),
(733,153,o),
(600,194,o),
(507,272,cs),
(414,349,o),
(361,461,o),
(361,601,cs),
(361,783,o),
(423,942,o),
(531,1062,cs),
(639,1181,o),
(793,1252,o),
(982,1252,cs),
(1056,1252,o),
(1127,1242,o),
(1196,1219,c),
(1266,1198,o),
(1325,1166,o),
(1379,1123,c),
(1505,1276,l),
(1440,1335,o),
(1360,1375,o),
(1276,1403,c),
(1190,1430,o),
(1099,1440,o),
(1009,1440,cs),
(928,1440,o),
(851,1430,o),
(776,1411,c),
(629,1370,o),
(501,1299,o),
(397,1195,cs),
(345,1143,o),
(301,1086,o),
(265,1023,cs),
(192,896,o),
(151,749,o),
(151,589,cs),
(151,399,o),
(226,246,o),
(350,137,cs),
(474,28,o),
(646,-30,o),
(845,-30,cs)
);
}
);
width = 1504;
},
{
layerId = "51237170-216B-44E4-96C8-4B0B4EBB077A";
shapes = (
{
closed = 1;
nodes = (
(898,-30,o),
(964,-25,o),
(1028,-14,cs),
(1091,-3,o),
(1158,14,o),
(1208,35,c),
(1377,668,l),
(881,668,l),
(860,590,l),
(1280,590,l),
(1146,70,l),
(1080,56,o),
(992,42,o),
(890,42,cs),
(688,42,o),
(530,93,o),
(419,189,cs),
(308,283,o),
(248,416,o),
(248,582,cs),
(248,796,o),
(321,990,o),
(451,1133,cs),
(579,1278,o),
(763,1365,o),
(985,1365,cs),
(1062,1365,o),
(1139,1353,o),
(1217,1329,cs),
(1295,1306,o),
(1363,1272,o),
(1422,1225,c),
(1476,1288,l),
(1428,1335,o),
(1361,1372,o),
(1284,1400,c),
(1205,1427,o),
(1115,1440,o),
(1021,1440,cs),
(940,1440,o),
(864,1430,o),
(791,1410,cs),
(645,1369,o),
(520,1298,o),
(416,1192,cs),
(364,1140,o),
(320,1083,o),
(286,1019,c),
(213,890,o),
(172,743,o),
(172,582,cs),
(172,395,o),
(245,244,o),
(366,135,cs),
(486,26,o),
(653,-30,o),
(847,-30,cs)
);
}
);
width = 1498;
}
);
leftKerningGroup = _C2;
rightKerningGroup = _G;
unicode = 71;
},
{
glyphname = H;
layers = (
{
layerId = "6FE47AEA-F74C-4003-B51F-DE39BA7C9A54";
shapes = (
{
closed = 1;
nodes = (
(427,0,l),
(576,557,l),
(1066,557,l),
(916,0,l),
(1325,0,l),
(1711,1440,l),
(1302,1440,l),
(1165,929,l),
(676,929,l),
(812,1440,l),
(404,1440,l),
(18,0,l)
);
}
);
width = 1584;
},
{
layerId = "12ED6207-3C14-4312-BF04-326F9D0146DE";
shapes = (
{
closed = 1;
nodes = (
(265.46,0,l),
(444.135,667.734,l),
(1167.003,667.734,l),
(988.328,0,l),
(1196.612,0,l),
(1582.55,1439.61,l),
(1373.245,1439.61,l),
(1217.032,859.682,l),
(494.164,859.682,l),
(650.377,1439.61,l),
(443.114,1439.61,l),
(57.176,0,l)
);
}
);
width = 1482;
},
{
layerId = "51237170-216B-44E4-96C8-4B0B4EBB077A";
shapes = (
{
closed = 1;
nodes = (
(157.234,0,l),
(356.329,742.267,l),
(1234.389,742.267,l),
(1036.315,0,l),
(1110.848,0,l),
(1496.786,1439.61,l),
(1422.253,1439.61,l),
(1252.767,812.716,l),
(374.707,812.716,l),
(543.172,1439.61,l),
(467.618,1439.61,l),
(82.701,0,l)
);
}
);
width = 1413;
}
);
leftKerningGroup = _B2;
rightKerningGroup = _H;
unicode = 72;
},
{
glyphname = I;
layers = (
{
layerId = "6FE47AEA-F74C-4003-B51F-DE39BA7C9A54";
shapes = (
{
closed = 1;
nodes = (
(427,0,l),
(812,1440,l),
(404,1440,l),
(18,0,l)
);
}
);
width = 711;
},
{
layerId = "12ED6207-3C14-4312-BF04-326F9D0146DE";
shapes = (
{
closed = 1;
nodes = (
(265.46,0,l),
(650.377,1439.61,l),
(443.114,1439.61,l),
(57.176,0,l)
);
}
);
width = 576;
},
{
layerId = "51237170-216B-44E4-96C8-4B0B4EBB077A";
shapes = (
{
closed = 1;
nodes = (
(160.297,0,l),
(546.235,1439.61,l),
(464.555,1439.61,l),
(79.638,0,l)
);
}
);
width = 487;
}
);
leftKerningGroup = _B2;
rightKerningGroup = _H;
unicode = 73;
},
{
glyphname = J;
layers = (
{
layerId = "6FE47AEA-F74C-4003-B51F-DE39BA7C9A54";
shapes = (
{
closed = 1;
nodes = (
(507,-31,o),
(632,16,o),
(732,101,cs),
(831,186,o),
(902,306,o),
(943,458,cs),
(1208,1440,l),
(799,1440,l),
(557,549,ls),
(538,477,o),
(506,424,o),
(469,391,cs),
(431,357,o),
(384,341,o),
(329,341,cs),
(251,341,o),
(175,375,o),
(89,432,c),
(-107,121,l),
(-3,27,o),
(154,-31,o),
(352,-31,cs)
);
}
);
width = 1096;
},
{
layerId = "12ED6207-3C14-4312-BF04-326F9D0146DE";
shapes = (
{
closed = 1;
nodes = (
(417.589,-30.63,o),
(527.857,9.189,o),
(614.642,82.701,cs),
(702.448,156.213,o),
(763.708,261.376,o),
(801.485,399.211,cs),
(1080.218,1439.61,l),
(872.955,1439.61,l),
(599.327,429.841,ls),
(572.781,331.825,o),
(532.962,264.439,o),
(479.87,221.557,cs),
(427.799,179.696,o),
(360.413,160.297,o),
(277.712,160.297,cs),
(187.864,160.297,o),
(109.247,187.864,o),
(35.735,239.935,c),
(-76.575,79.638,l),
(21.441,5.105,o),
(142.94,-30.63,o),
(283.838,-30.63,cs)
);
}
);
width = 995;
},
{
layerId = "51237170-216B-44E4-96C8-4B0B4EBB077A";
shapes = (
{
closed = 1;
nodes = (
(356.329,-30.63,o),
(456.387,3.063,o),
(537.046,69.428,cs),
(616.684,136.814,o),
(676.923,231.767,o),
(710.616,358.371,cs),
(999.559,1439.61,l),
(917.879,1439.61,l),
(623.831,350.203,ls),
(592.18,235.851,o),
(549.298,157.234,o),
(487.017,109.247,cs),
(425.757,61.26,o),
(347.14,44.924,o),
(245.04,44.924,cs),
(148.045,44.924,o),
(65.344,69.428,o),
(2.042,116.394,c),
(-56.155,51.05,l),
(37.777,-10.21,o),
(135.793,-30.63,o),
(237.893,-30.63,cs)
);
}
);
width = 928;
}
);
leftKerningGroup = _J2;
rightKerningGroup = _J;
unicode = 74;
},
{
glyphname = K;
layers = (
{
layerId = "6FE47AEA-F74C-4003-B51F-DE39BA7C9A54";
shapes = (
{
closed = 1;
nodes = (
(427,0,l),
(516,327,l),
(684,471,l),
(924,0,l),
(1427,0,l),
(1017,755,l),
(1744,1440,l),
(1201,1440,l),
(675,941,l),
(812,1440,l),
(404,1440,l),
(18,0,l)
);
}
);
width = 1517;
},
{
layerId = "12ED6207-3C14-4312-BF04-326F9D0146DE";
shapes = (
{
closed = 1;
nodes = (
(265.46,0,l),
(366.539,382.875,l),
(644.251,631.999,l),
(963.824,0,l),
(1218.053,0,l),
(814.758,782.086,l),
(1518.227,1439.61,l),
(1247.662,1439.61,l),
(452.303,699.385,l),
(650.377,1439.61,l),
(443.114,1439.61,l),
(57.176,0,l)
);
}
);
width = 1376;
},
{
layerId = "51237170-216B-44E4-96C8-4B0B4EBB077A";
shapes = (
{
closed = 1;
nodes = (
(157.234,0,l),
(266.481,418.61,l),
(618.726,740.225,l),
(990.37,0,l),
(1079.197,0,l),
(679.986,798.422,l),
(1369.161,1439.61,l),
(1280.334,1439.61,l),
(303.237,537.046,l),
(543.172,1439.61,l),
(467.618,1439.61,l),
(82.701,0,l)
);
}
);
width = 1282;
}
);
leftKerningGroup = _B2;
rightKerningGroup = _K;
unicode = 75;
},
{
glyphname = L;
layers = (
{
layerId = "6FE47AEA-F74C-4003-B51F-DE39BA7C9A54";
shapes = (
{
closed = 1;
nodes = (
(975,0,l),
(1076,373,l),
(529,373,l),
(812,1440,l),
(404,1440,l),
(18,0,l)
);
}
);
width = 1148;
},
{
layerId = "12ED6207-3C14-4312-BF04-326F9D0146DE";
shapes = (
{
closed = 1;
nodes = (
(901.543,0,l),
(952.593,190.927,l),
(316.51,190.927,l),
(649.356,1439.61,l),
(442.093,1439.61,l),
(56.155,0,l)
);
}
);
width = 1083;
},
{
layerId = "51237170-216B-44E4-96C8-4B0B4EBB077A";
shapes = (
{
closed = 1;
nodes = (
(852.535,0,l),
(871.934,70.449,l),
(174.591,70.449,l),
(542.151,1439.61,l),
(466.597,1439.61,l),
(81.68,0,l)
);
}
);
width = 1039;
}
);
leftKerningGroup = _B2;
rightKerningGroup = _L;
unicode = 76;
},
{
glyphname = M;
layers = (
{
layerId = "6FE47AEA-F74C-4003-B51F-DE39BA7C9A54";
shapes = (
{
closed = 1;
nodes = (
(393,0,l),
(635,940,l),
(555,937,l),
(770,247,l),
(1037,247,l),
(1561,854,l),
(1507,894,l),
(1260,0,l),
(1654,0,l),
(2040,1440,l),
(1647,1440,l),
(918,582,l),
(1072,542,l),
(801,1440,l),
(404,1440,l),
(18,0,l)
);
}
);
width = 1905;
},
{
layerId = "12ED6207-3C14-4312-BF04-326F9D0146DE";
shapes = (
{
closed = 1;
nodes = (
(248.103,0,l),
(558.487,1173.129,l),
(519.689,1170.066,l),
(804.548,317.531,l),
(966.887,317.531,l),
(1680.566,1114.932,l),
(1646.873,1137.394,l),
(1341.594,0,l),
(1544.773,0,l),
(1930.711,1439.61,l),
(1734.679,1439.61,l),
(895.417,482.933,l),
(969.95,462.513,l),
(648.335,1439.61,l),
(443.114,1439.61,l),
(57.176,0,l)
);
}
);
width = 1821;
},
{
layerId = "51237170-216B-44E4-96C8-4B0B4EBB077A";
shapes = (
{
closed = 1;
nodes = (
(164.381,0,l),
(519.689,1327.3,l),
(497.227,1324.237,l),
(828.031,365.518,l),
(918.9,365.518,l),
(1760.204,1290.544,l),
(1731.616,1298.712,l),
(1385.497,0,l),
(1473.303,0,l),
(1858.22,1439.61,l),
(1792.876,1439.61,l),
(880.102,417.589,l),
(901.543,410.442,l),
(545.214,1439.61,l),
(467.618,1439.61,l),
(82.701,0,l)
);
}
);
width = 1765;
}
);
leftKerningGroup = _B2;
rightKerningGroup = _H;
unicode = 77;
},
{
glyphname = N;
layers = (
{
layerId = "6FE47AEA-F74C-4003-B51F-DE39BA7C9A54";
shapes = (
{
closed = 1;
nodes = (
(414,0,l),
(631,815,l),
(935,0,l),
(1333,0,l),
(1719,1440,l),
(1324,1440,l),
(1107,638,l),
(803,1440,l),
(404,1440,l),
(18,0,l)
);
}
);
width = 1593;
},
{
layerId = "12ED6207-3C14-4312-BF04-326F9D0146DE";
shapes = (
{
closed = 1;
nodes = (
(261.376,0,l),
(557.466,1106.764,l),
(1015.895,0,l),
(1209.885,0,l),
(1595.823,1439.61,l),
(1391.623,1439.61,l),
(1096.554,346.119,l),
(639.146,1439.61,l),
(443.114,1439.61,l),
(57.176,0,l)
);
}
);
width = 1495;
},
{
layerId = "51237170-216B-44E4-96C8-4B0B4EBB077A";
shapes = (
{
closed = 1;
nodes = (
(159.276,0,l),
(507.437,1300.754,l),
(1067.966,0,l),
(1129.226,0,l),
(1514.143,1439.61,l),
(1437.568,1439.61,l),
(1090.428,151.108,l),
(529.899,1439.61,l),
(467.618,1439.61,l),
(82.701,0,l)
);
}
);
width = 1431;
}
);
leftKerningGroup = _B2;
rightKerningGroup = _H;
unicode = 78;
},
{
glyphname = O;
layers = (
{
layerId = "6FE47AEA-F74C-4003-B51F-DE39BA7C9A54";
shapes = (
{
closed = 1;
nodes = (
(888,-31,o),
(964,-20,o),
(1037,-1,cs),
(1184,40,o),
(1315,116,o),
(1422,220,cs),
(1475,273,o),
(1521,330,o),
(1560,394,cs),
(1638,520,o),
(1682,669,o),
(1682,827,cs),
(1682,1009,o),
(1615,1170,o),
(1494,1285,cs),
(1372,1400,o),
(1197,1470,o),
(984,1470,cs),
(905,1470,o),
(829,1460,o),
(756,1441,c),
(607,1399,o),
(477,1323,o),
(371,1219,cs),
(318,1167,o),
(272,1109,o),
(234,1046,cs),
(156,917,o),
(112,768,o),
(112,607,cs),
(112,426,o),
(181,265,o),
(302,151,cs),
(424,37,o),
(597,-31,o),
(809,-31,cs)
);
},
{
closed = 1;
nodes = (
(757,351,o),
(681,380,o),
(627,431,cs),
(574,481,o),
(544,555,o),
(544,645,cs),
(544,767,o),
(584,878,o),
(653,958,cs),
(725,1038,o),
(825,1087,o),
(942,1087,cs),
(1038,1087,o),
(1115,1060,o),
(1169,1010,cs),
(1222,959,o),
(1252,885,o),
(1252,793,cs),
(1252,734,o),
(1243,677,o),
(1223,623,cs),
(1203,570,o),
(1176,523,o),
(1141,483,cs),
(1071,402,o),
(970,351,o),
(853,351,cs)
);
}
);
width = 1649;
},
{
layerId = "12ED6207-3C14-4312-BF04-326F9D0146DE";
shapes = (
{
closed = 1;
nodes = (
(899.501,-30.63,o),
(974.034,-20.42,o),
(1045.504,0,cs),
(1191.507,40.84,o),
(1319.132,118.436,o),
(1426.337,224.62,cs),
(1478.408,276.691,o),
(1523.332,333.867,o),
(1561.109,398.19,cs),
(1637.684,524.794,o),
(1681.587,672.839,o),
(1681.587,827.01,cs),
(1681.587,1008.748,o),
(1616.243,1170.066,o),
(1497.807,1285.439,cs),
(1379.371,1399.791,o),
(1210.906,1470.24,o),
(1005.685,1470.24,cs),
(928.089,1470.24,o),
(853.556,1460.03,o),
(781.065,1440.631,c),
(635.062,1397.749,o),
(507.437,1321.174,o),
(403.295,1216.011,c),
(349.182,1163.94,o),
(304.258,1104.722,o),
(267.502,1041.42,cs),
(190.927,913.795,o),
(147.024,764.729,o),
(147.024,607.495,cs),
(147.024,426.778,o),
(214.41,266.481,o),
(331.825,152.129,cs),
(450.261,37.777,o),
(618.726,-30.63,o),
(821.905,-30.63,cs)
);
},
{
closed = 1;
nodes = (
(705.511,166.423,o),
(585.033,211.347,o),
(501.311,292.006,cs),
(416.568,371.644,o),
(366.539,485.996,o),
(366.539,624.852,cs),
(366.539,801.485,o),
(432.904,961.782,o),
(544.193,1081.239,cs),
(653.44,1198.654,o),
(808.632,1273.187,o),
(986.286,1273.187,cs),
(1129.226,1273.187,o),
(1246.641,1228.263,o),
(1330.363,1149.646,cs),
(1414.085,1070.008,o),
(1463.093,954.635,o),
(1463.093,813.737,cs),
(1464.114,726.952,o),
(1448.799,643.23,o),
(1418.169,565.634,c),
(1385.497,487.017,o),
(1342.615,418.61,o),
(1287.481,358.371,c),
(1176.192,241.977,o),
(1022.021,166.423,o),
(845.388,166.423,cs)
);
}
);
width = 1668;
},
{
layerId = "51237170-216B-44E4-96C8-4B0B4EBB077A";
shapes = (
{
closed = 1;
nodes = (
(905.627,-30.63,o),
(980.16,-20.42,o),
(1051.63,1.021,cs),
(1194.57,41.861,o),
(1322.195,119.457,o),
(1428.379,226.662,cs),
(1480.45,278.733,o),
(1524.353,336.93,o),
(1562.13,401.253,cs),
(1637.684,527.857,o),
(1681.587,674.881,o),
(1681.587,827.01,cs),
(1681.587,1008.748,o),
(1616.243,1170.066,o),
(1499.849,1285.439,cs),
(1382.434,1399.791,o),
(1219.074,1470.24,o),
(1021.,1470.24,cs),
(943.404,1470.24,o),
(869.892,1460.03,o),
(797.401,1439.61,cs),
(653.44,1396.728,o),
(527.857,1319.132,o),
(422.694,1212.948,cs),
(370.623,1160.877,o),
(325.699,1101.659,o),
(288.943,1038.357,cs),
(213.389,910.732,o),
(169.486,762.687,o),
(169.486,607.495,cs),
(169.486,426.778,o),
(236.872,266.481,o),
(351.224,152.129,cs),
(466.597,37.777,o),
(631.999,-30.63,o),
(829.052,-30.63,cs)
);
},
{
closed = 1;
nodes = (
(668.755,42.882,o),
(521.731,100.058,o),
(417.589,200.116,cs),
(311.405,300.174,o),
(250.145,441.072,o),
(250.145,611.579,cs),
(250.145,823.947,o),
(331.825,1018.958,o),
(469.66,1162.919,cs),
(605.453,1306.88,o),
(798.422,1395.707,o),
(1013.853,1395.707,cs),
(1187.423,1395.707,o),
(1333.426,1340.573,o),
(1438.589,1240.515,cs),
(1541.71,1142.499,o),
(1602.97,1000.58,o),
(1602.97,828.031,c),
(1603.991,722.868,o),
(1584.592,621.789,o),
(1545.794,526.836,cs),
(1506.996,431.883,o),
(1453.904,347.14,o),
(1384.476,277.712,c),
(1246.641,133.751,o),
(1056.735,42.882,o),
(841.304,42.882,cs)
);
}
);
width = 1680;
}
);
leftKerningGroup = _C2;
rightKerningGroup = _D;
unicode = 79;
},
{
glyphname = P;
layers = (
{
layerId = "6FE47AEA-F74C-4003-B51F-DE39BA7C9A54";
shapes = (
{
closed = 1;
nodes = (
(422,0,l),
(542,448,l),
(827,448,ls),
(1007,448,o),
(1165,504,o),
(1279,602,cs),
(1394,701,o),
(1460,841,o),
(1460,1018,cs),
(1460,1146,o),
(1410,1252,o),
(1316,1325,cs),
(1221,1399,o),
(1089,1440,o),
(918,1440,cs),
(399,1440,l),
(13,0,l)
);
},
{
closed = 1;
nodes = (
(715,1091,l),
(847,1091,ls),
(906,1091,o),
(955,1085,o),
(990,1068,c),
(1024,1050,o),
(1043,1017,o),
(1043,964,cs),
(1043,912,o),
(1026,869,o),
(995,837,cs),
(964,804,o),
(919,786,o),
(857,786,cs),
(631,786,l)
);
}
);
width = 1349;
},
{
layerId = "12ED6207-3C14-4312-BF04-326F9D0146DE";
shapes = (
{
closed = 1;
nodes = (
(260.355,0,l),
(411.463,567.676,l),
(793.317,567.676,ls),
(954.635,567.676,o),
(1094.512,615.663,o),
(1195.591,701.427,cs),
(1296.67,785.149,o),
(1355.888,910.732,o),
(1355.888,1065.924,cs),
(1355.888,1180.276,o),
(1311.985,1274.208,o),
(1226.221,1339.552,cs),
(1141.478,1403.875,o),
(1019.979,1439.61,o),
(863.766,1439.61,cs),
(438.009,1439.61,l),
(52.071,0,l)
);
},
{
closed = 1;
nodes = (
(596.264,1254.809,l),
(842.325,1254.809,ls),
(940.341,1254.809,o),
(1014.874,1237.452,o),
(1065.924,1200.696,cs),
(1115.953,1163.94,o),
(1143.52,1106.764,o),
(1143.52,1036.315,cs),
(1143.52,950.551,o),
(1109.827,881.123,o),
(1054.693,830.073,c),
(999.559,776.981,o),
(919.921,748.393,o),
(821.905,748.393,cs),
(458.429,748.393,l)
);
}
);
width = 1260;
},
{
layerId = "51237170-216B-44E4-96C8-4B0B4EBB077A";
shapes = (
{
closed = 1;
nodes = (
(155.192,0,l),
(327.741,646.293,l),
(771.876,646.293,ls),
(918.9,646.293,o),
(1046.525,690.196,o),
(1139.436,765.75,c),
(1230.305,842.325,o),
(1285.439,956.677,o),
(1285.439,1097.575,cs),
(1285.439,1201.717,o),
(1245.62,1287.481,o),
(1165.982,1347.72,cs),
(1086.344,1406.938,o),
(974.034,1439.61,o),
(828.031,1439.61,cs),
(459.45,1439.61,l),
(73.512,0,l)
);
},
{
closed = 1;
nodes = (
(521.731,1365.077,l),
(839.262,1365.077,ls),
(961.782,1365.077,o),
(1054.693,1338.531,o),
(1116.974,1288.502,cs),
(1178.234,1238.473,o),
(1208.864,1168.024,o),
(1208.864,1084.302,cs),
(1208.864,977.097,o),
(1165.982,888.27,o),
(1094.512,823.947,cs),
(1022.021,758.603,o),
(920.942,723.889,o),
(798.422,723.889,cs),
(347.14,723.889,l)
);
}
);
width = 1200;
}
);
leftKerningGroup = _B2;
rightKerningGroup = _P;
unicode = 80;
},
{
glyphname = Q;
layers = (
{
layerId = "6FE47AEA-F74C-4003-B51F-DE39BA7C9A54";
shapes = (
{
closed = 1;
nodes = (
(906,92,l),
(976,-31,o),
(1134,-161,o),
(1302,-238,c),
(1571,104,l),
(1410,172,o),
(1260,293,o),
(1192,410,c)
);
},
{
closed = 1;
nodes = (
(888,-31,o),
(964,-20,o),
(1037,-1,cs),
(1184,40,o),
(1315,116,o),
(1422,220,cs),
(1475,273,o),
(1521,330,o),
(1560,394,cs),
(1638,520,o),
(1682,669,o),
(1682,827,cs),
(1682,1009,o),
(1615,1170,o),
(1494,1285,cs),
(1372,1400,o),
(1197,1470,o),
(984,1470,cs),
(905,1470,o),
(829,1460,o),
(756,1441,c),
(607,1399,o),
(477,1323,o),
(371,1219,cs),
(318,1167,o),
(272,1109,o),
(234,1046,cs),
(156,917,o),
(112,768,o),
(112,607,cs),
(112,426,o),
(181,265,o),
(302,151,cs),
(424,37,o),
(597,-31,o),
(809,-31,cs)
);
},
{
closed = 1;
nodes = (
(757,351,o),
(681,380,o),
(627,431,cs),
(574,481,o),
(544,555,o),
(544,645,cs),
(544,767,o),
(584,878,o),
(653,958,cs),
(725,1038,o),
(825,1087,o),
(942,1087,cs),
(1038,1087,o),
(1115,1060,o),
(1169,1010,cs),
(1222,959,o),
(1252,885,o),
(1252,793,cs),
(1252,734,o),
(1243,677,o),
(1223,623,cs),
(1203,570,o),
(1176,523,o),
(1141,483,cs),
(1071,402,o),
(970,351,o),
(853,351,cs)
);
}
);
width = 1649;
},
{
layerId = "12ED6207-3C14-4312-BF04-326F9D0146DE";
shapes = (
{
closed = 1;
nodes = (
(982.202,52.071,l),
(1077.155,-69.428,o),
(1195.591,-161.318,o),
(1377.329,-252.187,c),
(1517.206,-76.575,l),
(1341.594,5.105,o),
(1229.284,88.827,o),
(1139.436,205.221,c)
);
},
{
closed = 1;
nodes = (
(899.501,-30.63,o),
(974.034,-20.42,o),
(1045.504,0,cs),
(1191.507,40.84,o),
(1319.132,118.436,o),
(1426.337,224.62,cs),
(1478.408,276.691,o),
(1523.332,333.867,o),
(1561.109,398.19,cs),
(1637.684,524.794,o),
(1681.587,672.839,o),
(1681.587,827.01,cs),
(1681.587,1008.748,o),
(1616.243,1170.066,o),
(1497.807,1285.439,cs),
(1379.371,1399.791,o),
(1210.906,1470.24,o),
(1005.685,1470.24,cs),
(928.089,1470.24,o),
(853.556,1460.03,o),
(781.065,1440.631,c),
(635.062,1397.749,o),
(507.437,1321.174,o),
(403.295,1216.011,c),
(349.182,1163.94,o),
(304.258,1104.722,o),
(267.502,1041.42,cs),
(190.927,913.795,o),
(147.024,764.729,o),
(147.024,607.495,cs),
(147.024,426.778,o),
(214.41,266.481,o),
(331.825,152.129,cs),
(450.261,37.777,o),
(618.726,-30.63,o),
(821.905,-30.63,cs)
);
},
{
closed = 1;
nodes = (
(705.511,166.423,o),
(585.033,211.347,o),
(501.311,292.006,cs),
(416.568,371.644,o),
(366.539,485.996,o),
(366.539,624.852,cs),
(366.539,801.485,o),
(432.904,961.782,o),
(544.193,1081.239,cs),
(653.44,1198.654,o),
(808.632,1273.187,o),
(986.286,1273.187,cs),
(1129.226,1273.187,o),
(1246.641,1228.263,o),
(1330.363,1149.646,cs),
(1414.085,1070.008,o),
(1463.093,954.635,o),
(1463.093,813.737,cs),
(1464.114,726.952,o),
(1448.799,643.23,o),
(1418.169,565.634,c),
(1385.497,487.017,o),
(1342.615,418.61,o),
(1287.481,358.371,c),
(1176.192,241.977,o),
(1022.021,166.423,o),
(845.388,166.423,cs)
);
}
);
width = 1668;
},
{
layerId = "51237170-216B-44E4-96C8-4B0B4EBB077A";
shapes = (
{
closed = 1;
nodes = (
(1033.252,26.546,l),
(1144.541,-95.974,o),
(1236.431,-161.318,o),
(1429.4,-261.376,c),
(1481.471,-195.011,l),
(1296.67,-107.205,o),
(1209.885,-46.966,o),
(1102.68,69.428,c)
);
},
{
closed = 1;
nodes = (
(905.627,-30.63,o),
(980.16,-20.42,o),
(1051.63,1.021,cs),
(1194.57,41.861,o),
(1322.195,119.457,o),
(1428.379,226.662,cs),
(1480.45,278.733,o),
(1524.353,336.93,o),
(1562.13,401.253,cs),
(1637.684,527.857,o),
(1681.587,674.881,o),
(1681.587,827.01,cs),
(1681.587,1008.748,o),
(1616.243,1170.066,o),
(1499.849,1285.439,cs),
(1382.434,1399.791,o),
(1219.074,1470.24,o),
(1021.,1470.24,cs),
(943.404,1470.24,o),
(869.892,1460.03,o),
(797.401,1439.61,cs),
(653.44,1396.728,o),
(527.857,1319.132,o),
(422.694,1212.948,cs),
(370.623,1160.877,o),
(325.699,1101.659,o),
(288.943,1038.357,cs),
(213.389,910.732,o),
(169.486,762.687,o),
(169.486,607.495,cs),
(169.486,426.778,o),
(236.872,266.481,o),
(351.224,152.129,cs),
(466.597,37.777,o),
(631.999,-30.63,o),
(829.052,-30.63,cs)
);
},
{
closed = 1;
nodes = (
(668.755,42.882,o),
(521.731,100.058,o),
(417.589,200.116,cs),
(311.405,300.174,o),
(250.145,441.072,o),
(250.145,611.579,cs),
(250.145,823.947,o),
(331.825,1018.958,o),
(469.66,1162.919,cs),
(605.453,1306.88,o),
(798.422,1395.707,o),
(1013.853,1395.707,cs),
(1187.423,1395.707,o),
(1333.426,1340.573,o),
(1438.589,1240.515,cs),
(1541.71,1142.499,o),
(1602.97,1000.58,o),
(1602.97,828.031,c),
(1603.991,722.868,o),
(1584.592,621.789,o),
(1545.794,526.836,cs),
(1506.996,431.883,o),
(1453.904,347.14,o),
(1384.476,277.712,c),
(1246.641,133.751,o),
(1056.735,42.882,o),
(841.304,42.882,cs)
);
}
);
width = 1680;
}
);
leftKerningGroup = _C2;
unicode = 81;
},
{
glyphname = R;
layers = (
{
layerId = "6FE47AEA-F74C-4003-B51F-DE39BA7C9A54";
shapes = (
{
closed = 1;
nodes = (
(427,0,l),
(561,498,l),
(645,498,l),
(806,0,l),
(1270,0,l),
(1055,566,l),
(1176,598,o),
(1276,663,o),
(1347,747,cs),
(1419,833,o),
(1459,935,o),
(1459,1052,cs),
(1459,1172,o),
(1411,1267,o),
(1321,1335,cs),
(1231,1404,o),
(1100,1440,o),
(928,1440,cs),
(404,1440,l),
(18,0,l)
);
},
{
closed = 1;
nodes = (
(726,1107,l),
(842,1107,ls),
(906,1107,o),
(952,1101,o),
(986,1082,c),
(1019,1065,o),
(1037,1034,o),
(1037,989,cs),
(1037,937,o),
(1020,894,o),
(987,866,cs),
(954,838,o),
(907,821,o),
(856,821,cs),
(647,821,l)
);
}
);
width = 1407;
},
{
layerId = "12ED6207-3C14-4312-BF04-326F9D0146DE";
shapes = (
{
closed = 1;
nodes = (
(265.46,0,l),
(423.715,590.138,l),
(633.02,590.138,l),
(899.501,0,l),
(1141.478,0,l),
(857.64,608.516,l),
(997.517,624.852,o),
(1121.058,677.944,o),
(1210.906,757.582,cs),
(1301.775,838.241,o),
(1353.846,947.488,o),
(1353.846,1080.218,cs),
(1353.846,1189.465,o),
(1314.027,1278.292,o),
(1237.452,1342.615,cs),
(1160.877,1404.896,o),
(1048.567,1439.61,o),
(897.459,1439.61,cs),
(443.114,1439.61,l),
(57.176,0,l)
);
},
{
closed = 1;
nodes = (
(604.432,1259.914,l),
(854.577,1259.914,ls),
(953.614,1259.914,o),
(1024.063,1240.515,o),
(1071.029,1206.822,cs),
(1119.016,1172.108,o),
(1141.478,1121.058,o),
(1141.478,1055.714,cs),
(1141.478,967.908,o),
(1107.785,894.396,o),
(1051.63,845.388,cs),
(996.496,795.359,o),
(913.795,765.75,o),
(821.905,765.75,cs),
(470.681,765.75,l)
);
}
);
width = 1322;
},
{
layerId = "51237170-216B-44E4-96C8-4B0B4EBB077A";
shapes = (
{
closed = 1;
nodes = (
(160.297,0,l),
(335.909,651.398,l),
(624.852,651.398,l),
(960.761,0,l),
(1056.735,0,l),
(724.91,637.104,l),
(878.06,641.188,o),
(1016.916,687.133,o),
(1121.058,763.708,cs),
(1223.158,841.304,o),
(1283.397,954.635,o),
(1283.397,1099.617,cs),
(1283.397,1199.675,o),
(1247.662,1285.439,o),
(1181.297,1345.678,c),
(1111.869,1405.917,o),
(1012.832,1439.61,o),
(878.06,1439.61,cs),
(464.555,1439.61,l),
(79.638,0,l)
);
},
{
closed = 1;
nodes = (
(526.836,1362.014,l),
(861.724,1362.014,ls),
(986.286,1362.014,o),
(1072.05,1335.468,o),
(1128.205,1288.502,cs),
(1184.36,1242.557,o),
(1209.885,1178.234,o),
(1209.885,1098.596,cs),
(1209.885,988.328,o),
(1167.003,894.396,o),
(1094.512,832.115,cs),
(1022.021,767.792,o),
(917.879,730.015,o),
(798.422,730.015,cs),
(355.308,730.015,l)
);
}
);
width = 1265;
}
);
leftKerningGroup = _B2;
rightKerningGroup = _R;
unicode = 82;
},
{
glyphname = S;
layers = (
{
layerId = "6FE47AEA-F74C-4003-B51F-DE39BA7C9A54";
shapes = (
{
closed = 1;
nodes = (
(786,-31,o),
(943,18,o),
(1059,113,c),
(1177,205,o),
(1253,336,o),
(1253,497,cs),
(1253,663,o),
(1141,774,o),
(910,871,cs),
(807,913,ls),
(749,937,o),
(711,955,o),
(688,971,c),
(665,989,o),
(656,1005,o),
(656,1027,cs),
(656,1053,o),
(675,1078,o),
(706,1097,c),
(737,1112,o),
(775,1118,o),
(829,1118,cs),
(897,1118,o),
(964,1106,o),
(1027,1078,c),
(1086,1050,o),
(1136,1013,o),
(1169,966,c),
(1432,1249,l),
(1379,1315,o),
(1300,1370,o),
(1200,1409,c),
(1101,1451,o),
(980,1470,o),
(855,1470,cs),
(698,1470,o),
(545,1419,o),
(429,1327,cs),
(313,1237,o),
(243,1104,o),
(243,946,cs),
(243,867,o),
(269,798,o),
(321,735,c),
(374,667,o),
(456,613,o),
(572,570,cs),
(668,534,ls),
(727,511,o),
(765,491,o),
(791,471,c),
(814,451,o),
(830,429,o),
(830,407,cs),
(830,377,o),
(809,354,o),
(781,339,c),
(751,325,o),
(708,315,o),
(661,315,cs),
(585,315,o),
(502,337,o),
(429,368,c),
(353,402,o),
(288,442,o),
(249,494,c),
(-9,205,l),
(56,133,o),
(152,71,o),
(260,34,c),
(366,-7,o),
(492,-31,o),
(616,-31,cs)
);
}
);
width = 1296;
},
{
layerId = "12ED6207-3C14-4312-BF04-326F9D0146DE";
shapes = (
{
closed = 1;
nodes = (
(745.33,-30.63,o),
(883.165,13.273,o),
(984.244,96.995,cs),
(1085.323,178.675,o),
(1150.667,296.09,o),
(1150.667,446.177,cs),
(1150.667,596.264,o),
(1054.693,697.343,o),
(861.724,778.002,cs),
(716.742,836.199,ls),
(633.02,870.913,o),
(577.886,902.564,o),
(543.172,935.236,cs),
(506.416,969.95,o),
(493.143,1004.664,o),
(493.143,1046.525,cs),
(493.143,1121.058,o),
(526.836,1182.318,o),
(584.012,1226.221,cs),
(641.188,1269.103,o),
(718.784,1291.565,o),
(809.653,1291.565,cs),
(885.207,1291.565,o),
(954.635,1280.334,o),
(1023.042,1253.788,cs),
(1089.407,1228.263,o),
(1144.541,1193.549,o),
(1186.402,1147.604,c),
(1326.279,1293.607,l),
(1277.271,1346.699,o),
(1208.864,1389.581,o),
(1128.205,1422.253,c),
(1045.504,1453.904,o),
(948.509,1470.24,o),
(842.325,1470.24,cs),
(694.28,1470.24,o),
(556.445,1426.337,o),
(454.345,1343.636,cs),
(352.245,1261.956,o),
(289.964,1146.583,o),
(289.964,1001.601,cs),
(289.964,928.089,o),
(313.447,866.829,o),
(361.434,811.695,cs),
(409.421,756.561,o),
(481.912,710.616,o),
(582.991,668.755,cs),
(715.721,615.663,ls),
(799.443,582.991,o),
(855.598,548.277,o),
(892.354,512.542,cs),
(927.068,477.828,o),
(944.425,439.03,o),
(944.425,397.169,cs),
(944.425,318.552,o),
(907.669,257.292,o),
(850.493,214.41,cs),
(792.296,172.549,o),
(710.616,150.087,o),
(615.663,150.087,cs),
(529.899,150.087,o),
(447.198,166.423,o),
(373.686,192.969,cs),
(298.132,220.536,o),
(234.83,261.376,o),
(184.801,308.342,c),
(45.945,159.276,l),
(104.142,101.079,o),
(187.864,52.071,o),
(282.817,20.42,cs),
(377.77,-12.252,o),
(482.933,-30.63,o),
(590.138,-30.63,cs)
);
}
);
width = 1253;
},
{
layerId = "51237170-216B-44E4-96C8-4B0B4EBB077A";
shapes = (
{
closed = 1;
nodes = (
(719.805,-30.63,o),
(844.367,10.21,o),
(935.236,86.785,cs),
(1027.126,162.339,o),
(1084.302,271.586,o),
(1084.302,413.505,cs),
(1084.302,554.403,o),
(999.559,647.314,o),
(831.094,719.805,c),
(658.545,786.17,l),
(559.508,829.052,o),
(493.143,868.871,o),
(451.282,913.795,c),
(406.358,956.677,o),
(390.022,1004.664,o),
(390.022,1058.777,cs),
(390.022,1163.94,o),
(431.883,1247.662,o),
(506.416,1307.901,cs),
(580.949,1367.119,o),
(682.028,1399.791,o),
(797.401,1399.791,cs),
(877.039,1399.791,o),
(948.509,1389.581,o),
(1019.979,1365.077,cs),
(1090.428,1341.594,o),
(1148.625,1307.901,o),
(1196.612,1260.935,c),
(1257.872,1321.174,l),
(1210.906,1366.098,o),
(1151.688,1401.833,o),
(1081.239,1429.4,cs),
(1009.769,1455.946,o),
(929.11,1470.24,o),
(834.157,1470.24,cs),
(691.217,1470.24,o),
(562.571,1430.421,o),
(469.66,1353.846,cs),
(376.749,1278.292,o),
(318.552,1172.108,o),
(318.552,1036.315,cs),
(318.552,966.887,o),
(341.014,909.711,o),
(386.959,861.724,c),
(430.862,812.716,o),
(497.227,771.876,o),
(589.117,732.057,cs),
(744.309,667.734,l),
(845.388,627.915,o),
(911.753,584.012,o),
(954.635,539.088,cs),
(998.538,494.164,o),
(1016.916,445.156,o),
(1016.916,391.043,cs),
(1016.916,281.796,o),
(968.929,195.011,o),
(893.375,136.814,cs),
(816.8,76.575,o),
(711.637,44.924,o),
(587.075,44.924,cs),
(493.143,44.924,o),
(411.463,58.197,o),
(336.93,83.722,c),
(262.397,107.205,o),
(199.095,147.024,o),
(143.961,190.927,c),
(81.68,130.688,l),
(132.73,81.68,o),
(209.305,39.819,o),
(296.09,12.252,cs),
(383.896,-15.315,o),
(476.807,-30.63,o),
(573.802,-30.63,cs)
);
}
);
width = 1225;
}
);
leftKerningGroup = _S2;
rightKerningGroup = _S;
unicode = 83;
},
{
glyphname = T;
layers = (
{
layerId = "6FE47AEA-F74C-4003-B51F-DE39BA7C9A54";
shapes = (
{
closed = 1;
nodes = (
(672,0,l),
(957,1067,l),
(1329,1067,l),
(1428,1440,l),
(275,1440,l),
(176,1067,l),
(547,1067,l),
(260,0,l)
);
}
);
width = 1184;
},
{
layerId = "12ED6207-3C14-4312-BF04-326F9D0146DE";
shapes = (
{
closed = 1;
nodes = (
(542.151,0,l),
(878.06,1247.662,l),
(1287.481,1247.662,l),
(1336.489,1439.61,l),
(309.363,1439.61,l),
(260.355,1247.662,l),
(668.755,1247.662,l),
(332.846,0,l)
);
}
);
width = 1115;
},
{
layerId = "51237170-216B-44E4-96C8-4B0B4EBB077A";
shapes = (
{
closed = 1;
nodes = (
(456.387,0,l),
(823.947,1368.14,l),
(1257.872,1368.14,l),
(1275.229,1439.61,l),
(331.825,1439.61,l),
(315.489,1368.14,l),
(749.414,1368.14,l),
(381.854,0,l)
);
}
);
width = 1068;
}
);
leftKerningGroup = _T2;
rightKerningGroup = _T;
unicode = 84;
},
{
glyphname = U;
layers = (
{
layerId = "6FE47AEA-F74C-4003-B51F-DE39BA7C9A54";
shapes = (
{
closed = 1;
nodes = (
(905,-31,o),
(1062,29,o),
(1185,140,cs),
(1310,250,o),
(1397,409,o),
(1450,611,cs),
(1672,1440,l),
(1262,1440,l),
(1033,589,ls),
(1009,504,o),
(973,445,o),
(925,407,cs),
(878,370,o),
(822,351,o),
(755,351,cs),
(671,351,o),
(617,372,o),
(588,412,cs),
(558,453,o),
(555,508,o),
(577,589,cs),
(806,1440,l),
(398,1440,l),
(176,611,ls),
(121,406,o),
(153,248,o),
(250,138,cs),
(347,27,o),
(505,-31,o),
(716,-31,cs)
);
}
);
width = 1540;
},
{
layerId = "12ED6207-3C14-4312-BF04-326F9D0146DE";
shapes = (
{
closed = 1;
nodes = (
(850.493,-30.63,o),
(995.475,28.588,o),
(1107.785,131.709,cs),
(1220.095,233.809,o),
(1300.754,379.812,o),
(1345.678,555.424,cs),
(1584.592,1439.61,l),
(1375.287,1439.61,l),
(1139.436,560.529,ls),
(1100.638,422.694,o),
(1042.441,323.657,o),
(966.887,261.376,c),
(892.354,196.032,o),
(801.485,166.423,o),
(698.364,166.423,cs),
(566.655,166.423,o),
(477.828,203.179,o),
(428.82,272.607,cs),
(379.812,341.014,o),
(371.644,435.967,o),
(407.379,560.529,cs),
(643.23,1439.61,l),
(434.946,1439.61,l),
(196.032,555.424,ls),
(149.066,378.791,o),
(175.612,232.788,o),
(262.397,130.688,cs),
(348.161,27.567,o),
(487.017,-30.63,o),
(677.944,-30.63,cs)
);
}
);
width = 1473;
},
{
layerId = "51237170-216B-44E4-96C8-4B0B4EBB077A";
shapes = (
{
closed = 1;
nodes = (
(812.716,-30.63,o),
(949.53,27.567,o),
(1055.714,125.583,cs),
(1161.898,222.578,o),
(1235.41,359.392,o),
(1277.271,517.647,cs),
(1525.374,1439.61,l),
(1450.841,1439.61,l),
(1209.885,541.13,ls),
(1162.919,366.539,o),
(1088.386,244.019,o),
(995.475,162.339,c),
(901.543,82.701,o),
(788.212,42.882,o),
(658.545,42.882,cs),
(495.185,42.882,o),
(384.917,91.89,o),
(321.615,177.654,c),
(260.355,266.481,o),
(250.145,386.959,o),
(293.027,541.13,cs),
(533.983,1439.61,l),
(458.429,1439.61,l),
(209.305,517.647,ls),
(167.444,358.371,o),
(190.927,221.557,o),
(269.544,124.562,cs),
(348.161,27.567,o),
(474.765,-30.63,o),
(651.398,-30.63,cs)
);
}
);
width = 1429;
}
);
leftKerningGroup = _U;
rightKerningGroup = _J;
unicode = 85;
},
{
glyphname = V;
layers = (
{
layerId = "6FE47AEA-F74C-4003-B51F-DE39BA7C9A54";
shapes = (
{
closed = 1;
nodes = (
(823,0,l),
(1740,1440,l),
(1258,1440,l),
(719,529,l),
(675,1440,l),
(225,1440,l),
(350,0,l)
);
}
);
width = 1436;
},
{
layerId = "12ED6207-3C14-4312-BF04-326F9D0146DE";
shapes = (
{
closed = 1;
nodes = (
(647,0,l),
(1584,1440,l),
(1342,1440,l),
(613,288,l),
(494,1440,l),
(269,1440,l),
(431,0,l)
);
}
);
width = 1311;
},
{
layerId = "51237170-216B-44E4-96C8-4B0B4EBB077A";
shapes = (
{
closed = 1;
nodes = (
(531,0,l),
(1479,1440,l),
(1397,1440,l),
(542,128,l),
(376,1440,l),
(297,1440,l),
(485,0,l)
);
}
);
width = 1229;
}
);
leftKerningGroup = _V2;
rightKerningGroup = _V;
unicode = 86;
},
{
glyphname = W;
layers = (
{
layerId = "6FE47AEA-F74C-4003-B51F-DE39BA7C9A54";
shapes = (
{
closed = 1;
nodes = (
(706,0,l),
(1164,825,l),
(1168,0,l),
(1558,0,l),
(2382,1440,l),
(1951,1440,l),
(1537,646,l),
(1529,1440,l),
(1126,1440,l),
(671,636,l),
(681,1440,l),
(269,1440,l),
(319,0,l)
);
}
);
width = 2102;
},
{
layerId = "12ED6207-3C14-4312-BF04-326F9D0146DE";
shapes = (
{
closed = 1;
nodes = (
(574.823,0,l),
(1214.99,1117.995,l),
(1243.578,0,l),
(1471.261,0,l),
(2288.061,1439.61,l),
(2063.441,1439.61,l),
(1433.484,292.006,l),
(1407.959,1439.61,l),
(1185.381,1439.61,l),
(533.983,282.817,l),
(519.689,1439.61,l),
(304.258,1439.61,l),
(350.203,0,l)
);
}
);
width = 2031;
},
{
layerId = "51237170-216B-44E4-96C8-4B0B4EBB077A";
shapes = (
{
closed = 1;
nodes = (
(487.017,0,l),
(1249.704,1311.985,l),
(1295.649,0,l),
(1412.043,0,l),
(2225.78,1439.61,l),
(2136.953,1439.61,l),
(1372.224,85.764,l),
(1327.3,1439.61,l),
(1225.2,1439.61,l),
(443.114,78.617,l),
(412.484,1439.61,l),
(327.741,1439.61,l),
(369.602,0,l)
);
}
);
width = 1984;
}
);
leftKerningGroup = _V2;
rightKerningGroup = _V;
unicode = 87;
},
{
glyphname = X;
layers = (
{
layerId = "6FE47AEA-F74C-4003-B51F-DE39BA7C9A54";
shapes = (
{
closed = 1;
nodes = (
(385,0,l),
(710,420,l),
(831,0,l),
(1305,0,l),
(1070,699,l),
(1693,1440,l),
(1180,1440,l),
(868,1047,l),
(752,1440,l),
(280,1440,l),
(508,757,l),
(-131,0,l)
);
}
);
width = 1421;
},
{
layerId = "12ED6207-3C14-4312-BF04-326F9D0146DE";
shapes = (
{
closed = 1;
nodes = (
(181.738,0,l),
(703.469,585.033,l),
(935.236,0,l),
(1174.15,0,l),
(883.165,720.826,l),
(1547.836,1439.61,l),
(1292.586,1439.61,l),
(778.002,893.375,l),
(575.844,1439.61,l),
(337.951,1439.61,l),
(597.285,754.519,l),
(-76.575,0,l)
);
}
);
width = 1332;
},
{
layerId = "51237170-216B-44E4-96C8-4B0B4EBB077A";
shapes = (
{
closed = 1;
nodes = (
(45.945,0,l),
(699.385,695.301,l),
(1004.664,0,l),
(1087.365,0,l),
(759.624,736.141,l),
(1450.841,1439.61,l),
(1367.119,1439.61,l),
(719.805,791.275,l),
(457.408,1439.61,l),
(377.77,1439.61,l),
(655.482,752.477,l),
(-39.819,0,l)
);
}
);
width = 1272;
}
);
leftKerningGroup = _X2;
rightKerningGroup = _X;
unicode = 88;
},
{
glyphname = Y;
layers = (
{
layerId = "6FE47AEA-F74C-4003-B51F-DE39BA7C9A54";
shapes = (
{
closed = 1;
nodes = (
(740,0,l),
(895,581,l),
(1634,1440,l),
(1161,1440,l),
(785,989,l),
(660,1440,l),
(228,1440,l),
(485,589,l),
(330,0,l)
);
}
);
width = 1338;
},
{
layerId = "12ED6207-3C14-4312-BF04-326F9D0146DE";
shapes = (
{
closed = 1;
nodes = (
(598.306,0,l),
(763.708,623.831,l),
(1494.744,1439.61,l),
(1246.641,1439.61,l),
(709.595,833.136,l),
(498.248,1439.61,l),
(270.565,1439.61,l),
(555.424,624.852,l),
(390.022,0,l)
);
}
);
width = 1229;
},
{
layerId = "51237170-216B-44E4-96C8-4B0B4EBB077A";
shapes = (
{
closed = 1;
nodes = (
(502.332,0,l),
(676.923,651.398,l),
(1402.854,1439.61,l),
(1304.838,1439.61,l),
(656.503,727.973,l),
(391.043,1439.61,l),
(299.153,1439.61,l),
(601.369,648.335,l),
(428.82,0,l)
);
}
);
width = 1156;
}
);
leftKerningGroup = _Y2;
rightKerningGroup = _Y;
unicode = 89;
},
{
glyphname = Z;
layers = (
{
layerId = "6FE47AEA-F74C-4003-B51F-DE39BA7C9A54";
shapes = (
{
closed = 1;
nodes = (
(1012,0,l),
(1112,373,l),
(550,373,l),
(1303,1097,l),
(1393,1440,l),
(340,1440,l),
(242,1067,l),
(775,1067,l),
(21,342,l),
(-69,0,l)
);
}
);
width = 1189;
},
{
layerId = "12ED6207-3C14-4312-BF04-326F9D0146DE";
shapes = (
{
closed = 1;
nodes = (
(976.076,0,l),
(1027.126,190.927,l),
(275.67,190.927,l),
(1308.922,1259.914,l),
(1353.846,1439.61,l),
(370.623,1439.61,l),
(321.615,1247.662,l),
(1043.462,1247.662,l),
(9.189,178.675,l),
(-37.777,0,l)
);
}
);
width = 1166;
},
{
layerId = "51237170-216B-44E4-96C8-4B0B4EBB077A";
shapes = (
{
closed = 1;
nodes = (
(951.572,0,l),
(969.95,70.449,l),
(93.932,70.449,l),
(1311.985,1370.182,l),
(1328.321,1439.61,l),
(391.043,1439.61,l),
(374.707,1368.14,l),
(1221.116,1368.14,l),
(1.021,68.407,l),
(-16.336,0,l)
);
}
);
width = 1151;
}
);
leftKerningGroup = _Z2;
rightKerningGroup = _Z;
unicode = 90;
},
{
glyphname = bracketleft;
layers = (
{
layerId = "6FE47AEA-F74C-4003-B51F-DE39BA7C9A54";
shapes = (
{
closed = 1;
nodes = (
(451,-220,l),
(523,42,l),
(323,42,l),
(669,1338,l),
(869,1338,l),
(942,1600,l),
(431,1600,l),
(-60,-220,l)
);
}
);
width = 730;
},
{
layerId = "12ED6207-3C14-4312-BF04-326F9D0146DE";
shapes = (
{
closed = 1;
nodes = (
(369,-220,l),
(408,-73,l),
(202,-73,l),
(614,1453,l),
(819,1453,l),
(860,1600,l),
(489,1600,l),
(-2,-220,l)
);
}
);
width = 686;
},
{
layerId = "51237170-216B-44E4-96C8-4B0B4EBB077A";
shapes = (
{
closed = 1;
nodes = (
(314,-220,l),
(332,-149,l),
(123,-149,l),
(576,1529,l),
(785,1529,l),
(805,1600,l),
(528,1600,l),
(37,-220,l)
);
}
);
width = 657;
}
);
leftKerningGroup = _bar2;
rightKerningGroup = _parenleft;
unicode = 91;
},
{
glyphname = backslash;
layers = (
{
layerId = "6FE47AEA-F74C-4003-B51F-DE39BA7C9A54";
shapes = (
{
closed = 1;
nodes = (
(823,-178,l),
(574,1610,l),
(220,1564,l),
(469,-230,l)
);
}
);
width = 947;
},
{
layerId = "12ED6207-3C14-4312-BF04-326F9D0146DE";
shapes = (
{
closed = 1;
nodes = (
(736,-202,l),
(470,1610,l),
(285,1585,l),
(551,-230,l)
);
}
);
width = 909;
},
{
layerId = "51237170-216B-44E4-96C8-4B0B4EBB077A";
shapes = (
{
closed = 1;
nodes = (
(679,-218,l),
(400,1610,l),
(327,1598,l),
(606,-230,l)
);
}
);
width = 884;
}
);
unicode = 92;
},
{
glyphname = bracketright;
layers = (
{
layerId = "6FE47AEA-F74C-4003-B51F-DE39BA7C9A54";
shapes = (
{
closed = 1;
nodes = (
(884,1600,l),
(373,1600,l),
(302,1338,l),
(502,1338,l),
(152,42,l),
(-48,42,l),
(-116,-220,l),
(395,-220,l)
);
}
);
width = 730;
},
{
layerId = "12ED6207-3C14-4312-BF04-326F9D0146DE";
shapes = (
{
closed = 1;
nodes = (
(796,1600,l),
(425,1600,l),
(383,1453,l),
(589,1453,l),
(180,-73,l),
(-26,-73,l),
(-64,-220,l),
(307,-220,l)
);
}
);
width = 686;
},
{
layerId = "51237170-216B-44E4-96C8-4B0B4EBB077A";
shapes = (
{
closed = 1;
nodes = (
(736,1600,l),
(460,1600,l),
(437,1529,l),
(646,1529,l),
(198,-149,l),
(-11,-149,l),
(-29,-220,l),
(247,-220,l)
);
}
);
width = 657;
}
);
leftKerningGroup = _parenright;
rightKerningGroup = _bar;
unicode = 93;
},
{
glyphname = asciicircum;
layers = (
{
layerId = "6FE47AEA-F74C-4003-B51F-DE39BA7C9A54";
shapes = (
{
closed = 1;
nodes = (
(571,806,l),
(860,1163,l),
(946,806,l),
(1271,806,l),
(1100,1440,l),
(735,1440,l),
(209,806,l)
);
}
);
width = 1296;
},
{
layerId = "12ED6207-3C14-4312-BF04-326F9D0146DE";
shapes = (
{
closed = 1;
nodes = (
(495,854,l),
(886,1290,l),
(1043,854,l),
(1228,854,l),
(1018,1440,l),
(817,1440,l),
(292,854,l)
);
}
);
width = 1296;
},
{
layerId = "51237170-216B-44E4-96C8-4B0B4EBB077A";
shapes = (
{
closed = 1;
nodes = (
(446,885,l),
(903,1372,l),
(1107,885,l),
(1201,885,l),
(963,1440,l),
(872,1440,l),
(346,885,l)
);
}
);
width = 1296;
}
);
leftKerningGroup = _plus2;
rightKerningGroup = _plus;
unicode = 94;
},
{
glyphname = underscore;
layers = (
{
layerId = "6FE47AEA-F74C-4003-B51F-DE39BA7C9A54";
shapes = (
{
closed = 1;
nodes = (
(868,-405,l),
(954,-94,l),
(-144,-94,l),
(-230,-405,l)
);
}
);
width = 1138;
},
{
layerId = "12ED6207-3C14-4312-BF04-326F9D0146DE";
shapes = (
{
closed = 1;
nodes = (
(838,-320,l),
(883,-161,l),
(-148,-161,l),
(-192,-320,l)
);
}
);
width = 1084;
},
{
layerId = "51237170-216B-44E4-96C8-4B0B4EBB077A";
shapes = (
{
closed = 1;
nodes = (
(819,-263,l),
(835,-205,l),
(-150,-205,l),
(-167,-263,l)
);
}
);
width = 1048;
}
);
unicode = 95;
},
{
glyphname = a;
layers = (
{
layerId = "6FE47AEA-F74C-4003-B51F-DE39BA7C9A54";
shapes = (
{
closed = 1;
nodes = (
(530,-30,o),
(652,32,o),
(730,178,c),
(655,215,l),
(655,195,l),
(654,43,o),
(852,-31,o),
(975,-31,cs),
(989,-31,o),
(1020,-30,o),
(1033,-29,c),
(1113,214,l),
(1109,214,o),
(1107,214,o),
(1107,214,c),
(1043,214,o),
(1019,256,o),
(1038,323,cs),
(1101,540,ls),
(1207,908,o),
(967,1070,o),
(628,1070,cs),
(469,1070,o),
(331,1039,o),
(214,967,c),
(259,700,l),
(329,752,o),
(456,778,o),
(542,778,cs),
(655,778,o),
(784,750,o),
(743,606,cs),
(684,401,ls),
(656,309,o),
(577,242,o),
(479,242,cs),
(433,242,o),
(360,262,o),
(360,320,cs),
(360,397,o),
(482,425,o),
(543,431,cs),
(605,437,o),
(668,437,o),
(737,428,c),
(800,647,l),
(716,655,o),
(639,658,o),
(546,655,cs),
(312,647,o),
(-6,563,o),
(-6,276,cs),
(-6,83,o),
(134,-30,o),
(321,-30,cs)
);
}
);
width = 1202;
},
{
layerId = "12ED6207-3C14-4312-BF04-326F9D0146DE";
shapes = (
{
closed = 1;
nodes = (
(530,-30,o),
(664,28,o),
(751,167,c),
(737,237,l),
(734,219,ls),
(705,67,o),
(799,-33,o),
(956,-33,cs),
(966,-33,o),
(979,-33,o),
(990,-32,c),
(1042,124,l),
(1038,123,o),
(1023,122,o),
(1013,122,cs),
(920,122,o),
(926,219,o),
(947,292,cs),
(1036,605,ls),
(1124,910,o),
(940,1070,o),
(646,1070,cs),
(505,1070,o),
(378,1037,o),
(263,961,c),
(287,801,l),
(372,860,o),
(498,900,o),
(602,900,cs),
(777,900,o),
(893,808,o),
(839,623,cs),
(770,386,ls),
(726,236,o),
(574,134,o),
(420,134,cs),
(324,134,o),
(222,178,o),
(222,288,cs),
(222,456,o),
(442,486,o),
(570,491,cs),
(659,494,o),
(756,488,o),
(846,476,c),
(882,612,l),
(808,622,o),
(738,628,o),
(672,629,cs),
(422,637,o),
(25,590,o),
(25,261,cs),
(25,63,o),
(170,-30,o),
(355,-30,cs)
);
}
);
width = 1156;
},
{
layerId = "51237170-216B-44E4-96C8-4B0B4EBB077A";
shapes = (
{
closed = 1;
nodes = (
(530,-30,o),
(671,25,o),
(766,160,c),
(792,252,l),
(787,234,l),
(739,82,o),
(763,-34,o),
(943,-34,cs),
(950,-34,o),
(951,-35,o),
(961,-34,c),
(995,64,l),
(990,63,o),
(967,61,o),
(951,61,cs),
(838,61,o),
(864,194,o),
(886,271,cs),
(992,649,ls),
(1068,911,o),
(921,1070,o),
(658,1070,cs),
(528,1070,o),
(409,1035,o),
(296,957,c),
(306,867,l),
(400,932,o),
(526,981,o),
(642,981,cs),
(858,981,o),
(965,847,o),
(902,633,cs),
(827,376,ls),
(773,188,o),
(571,61,o),
(380,61,cs),
(251,61,o),
(131,121,o),
(131,267,cs),
(131,495,o),
(417,526,o),
(588,531,c),
(694,532,o),
(815,522,o),
(919,508,c),
(937,589,l),
(869,601,o),
(803,607,o),
(755,611,cs),
(495,631,o),
(44,606,o),
(44,251,cs),
(44,48,o),
(193,-30,o),
(377,-30,cs)
);
}
);
width = 1126;
}
);
leftKerningGroup = _a2;
rightKerningGroup = _a;
unicode = 97;
},
{
glyphname = b;
layers = (
{
layerId = "6FE47AEA-F74C-4003-B51F-DE39BA7C9A54";
shapes = (
{
closed = 1;
nodes = (
(900,-30,o),
(1047,46,o),
(1152,165,cs),
(1257,284,o),
(1318,443,o),
(1318,616,cs),
(1318,749,o),
(1276,863,o),
(1196,943,cs),
(1116,1023,o),
(1002,1070,o),
(861,1070,cs),
(795,1070,o),
(739,1059,o),
(686,1034,cs),
(632,1010,o),
(583,975,o),
(527,922,c),
(596,808,l),
(766,1440,l),
(371,1440,l),
(-15,0,l),
(320,0,l),
(397,279,l),
(319,224,l),
(333,148,o),
(384,84,o),
(456,40,cs),
(528,-4,o),
(621,-30,o),
(723,-30,cs)
);
},
{
closed = 1;
nodes = (
(642,306,o),
(598,321,o),
(565,353,cs),
(532,385,o),
(514,428,o),
(514,482,cs),
(514,544,o),
(535,608,o),
(577,657,cs),
(618,705,o),
(677,735,o),
(751,735,cs),
(803,735,o),
(849,719,o),
(882,690,cs),
(914,661,o),
(932,619,o),
(932,567,cs),
(932,501,o),
(909,437,o),
(868,388,cs),
(827,337,o),
(767,306,o),
(696,306,cs)
);
}
);
width = 1364;
},
{
layerId = "12ED6207-3C14-4312-BF04-326F9D0146DE";
shapes = (
{
closed = 1;
nodes = (
(860,-30,o),
(1009,45,o),
(1118,165,cs),
(1225,285,o),
(1290,443,o),
(1290,614,cs),
(1290,745,o),
(1249,859,o),
(1167,940,cs),
(1085,1023,o),
(969,1070,o),
(824,1070,cs),
(734,1070,o),
(661,1052,o),
(593,1018,cs),
(526,983,o),
(469,934,o),
(413,876,c),
(443,799,l),
(613,1440,l),
(408,1440,l),
(23,0,l),
(209,0,l),
(279,256,l),
(239,248,l),
(265,166,o),
(318,98,o),
(395,48,cs),
(471,-2,o),
(569,-30,o),
(688,-30,cs)
);
},
{
closed = 1;
nodes = (
(578,157,o),
(501,183,o),
(446,235,cs),
(390,287,o),
(359,361,o),
(359,456,cs),
(359,569,o),
(398,677,o),
(471,759,cs),
(544,840,o),
(643,886,o),
(769,886,cs),
(863,886,o),
(941,860,o),
(996,809,cs),
(1050,758,o),
(1081,686,o),
(1081,598,cs),
(1081,481,o),
(1039,371,o),
(969,290,cs),
(899,207,o),
(798,157,o),
(676,157,cs)
);
}
);
width = 1360;
},
{
layerId = "51237170-216B-44E4-96C8-4B0B4EBB077A";
shapes = (
{
closed = 1;
nodes = (
(833,-30,o),
(984,44,o),
(1095,165,cs),
(1204,285,o),
(1271,443,o),
(1271,612,cs),
(1271,742,o),
(1230,856,o),
(1148,938,cs),
(1064,1022,o),
(948,1070,o),
(799,1070,cs),
(692,1070,o),
(608,1048,o),
(531,1006,cs),
(456,965,o),
(394,907,o),
(338,844,c),
(341,793,l),
(511,1440,l),
(433,1440,l),
(47,0,l),
(136,0,l),
(201,241,l),
(185,263,l),
(218,178,o),
(274,106,o),
(353,52,c),
(432,0,o),
(534,-30,o),
(665,-30,cs)
);
},
{
closed = 1;
nodes = (
(536,58,o),
(437,90,o),
(367,157,cs),
(295,223,o),
(257,316,o),
(257,438,cs),
(257,585,o),
(307,724,o),
(401,826,cs),
(493,928,o),
(621,987,o),
(781,987,cs),
(903,987,o),
(1001,954,o),
(1071,887,cs),
(1142,822,o),
(1179,730,o),
(1179,617,cs),
(1179,466,o),
(1125,327,o),
(1036,224,cs),
(947,120,o),
(817,58,o),
(663,58,cs)
);
}
);
width = 1357;
}
);
leftKerningGroup = _b2;
rightKerningGroup = _b;
unicode = 98;
},
{
glyphname = c;
layers = (
{
layerId = "6FE47AEA-F74C-4003-B51F-DE39BA7C9A54";
shapes = (
{
closed = 1;
nodes = (
(702,-30,o),
(850,9,o),
(973,77,c),
(897,393,l),
(813,333,o),
(730,305,o),
(645,305,cs),
(575,305,o),
(521,321,o),
(485,353,cs),
(449,385,o),
(429,431,o),
(429,492,cs),
(429,558,o),
(453,619,o),
(497,663,cs),
(541,708,o),
(601,735,o),
(683,735,cs),
(776,735,o),
(859,707,o),
(920,631,c),
(1150,900,l),
(1039,1013,o),
(886,1070,o),
(704,1070,cs),
(524,1070,o),
(359,1003,o),
(236,890,cs),
(112,777,o),
(36,620,o),
(36,445,cs),
(36,308,o),
(90,190,o),
(183,106,cs),
(274,21,o),
(404,-30,o),
(565,-30,cs)
);
}
);
width = 1105;
},
{
layerId = "12ED6207-3C14-4312-BF04-326F9D0146DE";
shapes = (
{
closed = 1;
nodes = (
(688,-30,o),
(810,6,o),
(923,71,c),
(855,237,l),
(787,185,o),
(694,153,o),
(602,153,cs),
(495,153,o),
(413,182,o),
(357,234,cs),
(301,286,o),
(270,360,o),
(270,452,cs),
(270,572,o),
(309,682,o),
(382,761,cs),
(454,840,o),
(555,886,o),
(686,886,cs),
(803,886,o),
(895,857,o),
(957,787,c),
(1094,934,l),
(996,1029,o),
(875,1070,o),
(719,1070,cs),
(536,1070,o),
(372,1005,o),
(252,890,cs),
(132,776,o),
(58,617,o),
(58,437,cs),
(58,301,o),
(108,185,o),
(197,103,c),
(285,18,o),
(408,-30,o),
(565,-30,cs)
);
}
);
width = 1084;
},
{
layerId = "51237170-216B-44E4-96C8-4B0B4EBB077A";
shapes = (
{
closed = 1;
nodes = (
(679,-30,o),
(783,3,o),
(889,68,c),
(827,132,l),
(771,86,o),
(670,52,o),
(574,52,cs),
(442,52,o),
(341,89,o),
(272,155,cs),
(202,220,o),
(163,313,o),
(163,425,cs),
(163,581,o),
(213,724,o),
(305,826,cs),
(397,927,o),
(523,987,o),
(688,987,cs),
(819,987,o),
(918,958,o),
(981,889,c),
(1056,955,l),
(968,1039,o),
(868,1070,o),
(729,1070,cs),
(543,1070,o),
(380,1006,o),
(262,890,cs),
(145,775,o),
(73,614,o),
(73,431,cs),
(73,297,o),
(120,182,o),
(206,100,c),
(291,16,o),
(410,-30,o),
(565,-30,cs)
);
}
);
width = 1069;
}
);
leftKerningGroup = _c2;
rightKerningGroup = _c;
unicode = 99;
},
{
glyphname = d;
layers = (
{
layerId = "6FE47AEA-F74C-4003-B51F-DE39BA7C9A54";
shapes = (
{
closed = 1;
nodes = (
(583,-30,o),
(656,-11,o),
(719,24,cs),
(782,59,o),
(831,109,o),
(868,173,c),
(838,281,l),
(763,0,l),
(1098,0,l),
(1488,1440,l),
(1089,1440,l),
(926,808,l),
(1035,874,l),
(998,942,o),
(943,991,o),
(875,1023,cs),
(807,1056,o),
(733,1070,o),
(652,1070,cs),
(477,1070,o),
(325,996,o),
(217,875,cs),
(109,754,o),
(43,591,o),
(43,414,cs),
(43,277,o),
(90,166,o),
(171,90,cs),
(251,13,o),
(362,-30,o),
(499,-30,cs)
);
},
{
closed = 1;
nodes = (
(562,305,o),
(515,321,o),
(483,353,cs),
(450,385,o),
(431,426,o),
(431,479,cs),
(431,546,o),
(454,609,o),
(496,658,cs),
(537,706,o),
(598,735,o),
(669,735,cs),
(722,735,o),
(768,718,o),
(801,688,cs),
(834,658,o),
(852,612,o),
(852,559,cs),
(852,496,o),
(829,432,o),
(787,384,cs),
(744,336,o),
(686,305,o),
(612,305,cs)
);
}
);
width = 1364;
},
{
layerId = "12ED6207-3C14-4312-BF04-326F9D0146DE";
shapes = (
{
closed = 1;
nodes = (
(637,-30,o),
(716,-9,o),
(783,27,cs),
(851,63,o),
(902,116,o),
(953,174,c),
(937,246,l),
(871,0,l),
(1057,0,l),
(1448,1440,l),
(1241,1440,l),
(1071,805,l),
(1123,821,l),
(1088,897,o),
(1034,961,o),
(956,1004,cs),
(879,1048,o),
(788,1070,o),
(676,1070,cs),
(508,1070,o),
(355,997,o),
(247,879,cs),
(138,760,o),
(69,597,o),
(69,425,cs),
(69,289,o),
(117,175,o),
(199,94,cs),
(282,14,o),
(397,-30,o),
(542,-30,cs)
);
},
{
closed = 1;
nodes = (
(498,153,o),
(420,181,o),
(365,234,cs),
(309,287,o),
(279,359,o),
(279,449,cs),
(279,570,o),
(320,677,o),
(393,759,cs),
(465,839,o),
(565,886,o),
(684,886,cs),
(780,886,o),
(860,860,o),
(915,808,cs),
(970,757,o),
(1001,681,o),
(1001,589,cs),
(1001,470,o),
(960,360,o),
(888,282,cs),
(814,203,o),
(714,153,o),
(592,153,cs)
);
}
);
width = 1360;
},
{
layerId = "51237170-216B-44E4-96C8-4B0B4EBB077A";
shapes = (
{
closed = 1;
nodes = (
(673,-30,o),
(756,-7,o),
(825,29,cs),
(896,65,o),
(950,119,o),
(1009,175,c),
(1002,223,l),
(941,0,l),
(1038,0,l),
(1424,1440,l),
(1338,1440,l),
(1167,803,l),
(1182,786,l),
(1148,867,o),
(1094,940,o),
(1010,992,cs),
(927,1042,o),
(824,1070,o),
(691,1070,cs),
(527,1070,o),
(374,998,o),
(266,881,cs),
(157,763,o),
(85,600,o),
(85,431,cs),
(85,296,o),
(133,181,o),
(217,97,cs),
(301,14,o),
(420,-30,o),
(570,-30,cs)
);
},
{
closed = 1;
nodes = (
(454,52,o),
(356,87,o),
(286,155,cs),
(215,221,o),
(178,315,o),
(178,428,cs),
(178,585,o),
(231,722,o),
(324,825,cs),
(417,927,o),
(544,987,o),
(694,987,cs),
(818,987,o),
(920,954,o),
(990,887,cs),
(1059,823,o),
(1099,726,o),
(1099,608,cs),
(1099,452,o),
(1047,312,o),
(954,213,cs),
(861,115,o),
(732,52,o),
(577,52,cs)
);
}
);
width = 1357;
}
);
leftKerningGroup = _c2;
rightKerningGroup = _d;
unicode = 100;
},
{
glyphname = e;
layers = (
{
layerId = "6FE47AEA-F74C-4003-B51F-DE39BA7C9A54";
shapes = (
{
closed = 1;
nodes = (
(646,-30,o),
(724,-21,o),
(800,-6,cs),
(876,9,o),
(944,31,o),
(996,56,c),
(945,333,l),
(841,288,o),
(749,266,o),
(641,266,cs),
(575,266,o),
(513,275,o),
(466,299,cs),
(418,324,o),
(388,360,o),
(388,410,c),
(1149,410,l),
(1213,593,o),
(1199,755,o),
(1116,876,cs),
(1031,996,o),
(884,1070,o),
(680,1070,cs),
(498,1070,o),
(341,1007,o),
(228,895,cs),
(115,781,o),
(46,628,o),
(46,444,cs),
(46,304,o),
(95,188,o),
(187,104,cs),
(279,19,o),
(407,-30,o),
(574,-30,cs)
);
},
{
closed = 1;
nodes = (
(466,667,l),
(474,708,o),
(496,739,o),
(529,761,cs),
(562,782,o),
(607,794,o),
(655,794,cs),
(705,794,o),
(748,786,o),
(778,765,c),
(807,743,o),
(825,712,o),
(824,667,c)
);
}
);
width = 1222;
},
{
layerId = "12ED6207-3C14-4312-BF04-326F9D0146DE";
shapes = (
{
closed = 1;
nodes = (
(641,-30,o),
(709,-24,o),
(774,-8,cs),
(839,9,o),
(902,31,o),
(957,63,c),
(909,223,l),
(817,167,o),
(715,141,o),
(612,141,cs),
(502,141,o),
(408,168,o),
(345,226,cs),
(283,284,o),
(253,368,o),
(267,478,c),
(1121,478,l),
(1168,639,o),
(1153,785,o),
(1076,894,cs),
(999,1003,o),
(870,1070,o),
(693,1070,cs),
(515,1070,o),
(361,1001,o),
(249,882,cs),
(136,762,o),
(68,604,o),
(68,426,cs),
(68,290,o),
(117,176,o),
(206,96,cs),
(294,15,o),
(421,-30,o),
(580,-30,cs)
);
},
{
closed = 1;
nodes = (
(312,634,l),
(333,722,o),
(378,790,o),
(439,836,cs),
(500,881,o),
(580,904,o),
(666,904,cs),
(757,904,o),
(832,888,o),
(880,843,cs),
(930,798,o),
(954,730,o),
(946,634,c)
);
}
);
width = 1202;
},
{
layerId = "51237170-216B-44E4-96C8-4B0B4EBB077A";
shapes = (
{
closed = 1;
nodes = (
(638,-30,o),
(699,-26,o),
(758,-9,cs),
(815,8,o),
(874,31,o),
(932,66,c),
(885,150,l),
(801,88,o),
(692,59,o),
(593,59,cs),
(452,59,o),
(338,98,o),
(264,178,cs),
(192,257,o),
(162,374,o),
(188,522,c),
(1102,522,l),
(1138,670,o),
(1121,804,o),
(1049,906,cs),
(978,1007,o),
(860,1070,o),
(701,1070,cs),
(527,1070,o),
(374,998,o),
(262,873,cs),
(149,750,o),
(83,588,o),
(83,414,cs),
(83,280,o),
(132,168,o),
(218,90,cs),
(304,12,o),
(429,-30,o),
(583,-30,cs)
);
},
{
closed = 1;
nodes = (
(210,613,l),
(239,732,o),
(299,824,o),
(379,886,cs),
(458,947,o),
(561,977,o),
(673,977,cs),
(792,977,o),
(888,955,o),
(949,894,cs),
(1011,834,o),
(1040,742,o),
(1027,613,c)
);
}
);
width = 1189;
}
);
leftKerningGroup = _c2;
rightKerningGroup = _b;
unicode = 101;
},
{
glyphname = f;
layers = (
{
layerId = "6FE47AEA-F74C-4003-B51F-DE39BA7C9A54";
shapes = (
{
closed = 1;
nodes = (
(460,0,l),
(658,733,l),
(900,733,l),
(981,1040,l),
(738,1040,l),
(748,1067,l),
(763,1126,o),
(803,1149,o),
(862,1149,cs),
(894,1149,o),
(931,1144,o),
(966,1116,c),
(1093,1399,l),
(1006,1455,o),
(908,1470,o),
(811,1470,cs),
(573,1470,o),
(425,1332,o),
(359,1089,cs),
(67,0,l)
);
},
{
closed = 1;
nodes = (
(296,733,l),
(375,1040,l),
(178,1040,l),
(99,733,l)
);
}
);
width = 880;
},
{
layerId = "12ED6207-3C14-4312-BF04-326F9D0146DE";
shapes = (
{
closed = 1;
nodes = (
(322,0,l),
(560,874,l),
(821,874,l),
(865,1040,l),
(603,1040,l),
(633,1152,ls),
(654,1236,o),
(699,1297,o),
(792,1297,cs),
(832,1297,o),
(873,1290,o),
(914,1265,c),
(991,1415,l),
(942,1451,o),
(881,1470,o),
(795,1470,cs),
(616,1470,o),
(491,1363,o),
(437,1160,cs),
(125,0,l)
);
},
{
closed = 1;
nodes = (
(391,874,l),
(432,1040,l),
(201,1040,l),
(160,874,l)
);
}
);
width = 765;
},
{
layerId = "51237170-216B-44E4-96C8-4B0B4EBB077A";
shapes = (
{
closed = 1;
nodes = (
(231,0,l),
(494,968,l),
(768,968,l),
(788,1040,l),
(514,1040,l),
(556,1209,ls),
(584,1321,o),
(659,1395,o),
(745,1395,cs),
(790,1395,o),
(834,1388,o),
(879,1364,c),
(922,1425,l),
(900,1448,o),
(862,1470,o),
(783,1470,cs),
(644,1470,o),
(521,1382,o),
(476,1208,cs),
(149,0,l)
);
},
{
closed = 1;
nodes = (
(453,968,l),
(470,1040,l),
(216,1040,l),
(200,968,l)
);
}
);
width = 689;
}
);
leftKerningGroup = _f2;
rightKerningGroup = _f;
unicode = 102;
},
{
glyphname = g;
layers = (
{
layerId = "6FE47AEA-F74C-4003-B51F-DE39BA7C9A54";
shapes = (
{
closed = 1;
nodes = (
(458,-450,o),
(498,-448,o),
(541,-444,cs),
(627,-435,o),
(717,-415,o),
(800,-380,cs),
(841,-363,o),
(878,-341,o),
(910,-315,cs),
(974,-263,o),
(1016,-192,o),
(1016,-99,cs),
(1016,-21,o),
(976,36,o),
(917,79,cs),
(858,122,o),
(777,150,o),
(697,169,cs),
(514,212,ls),
(440,229,o),
(388,246,o),
(388,275,cs),
(388,303,o),
(418,318,o),
(453,325,cs),
(487,331,o),
(526,329,o),
(546,329,c),
(516,469,l),
(491,470,o),
(463,469,o),
(430,467,cs),
(365,462,o),
(296,449,o),
(231,425,cs),
(199,413,o),
(170,398,o),
(145,379,cs),
(94,342,o),
(60,292,o),
(60,223,cs),
(60,164,o),
(84,114,o),
(131,78,c),
(67,73,o),
(-5,52,o),
(-62,14,cs),
(-119,-25,o),
(-159,-80,o),
(-159,-157,cs),
(-159,-197,o),
(-149,-232,o),
(-129,-262,cs),
(-88,-322,o),
(-20,-366,o),
(64,-395,cs),
(106,-409,o),
(149,-420,o),
(192,-428,cs),
(277,-444,o),
(361,-450,o),
(422,-450,cs)
);
},
{
closed = 1;
nodes = (
(431,-221,o),
(417,-220,o),
(400,-219,cs),
(367,-216,o),
(327,-210,o),
(290,-199,c),
(271,-192,o),
(255,-185,o),
(240,-177,cs),
(210,-161,o),
(189,-138,o),
(189,-106,cs),
(189,-77,o),
(213,-58,o),
(245,-47,cs),
(277,-37,o),
(313,-35,o),
(337,-38,c),
(533,-78,l),
(552,-83,o),
(581,-89,o),
(604,-100,c),
(628,-110,o),
(647,-126,o),
(647,-149,cs),
(647,-184,o),
(608,-201,o),
(563,-211,cs),
(518,-221,o),
(467,-221,o),
(442,-221,cs)
);
},
{
closed = 1;
nodes = (
(707,321,o),
(833,357,o),
(930,425,cs),
(1025,493,o),
(1093,594,o),
(1093,725,cs),
(1093,849,o),
(1031,936,o),
(942,991,cs),
(853,1046,o),
(738,1070,o),
(632,1070,cs),
(513,1070,o),
(388,1036,o),
(294,968,cs),
(198,900,o),
(132,799,o),
(132,666,cs),
(132,546,o),
(195,459,o),
(283,403,cs),
(372,347,o),
(486,321,o),
(590,321,cs)
);
},
{
closed = 1;
nodes = (
(572,577,o),
(534,587,o),
(505,605,cs),
(476,623,o),
(455,652,o),
(455,692,cs),
(455,732,o),
(479,763,o),
(511,784,cs),
(543,805,o),
(584,815,o),
(620,815,cs),
(654,815,o),
(689,807,o),
(718,791,c),
(746,773,o),
(765,746,o),
(765,708,cs),
(765,666,o),
(744,633,o),
(714,612,cs),
(684,590,o),
(644,577,o),
(607,577,cs)
);
},
{
closed = 1;
nodes = (
(1251,733,l),
(1373,1040,l),
(723,1040,l),
(768,832,l),
(882,797,o),
(976,772,o),
(1054,757,cs),
(1133,741,o),
(1196,733,o),
(1249,733,cs)
);
}
);
width = 1249;
},
{
layerId = "12ED6207-3C14-4312-BF04-326F9D0146DE";
shapes = (
{
closed = 1;
nodes = (
(451,-450,o),
(489,-449,o),
(529,-444,cs),
(610,-435,o),
(691,-413,o),
(767,-379,c),
(804,-361,o),
(837,-340,o),
(866,-315,c),
(923,-263,o),
(960,-195,o),
(960,-106,cs),
(960,-42,o),
(929,12,o),
(872,54,cs),
(817,96,o),
(733,128,o),
(629,150,cs),
(454,187,ls),
(353,210,o),
(308,232,o),
(308,270,cs),
(308,308,o),
(344,332,o),
(390,346,cs),
(436,359,o),
(496,363,o),
(543,360,c),
(522,453,l),
(487,452,o),
(453,451,o),
(420,447,cs),
(352,439,o),
(292,423,o),
(240,400,cs),
(215,389,o),
(193,375,o),
(174,359,cs),
(137,326,o),
(115,285,o),
(115,234,cs),
(115,188,o),
(142,142,o),
(200,102,c),
(121,97,o),
(42,74,o),
(-19,34,cs),
(-81,-6,o),
(-121,-65,o),
(-121,-144,cs),
(-121,-182,o),
(-113,-215,o),
(-97,-245,cs),
(-65,-304,o),
(-9,-349,o),
(64,-381,cs),
(99,-397,o),
(137,-410,o),
(178,-421,cs),
(257,-441,o),
(341,-450,o),
(415,-450,cs)
);
},
{
closed = 1;
nodes = (
(423,-309,o),
(400,-308,o),
(375,-305,cs),
(324,-300,o),
(269,-289,o),
(217,-270,cs),
(191,-261,o),
(168,-249,o),
(148,-235,cs),
(107,-206,o),
(79,-167,o),
(79,-116,cs),
(79,-63,o),
(114,-24,o),
(167,0,cs),
(219,25,o),
(286,36,o),
(351,31,c),
(534,-7,ls),
(600,-21,o),
(656,-39,o),
(693,-61,cs),
(732,-84,o),
(753,-112,o),
(753,-146,cs),
(753,-198,o),
(717,-239,o),
(661,-266,cs),
(603,-295,o),
(525,-309,o),
(442,-309,cs)
);
},
{
closed = 1;
nodes = (
(708,342,o),
(829,385,o),
(919,455,cs),
(1008,525,o),
(1067,623,o),
(1067,735,cs),
(1067,838,o),
(1018,922,o),
(940,980,cs),
(862,1038,o),
(755,1070,o),
(640,1070,cs),
(518,1070,o),
(399,1029,o),
(310,959,cs),
(221,889,o),
(162,790,o),
(162,675,cs),
(162,574,o),
(212,491,o),
(290,433,cs),
(366,375,o),
(472,342,o),
(585,342,cs)
);
},
{
closed = 1;
nodes = (
(529,500,o),
(468,518,o),
(424,549,cs),
(380,580,o),
(354,627,o),
(354,685,cs),
(354,746,o),
(384,803,o),
(433,845,cs),
(481,886,o),
(550,913,o),
(628,913,cs),
(699,913,o),
(759,896,o),
(803,866,c),
(846,835,o),
(872,790,o),
(872,735,cs),
(872,672,o),
(843,613,o),
(795,571,cs),
(747,528,o),
(680,500,o),
(601,500,cs)
);
},
{
closed = 1;
nodes = (
(1247,869,l),
(1321,1039,l),
(788,1039,l),
(806,935,l),
(893,912,o),
(965,895,o),
(1028,885,cs),
(1092,874,o),
(1148,869,o),
(1203,869,cs)
);
}
);
width = 1230;
},
{
layerId = "51237170-216B-44E4-96C8-4B0B4EBB077A";
shapes = (
{
closed = 1;
nodes = (
(445,-450,o),
(483,-449,o),
(521,-444,cs),
(598,-435,o),
(675,-411,o),
(745,-378,c),
(779,-359,o),
(810,-339,o),
(837,-314,c),
(888,-263,o),
(922,-197,o),
(922,-109,cs),
(922,-57,o),
(896,-4,o),
(842,38,cs),
(789,80,o),
(704,113,o),
(584,137,cs),
(413,171,l),
(294,197,o),
(255,222,o),
(255,267,cs),
(255,311,o),
(293,341,o),
(348,359,cs),
(401,377,o),
(475,385,o),
(541,379,c),
(525,441,l),
(484,440,o),
(447,439,o),
(413,434,cs),
(344,424,o),
(289,407,o),
(246,384,cs),
(225,373,o),
(208,360,o),
(193,344,cs),
(165,314,o),
(153,281,o),
(153,241,cs),
(153,203,o),
(180,160,o),
(247,118,c),
(157,112,o),
(73,89,o),
(9,47,c),
(-56,6,o),
(-96,-55,o),
(-96,-136,cs),
(-96,-172,o),
(-89,-203,o),
(-76,-233,cs),
(-49,-292,o),
(-2,-337,o),
(63,-372,cs),
(95,-389,o),
(129,-404,o),
(168,-415,c),
(242,-438,o),
(326,-450,o),
(411,-450,cs)
);
},
{
closed = 1;
nodes = (
(417,-368,o),
(388,-365,o),
(359,-362,cs),
(296,-356,o),
(230,-342,o),
(169,-318,cs),
(138,-306,o),
(109,-291,o),
(87,-273,cs),
(38,-235,o),
(6,-186,o),
(6,-122,cs),
(6,-54,o),
(48,-2,o),
(114,33,cs),
(180,66,o),
(267,83,o),
(359,78,c),
(535,41,ls),
(633,21,o),
(706,-4,o),
(753,-36,cs),
(801,-68,o),
(823,-103,o),
(823,-144,cs),
(823,-207,o),
(790,-263,o),
(726,-304,c),
(659,-343,o),
(564,-366,o),
(441,-366,c)
);
},
{
closed = 1;
nodes = (
(709,357,o),
(826,403,o),
(912,474,c),
(996,546,o),
(1051,642,o),
(1051,741,cs),
(1051,831,o),
(1009,913,o),
(938,973,cs),
(868,1032,o),
(765,1070,o),
(644,1070,cs),
(521,1070,o),
(406,1025,o),
(320,953,cs),
(236,882,o),
(181,784,o),
(181,681,cs),
(181,593,o),
(222,512,o),
(293,452,cs),
(363,393,o),
(463,357,o),
(582,357,cs)
);
},
{
closed = 1;
nodes = (
(501,449,o),
(424,471,o),
(370,511,cs),
(316,552,o),
(287,611,o),
(287,679,cs),
(287,754,o),
(321,828,o),
(380,886,c),
(439,940,o),
(528,978,o),
(634,978,cs),
(728,978,o),
(806,956,o),
(860,916,cs),
(912,876,o),
(942,819,o),
(942,753,cs),
(942,675,o),
(909,598,o),
(849,543,cs),
(789,486,o),
(703,449,o),
(598,449,cs)
);
},
{
closed = 1;
nodes = (
(1244,958,l),
(1286,1038,l),
(832,1038,l),
(830,1004,l),
(900,988,o),
(958,977,o),
(1012,969,cs),
(1065,962,o),
(1115,958,o),
(1171,958,cs)
);
}
);
width = 1217;
}
);
leftKerningGroup = _g2;
rightKerningGroup = _g;
unicode = 103;
},
{
glyphname = h;
layers = (
{
layerId = "6FE47AEA-F74C-4003-B51F-DE39BA7C9A54";
shapes = (
{
closed = 1;
nodes = (
(383,0,l),
(527,536,ls),
(544,597,o),
(570,642,o),
(604,672,cs),
(638,701,o),
(678,716,o),
(728,716,cs),
(789,716,o),
(827,702,o),
(848,670,cs),
(868,639,o),
(870,594,o),
(854,537,cs),
(711,0,l),
(1104,0,l),
(1277,647,l),
(1308,775,o),
(1286,879,o),
(1226,954,cs),
(1166,1030,o),
(1072,1070,o),
(956,1070,cs),
(816,1070,o),
(694,1008,o),
(592,918,c),
(598,795,l),
(772,1440,l),
(376,1440,l),
(-11,0,l)
);
}
);
width = 1363;
},
{
layerId = "12ED6207-3C14-4312-BF04-326F9D0146DE";
shapes = (
{
closed = 1;
nodes = (
(233,0,l),
(393,592,ls),
(418,689,o),
(464,761,o),
(526,809,cs),
(587,857,o),
(657,880,o),
(735,880,cs),
(817,880,o),
(883,858,o),
(922,813,cs),
(962,768,o),
(974,705,o),
(953,625,cs),
(784,0,l),
(989,0,l),
(1173,684,l),
(1201,801,o),
(1172,898,o),
(1108,966,cs),
(1044,1034,o),
(946,1070,o),
(835,1070,cs),
(701,1070,o),
(568,1019,o),
(457,902,c),
(458,833,l),
(624,1440,l),
(418,1440,l),
(27,0,l)
);
}
);
width = 1285;
},
{
layerId = "51237170-216B-44E4-96C8-4B0B4EBB077A";
shapes = (
{
closed = 1;
nodes = (
(132,0,l),
(304,630,ls),
(335,750,o),
(394,840,o),
(473,901,cs),
(552,961,o),
(642,989,o),
(739,989,cs),
(836,989,o),
(921,963,o),
(972,909,cs),
(1024,853,o),
(1043,778,o),
(1018,682,cs),
(832,0,l),
(912,0,l),
(1103,708,l),
(1129,817,o),
(1096,910,o),
(1030,973,cs),
(963,1037,o),
(863,1070,o),
(754,1070,cs),
(625,1070,o),
(485,1026,o),
(366,890,c),
(364,857,l),
(520,1440,l),
(435,1440,l),
(43,0,l)
);
}
);
width = 1232;
}
);
leftKerningGroup = _b2;
rightKerningGroup = _a;
unicode = 104;
},
{
glyphname = k;
layers = (
{
layerId = "6FE47AEA-F74C-4003-B51F-DE39BA7C9A54";
shapes = (
{
closed = 1;
nodes = (
(382,0,l),
(456,271,l),
(546,350,l),
(669,0,l),
(1114,0,l),
(883,593,l),
(1369,1040,l),
(891,1040,l),
(587,767,l),
(771,1440,l),
(380,1440,l),
(-12,0,l)
);
}
);
width = 1268;
},
{
layerId = "12ED6207-3C14-4312-BF04-326F9D0146DE";
shapes = (
{
closed = 1;
nodes = (
(231,0,l),
(327,351,l),
(531,514,l),
(735,0,l),
(971,0,l),
(709,640,l),
(1187,1040,l),
(931,1040,l),
(397,612,l),
(619,1440,l),
(414,1440,l),
(26,0,l)
);
}
);
width = 1160;
},
{
layerId = "51237170-216B-44E4-96C8-4B0B4EBB077A";
shapes = (
{
closed = 1;
nodes = (
(130,0,l),
(241,404,l),
(521,623,l),
(779,0,l),
(875,0,l),
(593,671,l),
(1066,1040,l),
(956,1040,l),
(270,510,l),
(516,1440,l),
(438,1440,l),
(50,0,l)
);
}
);
width = 1087;
}
);
leftKerningGroup = _b2;
rightKerningGroup = _k;
unicode = 107;
},
{
glyphname = l;
layers = (
{
layerId = "6FE47AEA-F74C-4003-B51F-DE39BA7C9A54";
shapes = (
{
closed = 1;
nodes = (
(479,-30,o),
(551,-14,o),
(618,10,c),
(631,314,l),
(608,307,o),
(586,303,o),
(563,303,cs),
(521,303,o),
(489,324,o),
(489,369,cs),
(489,383,o),
(492,398,o),
(496,411,cs),
(775,1440,l),
(389,1440,l),
(88,348,ls),
(79,317,o),
(74,288,o),
(74,256,cs),
(74,64,o),
(230,-30,o),
(407,-30,cs)
);
}
);
width = 767;
},
{
layerId = "12ED6207-3C14-4312-BF04-326F9D0146DE";
shapes = (
{
closed = 1;
nodes = (
(371,-30,o),
(430,-20,o),
(486,-2,c),
(483,165,l),
(450,156,o),
(416,148,o),
(381,148,cs),
(327,148,o),
(302,176,o),
(302,229,cs),
(302,255,o),
(307,281,o),
(313,305,cs),
(620,1440,l),
(419,1440,l),
(100,254,ls),
(92,225,o),
(86,196,o),
(86,166,cs),
(86,30,o),
(188,-30,o),
(312,-30,cs)
);
}
);
width = 642;
},
{
layerId = "51237170-216B-44E4-96C8-4B0B4EBB077A";
shapes = (
{
closed = 1;
nodes = (
(299,-30,o),
(350,-24,o),
(398,-10,c),
(385,64,l),
(344,55,o),
(303,44,o),
(261,44,cs),
(210,44,o),
(176,69,o),
(176,123,cs),
(176,159,o),
(188,200,o),
(197,235,cs),
(517,1440,l),
(441,1440,l),
(102,191,ls),
(95,166,o),
(90,140,o),
(90,114,cs),
(90,14,o),
(153,-30,o),
(249,-30,cs)
);
}
);
width = 560;
}
);
leftKerningGroup = _b2;
rightKerningGroup = _d;
unicode = 108;
},
{
glyphname = m;
layers = (
{
layerId = "6FE47AEA-F74C-4003-B51F-DE39BA7C9A54";
shapes = (
{
closed = 1;
nodes = (
(383,0,l),
(539,587,ls),
(550,629,o),
(574,661,o),
(606,683,c),
(638,703,o),
(680,716,o),
(722,716,cs),
(771,716,o),
(803,703,o),
(821,676,cs),
(839,648,o),
(841,609,o),
(827,551,c),
(681,0,l),
(1074,0,l),
(1230,587,ls),
(1242,629,o),
(1266,661,o),
(1298,683,c),
(1330,703,o),
(1372,716,o),
(1414,716,cs),
(1462,716,o),
(1495,703,o),
(1512,676,cs),
(1530,648,o),
(1532,609,o),
(1519,551,c),
(1372,0,l),
(1765,0,l),
(1943,663,l),
(1977,802,o),
(1959,903,o),
(1906,971,cs),
(1853,1039,o),
(1765,1070,o),
(1652,1070,cs),
(1572,1070,o),
(1490,1055,o),
(1421,1020,cs),
(1352,985,o),
(1291,934,o),
(1247,866,c),
(1240,926,o),
(1213,977,o),
(1169,1014,cs),
(1124,1050,o),
(1062,1070,o),
(985,1070,cs),
(913,1070,o),
(840,1050,o),
(772,1013,cs),
(704,976,o),
(648,920,o),
(615,847,c),
(663,1040,l),
(269,1040,l),
(-11,0,l)
);
}
);
width = 2025;
},
{
layerId = "12ED6207-3C14-4312-BF04-326F9D0146DE";
shapes = (
{
closed = 1;
nodes = (
(233,0,l),
(395,608,ls),
(419,697,o),
(466,765,o),
(526,812,c),
(586,857,o),
(660,880,o),
(733,880,cs),
(814,880,o),
(872,859,o),
(906,815,cs),
(940,772,o),
(946,710,o),
(923,629,cs),
(756,0,l),
(961,0,l),
(1124,608,ls),
(1148,697,o),
(1195,765,o),
(1255,812,c),
(1316,857,o),
(1388,880,o),
(1461,880,cs),
(1543,880,o),
(1602,859,o),
(1635,815,cs),
(1668,772,o),
(1675,710,o),
(1653,629,cs),
(1485,0,l),
(1690,0,l),
(1876,689,l),
(1904,809,o),
(1882,906,o),
(1827,972,cs),
(1772,1038,o),
(1681,1070,o),
(1568,1070,cs),
(1492,1070,o),
(1416,1056,o),
(1344,1017,cs),
(1271,977,o),
(1203,920,o),
(1139,841,c),
(1136,905,o),
(1112,962,o),
(1065,1004,cs),
(1017,1046,o),
(947,1070,o),
(851,1070,cs),
(778,1070,o),
(706,1051,o),
(640,1016,cs),
(573,980,o),
(515,928,o),
(467,861,c),
(511,1040,l),
(307,1040,l),
(27,0,l)
);
}
);
width = 1986;
},
{
layerId = "51237170-216B-44E4-96C8-4B0B4EBB077A";
shapes = (
{
closed = 1;
nodes = (
(132,0,l),
(299,621,ls),
(332,742,o),
(394,834,o),
(473,897,cs),
(551,959,o),
(645,989,o),
(739,989,cs),
(842,989,o),
(919,963,o),
(963,908,cs),
(1006,854,o),
(1015,777,o),
(987,680,c),
(807,0,l),
(886,0,l),
(1054,621,ls),
(1085,742,o),
(1147,834,o),
(1227,897,cs),
(1306,959,o),
(1398,989,o),
(1493,989,cs),
(1596,989,o),
(1672,963,o),
(1716,908,cs),
(1760,854,o),
(1770,777,o),
(1741,680,c),
(1560,0,l),
(1639,0,l),
(1831,705,l),
(1854,813,o),
(1831,908,o),
(1774,972,cs),
(1717,1037,o),
(1625,1070,o),
(1512,1070,cs),
(1439,1070,o),
(1365,1057,o),
(1291,1014,cs),
(1217,971,o),
(1143,910,o),
(1066,825,c),
(1067,890,o),
(1045,952,o),
(995,998,cs),
(947,1043,o),
(870,1070,o),
(762,1070,cs),
(687,1070,o),
(618,1052,o),
(552,1018,c),
(486,982,o),
(427,932,o),
(368,869,c),
(410,1040,l),
(331,1040,l),
(52,0,l)
);
}
);
width = 1961;
}
);
leftKerningGroup = _m;
rightKerningGroup = _a;
unicode = 109;
},
{
glyphname = n;
layers = (
{
layerId = "6FE47AEA-F74C-4003-B51F-DE39BA7C9A54";
shapes = (
{
closed = 1;
nodes = (
(383,0,l),
(527,538,l),
(541,599,o),
(568,643,o),
(605,673,c),
(642,701,o),
(690,716,o),
(744,716,cs),
(794,716,o),
(831,705,o),
(851,677,c),
(870,648,o),
(873,605,o),
(855,539,cs),
(711,0,l),
(1104,0,l),
(1281,663,l),
(1310,792,o),
(1286,891,o),
(1226,962,cs),
(1166,1033,o),
(1073,1070,o),
(968,1070,cs),
(840,1070,o),
(721,1018,o),
(626,905,c),
(663,1040,l),
(269,1040,l),
(-11,0,l)
);
}
);
width = 1363;
},
{
layerId = "12ED6207-3C14-4312-BF04-326F9D0146DE";
shapes = (
{
closed = 1;
nodes = (
(233,0,l),
(393,593,l),
(416,688,o),
(462,760,o),
(525,809,cs),
(587,857,o),
(662,880,o),
(739,880,cs),
(821,880,o),
(884,859,o),
(922,815,cs),
(960,771,o),
(972,708,o),
(951,625,cs),
(784,0,l),
(989,0,l),
(1174,689,l),
(1203,806,o),
(1174,901,o),
(1111,968,cs),
(1047,1034,o),
(948,1070,o),
(840,1070,cs),
(714,1070,o),
(581,1019,o),
(474,895,c),
(511,1040,l),
(307,1040,l),
(27,0,l)
);
}
);
width = 1285;
},
{
layerId = "51237170-216B-44E4-96C8-4B0B4EBB077A";
shapes = (
{
closed = 1;
nodes = (
(132,0,l),
(304,629,l),
(333,747,o),
(392,837,o),
(471,898,cs),
(549,959,o),
(643,989,o),
(736,989,cs),
(837,989,o),
(919,961,o),
(969,907,cs),
(1020,852,o),
(1038,777,o),
(1014,682,cs),
(832,0,l),
(912,0,l),
(1104,705,ls),
(1133,815,o),
(1099,907,o),
(1034,971,cs),
(968,1035,o),
(866,1070,o),
(755,1070,cs),
(631,1070,o),
(487,1019,o),
(373,888,c),
(410,1040,l),
(331,1040,l),
(52,0,l)
);
}
);
width = 1232;
}
);
leftKerningGroup = _m;
rightKerningGroup = _a;
unicode = 110;
},
{
glyphname = o;
layers = (
{
layerId = "6FE47AEA-F74C-4003-B51F-DE39BA7C9A54";
shapes = (
{
closed = 1;
nodes = (
(748,-30,o),
(911,39,o),
(1034,152,cs),
(1095,208,o),
(1144,274,o),
(1181,350,cs),
(1218,426,o),
(1236,506,o),
(1236,593,cs),
(1236,725,o),
(1186,844,o),
(1094,931,cs),
(1002,1018,o),
(870,1070,o),
(705,1070,cs),
(530,1070,o),
(367,1002,o),
(244,889,cs),
(120,776,o),
(41,622,o),
(41,449,cs),
(41,317,o),
(91,200,o),
(183,112,cs),
(275,24,o),
(407,-30,o),
(572,-30,cs)
);
},
{
closed = 1;
nodes = (
(557,305,o),
(511,322,o),
(479,354,cs),
(447,385,o),
(429,428,o),
(429,481,cs),
(429,547,o),
(452,608,o),
(493,656,cs),
(534,705,o),
(593,735,o),
(667,735,cs),
(721,735,o),
(766,718,o),
(799,689,cs),
(832,660,o),
(848,616,o),
(848,563,cs),
(848,497,o),
(827,434,o),
(786,385,cs),
(744,337,o),
(683,305,o),
(609,305,cs)
);
}
);
width = 1276;
},
{
layerId = "12ED6207-3C14-4312-BF04-326F9D0146DE";
shapes = (
{
closed = 1;
nodes = (
(737,-30,o),
(895,40,o),
(1012,156,cs),
(1070,212,o),
(1117,279,o),
(1153,357,cs),
(1188,434,o),
(1206,513,o),
(1206,597,cs),
(1206,729,o),
(1157,846,o),
(1071,933,cs),
(985,1019,o),
(860,1070,o),
(706,1070,cs),
(538,1070,o),
(381,1002,o),
(261,886,cs),
(142,770,o),
(67,616,o),
(67,445,cs),
(67,314,o),
(115,196,o),
(202,109,cs),
(289,22,o),
(413,-30,o),
(566,-30,cs)
);
},
{
closed = 1;
nodes = (
(496,153,o),
(417,181,o),
(362,234,cs),
(307,286,o),
(277,360,o),
(277,451,cs),
(277,567,o),
(317,675,o),
(387,755,cs),
(457,837,o),
(559,886,o),
(681,886,cs),
(779,886,o),
(855,860,o),
(911,808,c),
(967,758,o),
(996,683,o),
(996,591,cs),
(996,475,o),
(956,367,o),
(887,286,c),
(815,205,o),
(714,153,o),
(591,153,cs)
);
}
);
width = 1272;
},
{
layerId = "51237170-216B-44E4-96C8-4B0B4EBB077A";
shapes = (
{
closed = 1;
nodes = (
(730,-30,o),
(885,41,o),
(997,158,c),
(1054,215,o),
(1099,282,o),
(1134,360,c),
(1167,438,o),
(1185,517,o),
(1185,600,cs),
(1185,731,o),
(1138,847,o),
(1056,934,cs),
(973,1020,o),
(853,1070,o),
(706,1070,cs),
(542,1070,o),
(389,1002,o),
(273,884,cs),
(157,767,o),
(83,612,o),
(83,442,cs),
(83,311,o),
(130,193,o),
(214,106,cs),
(299,20,o),
(416,-30,o),
(562,-30,cs)
);
},
{
closed = 1;
nodes = (
(455,52,o),
(354,87,o),
(284,155,c),
(213,220,o),
(175,313,o),
(175,432,cs),
(175,580,o),
(228,719,o),
(317,821,cs),
(404,924,o),
(536,987,o),
(690,987,cs),
(817,987,o),
(915,954,o),
(986,887,cs),
(1055,823,o),
(1094,727,o),
(1094,609,cs),
(1094,460,o),
(1042,322,o),
(953,220,cs),
(863,117,o),
(733,52,o),
(579,52,cs)
);
}
);
width = 1269;
}
);
leftKerningGroup = _c2;
rightKerningGroup = _b;
unicode = 111;
},
{
glyphname = p;
layers = (
{
layerId = "6FE47AEA-F74C-4003-B51F-DE39BA7C9A54";
shapes = (
{
closed = 1;
nodes = (
(270,-400,l),
(401,86,l),
(441,48,o),
(489,17,o),
(541,-2,cs),
(593,-22,o),
(648,-30,o),
(709,-30,cs),
(886,-30,o),
(1040,46,o),
(1148,167,cs),
(1256,288,o),
(1322,452,o),
(1322,630,cs),
(1322,766,o),
(1279,876,o),
(1200,953,cs),
(1121,1029,o),
(1008,1070,o),
(874,1070,cs),
(813,1070,o),
(760,1061,o),
(712,1044,cs),
(662,1027,o),
(618,1000,o),
(582,966,c),
(602,1040,l),
(267,1040,l),
(-122,-400,l)
);
},
{
closed = 1;
nodes = (
(639,305,o),
(596,322,o),
(564,355,c),
(531,387,o),
(514,432,o),
(514,490,cs),
(514,551,o),
(537,613,o),
(578,659,cs),
(619,706,o),
(678,735,o),
(752,735,cs),
(805,735,o),
(851,719,o),
(884,690,cs),
(917,661,o),
(934,618,o),
(934,568,cs),
(934,487,o),
(907,422,o),
(863,377,cs),
(819,332,o),
(762,305,o),
(696,305,cs)
);
}
);
width = 1364;
},
{
layerId = "12ED6207-3C14-4312-BF04-326F9D0146DE";
shapes = (
{
closed = 1;
nodes = (
(121,-400,l),
(274,172,l),
(313,113,o),
(367,60,o),
(434,25,cs),
(502,-11,o),
(586,-30,o),
(686,-30,cs),
(855,-30,o),
(1007,44,o),
(1116,165,cs),
(1224,285,o),
(1292,445,o),
(1292,615,cs),
(1292,747,o),
(1249,862,o),
(1167,943,cs),
(1086,1025,o),
(968,1070,o),
(822,1070,cs),
(740,1070,o),
(673,1055,o),
(614,1029,c),
(554,1001,o),
(503,963,o),
(457,917,c),
(492,1040,l),
(305,1040,l),
(-83,-400,l)
);
},
{
closed = 1;
nodes = (
(579,153,o),
(502,181,o),
(446,234,cs),
(390,286,o),
(360,360,o),
(360,450,cs),
(360,564,o),
(401,674,o),
(471,755,cs),
(541,836,o),
(641,886,o),
(766,886,cs),
(861,886,o),
(940,860,o),
(996,809,cs),
(1052,758,o),
(1082,684,o),
(1082,596,cs),
(1082,477,o),
(1042,367,o),
(970,286,cs),
(899,205,o),
(800,153,o),
(677,153,cs)
);
}
);
width = 1360;
},
{
layerId = "51237170-216B-44E4-96C8-4B0B4EBB077A";
shapes = (
{
closed = 1;
nodes = (
(22,-400,l),
(190,229,l),
(228,155,o),
(285,88,o),
(364,43,c),
(441,-4,o),
(544,-30,o),
(670,-30,cs),
(834,-30,o),
(985,42,o),
(1095,163,cs),
(1203,283,o),
(1271,441,o),
(1271,605,cs),
(1271,735,o),
(1228,853,o),
(1146,937,cs),
(1063,1022,o),
(943,1070,o),
(787,1070,cs),
(692,1070,o),
(616,1052,o),
(548,1019,cs),
(481,985,o),
(426,938,o),
(375,883,c),
(419,1040,l),
(323,1040,l),
(-65,-400,l)
);
},
{
closed = 1;
nodes = (
(538,52,o),
(439,86,o),
(368,153,c),
(296,217,o),
(258,312,o),
(258,425,cs),
(258,572,o),
(310,715,o),
(401,818,c),
(488,922,o),
(617,987,o),
(775,987,cs),
(899,987,o),
(1000,954,o),
(1071,887,cs),
(1140,822,o),
(1180,728,o),
(1180,615,cs),
(1180,471,o),
(1130,329,o),
(1040,226,c),
(952,121,o),
(825,52,o),
(665,52,cs)
);
}
);
width = 1357;
}
);
leftKerningGroup = _m;
rightKerningGroup = _b;
unicode = 112;
},
{
glyphname = q;
layers = (
{
layerId = "6FE47AEA-F74C-4003-B51F-DE39BA7C9A54";
shapes = (
{
closed = 1;
nodes = (
(992,-400,l),
(1379,1040,l),
(1044,1040,l),
(968,759,l),
(1048,815,l),
(1034,891,o),
(985,954,o),
(910,999,cs),
(835,1044,o),
(744,1070,o),
(640,1070,cs),
(465,1070,o),
(318,995,o),
(214,878,cs),
(109,761,o),
(48,602,o),
(48,429,cs),
(48,296,o),
(90,185,o),
(166,101,cs),
(242,17,o),
(347,-29,o),
(480,-29,cs),
(553,-29,o),
(618,-17,o),
(675,11,cs),
(732,38,o),
(781,76,o),
(837,129,c),
(769,232,l),
(600,-400,l)
);
},
{
closed = 1;
nodes = (
(560,306,o),
(515,322,o),
(483,352,cs),
(451,382,o),
(432,424,o),
(432,477,cs),
(432,543,o),
(455,607,o),
(496,656,cs),
(537,705,o),
(597,736,o),
(672,736,cs),
(722,736,o),
(769,720,o),
(801,688,cs),
(833,656,o),
(852,613,o),
(852,556,cs),
(852,494,o),
(831,432,o),
(790,384,cs),
(748,335,o),
(687,306,o),
(613,306,cs)
);
}
);
width = 1364;
},
{
layerId = "12ED6207-3C14-4312-BF04-326F9D0146DE";
shapes = (
{
closed = 1;
nodes = (
(952,-400,l),
(1339,1040,l),
(1152,1040,l),
(1084,794,l),
(1126,807,l),
(1089,897,o),
(1027,962,o),
(948,1007,cs),
(868,1051,o),
(778,1070,o),
(676,1070,cs),
(506,1070,o),
(354,998,o),
(247,881,cs),
(139,764,o),
(72,606,o),
(72,431,cs),
(72,300,o),
(114,189,o),
(194,105,cs),
(273,22,o),
(386,-26,o),
(529,-26,cs),
(621,-26,o),
(698,-9,o),
(766,27,c),
(834,61,o),
(889,110,o),
(945,171,c),
(918,235,l),
(747,-400,l)
);
},
{
closed = 1;
nodes = (
(498,157,o),
(421,183,o),
(366,235,cs),
(311,287,o),
(279,357,o),
(279,450,cs),
(279,563,o),
(320,672,o),
(390,753,cs),
(461,834,o),
(561,885,o),
(686,885,cs),
(780,885,o),
(861,859,o),
(916,807,cs),
(970,755,o),
(1001,682,o),
(1001,592,cs),
(1001,479,o),
(964,369,o),
(892,289,cs),
(819,207,o),
(718,157,o),
(593,157,cs)
);
}
);
width = 1360;
},
{
layerId = "51237170-216B-44E4-96C8-4B0B4EBB077A";
shapes = (
{
closed = 1;
nodes = (
(931,-400,l),
(1318,1040,l),
(1222,1040,l),
(1161,817,l),
(1177,801,l),
(1127,900,o),
(1055,968,o),
(972,1011,cs),
(889,1054,o),
(799,1070,o),
(699,1070,cs),
(531,1070,o),
(377,1000,o),
(268,883,cs),
(158,766,o),
(87,608,o),
(87,432,cs),
(87,303,o),
(130,191,o),
(212,108,cs),
(294,25,o),
(411,-23,o),
(562,-23,cs),
(666,-23,o),
(751,-3,o),
(826,37,cs),
(901,76,o),
(961,132,o),
(1017,199,c),
(1016,237,l),
(845,-400,l)
);
},
{
closed = 1;
nodes = (
(456,58,o),
(358,90,o),
(288,157,cs),
(217,223,o),
(177,313,o),
(177,431,cs),
(177,575,o),
(231,714,o),
(320,817,cs),
(410,920,o),
(537,984,o),
(696,984,cs),
(819,984,o),
(921,951,o),
(991,885,cs),
(1062,820,o),
(1100,729,o),
(1100,615,cs),
(1100,469,o),
(1052,327,o),
(959,225,cs),
(867,121,o),
(737,58,o),
(578,58,cs)
);
}
);
width = 1357;
}
);
leftKerningGroup = _c2;
unicode = 113;
},
{
glyphname = r;
layers = (
{
layerId = "6FE47AEA-F74C-4003-B51F-DE39BA7C9A54";
shapes = (
{
closed = 1;
nodes = (
(384,0,l),
(520,508,ls),
(537,574,o),
(569,618,o),
(609,647,cs),
(649,675,o),
(696,684,o),
(746,684,cs),
(802,684,o),
(860,673,o),
(907,652,c),
(1057,1058,l),
(1023,1066,o),
(986,1070,o),
(946,1070,cs),
(886,1070,o),
(822,1056,o),
(766,1024,cs),
(710,992,o),
(659,942,o),
(622,877,c),
(665,1040,l),
(272,1040,l),
(-10,0,l)
);
}
);
width = 933;
},
{
layerId = "12ED6207-3C14-4312-BF04-326F9D0146DE";
shapes = (
{
closed = 1;
nodes = (
(233,0,l),
(389,575,ls),
(415,671,o),
(462,745,o),
(525,793,cs),
(588,841,o),
(662,865,o),
(743,865,cs),
(789,865,o),
(836,859,o),
(880,843,c),
(963,1055,l),
(922,1067,o),
(877,1070,o),
(837,1070,cs),
(773,1070,o),
(709,1060,o),
(648,1029,cs),
(586,999,o),
(528,949,o),
(471,877,c),
(515,1040,l),
(309,1040,l),
(28,0,l)
);
}
);
width = 854;
},
{
layerId = "51237170-216B-44E4-96C8-4B0B4EBB077A";
shapes = (
{
closed = 1;
nodes = (
(132,0,l),
(301,619,ls),
(333,735,o),
(390,828,o),
(468,891,c),
(547,952,o),
(639,985,o),
(740,985,cs),
(781,985,o),
(820,982,o),
(862,970,c),
(900,1052,l),
(855,1067,o),
(804,1070,o),
(764,1070,cs),
(698,1070,o),
(634,1062,o),
(569,1032,cs),
(504,1002,o),
(440,952,o),
(370,877,c),
(414,1040,l),
(333,1040,l),
(52,0,l)
);
}
);
width = 801;
}
);
leftKerningGroup = _m;
rightKerningGroup = _r;
unicode = 114;
},
{
glyphname = s;
layers = (
{
layerId = "6FE47AEA-F74C-4003-B51F-DE39BA7C9A54";
shapes = (
{
closed = 1;
nodes = (
(606,-30,o),
(730,8,o),
(818,80,cs),
(906,150,o),
(959,251,o),
(959,375,cs),
(959,443,o),
(934,495,o),
(875,543,cs),
(817,589,o),
(726,626,o),
(598,662,cs),
(542,678,o),
(507,687,o),
(486,699,c),
(464,710,o),
(459,717,o),
(459,728,cs),
(459,746,o),
(470,760,o),
(488,769,cs),
(506,778,o),
(534,784,o),
(566,784,cs),
(623,784,o),
(685,771,o),
(741,749,cs),
(797,726,o),
(852,697,o),
(896,658,c),
(1067,905,l),
(1015,954,o),
(947,997,o),
(864,1025,cs),
(781,1053,o),
(688,1070,o),
(588,1070,cs),
(457,1070,o),
(339,1036,o),
(250,966,cs),
(159,895,o),
(104,799,o),
(104,673,cs),
(104,596,o),
(134,534,o),
(193,486,cs),
(253,438,o),
(341,403,o),
(461,375,cs),
(522,360,o),
(560,352,o),
(580,344,cs),
(602,336,o),
(610,330,o),
(610,317,cs),
(610,300,o),
(601,284,o),
(581,273,cs),
(561,261,o),
(532,256,o),
(494,256,cs),
(438,256,o),
(371,271,o),
(306,294,cs),
(242,317,o),
(178,350,o),
(119,393,c),
(-55,147,l),
(13,83,o),
(97,40,o),
(188,12,cs),
(279,-16,o),
(373,-30,o),
(464,-30,cs)
);
}
);
width = 1086;
},
{
layerId = "12ED6207-3C14-4312-BF04-326F9D0146DE";
shapes = (
{
closed = 1;
nodes = (
(552,-30,o),
(659,4,o),
(737,70,cs),
(815,136,o),
(859,226,o),
(859,338,cs),
(859,401,o),
(835,449,o),
(785,492,cs),
(735,536,o),
(659,569,o),
(552,602,cs),
(478,625,o),
(427,644,o),
(391,668,cs),
(357,692,o),
(342,714,o),
(342,749,cs),
(342,799,o),
(365,838,o),
(400,865,cs),
(435,892,o),
(489,906,o),
(547,906,cs),
(612,906,o),
(674,895,o),
(728,870,cs),
(780,846,o),
(829,812,o),
(864,768,c),
(975,913,l),
(930,963,o),
(873,1004,o),
(804,1030,cs),
(735,1057,o),
(657,1070,o),
(571,1070,cs),
(452,1070,o),
(349,1036,o),
(271,973,cs),
(193,909,o),
(147,820,o),
(147,716,cs),
(147,651,o),
(171,597,o),
(221,554,cs),
(272,509,o),
(349,477,o),
(454,444,cs),
(532,418,o),
(585,397,o),
(618,376,cs),
(651,355,o),
(667,333,o),
(667,299,cs),
(667,248,o),
(646,207,o),
(606,177,cs),
(567,148,o),
(512,134,o),
(440,134,cs),
(379,134,o),
(312,147,o),
(254,172,cs),
(196,196,o),
(144,232,o),
(100,278,c),
(-16,138,l),
(31,83,o),
(97,42,o),
(174,13,cs),
(253,-16,o),
(337,-30,o),
(424,-30,cs)
);
}
);
width = 1033;
},
{
layerId = "51237170-216B-44E4-96C8-4B0B4EBB077A";
shapes = (
{
closed = 1;
nodes = (
(514,-30,o),
(612,1,o),
(683,63,cs),
(754,126,o),
(792,210,o),
(792,314,cs),
(792,373,o),
(769,416,o),
(725,457,cs),
(679,498,o),
(615,531,o),
(520,561,cs),
(436,587,o),
(373,616,o),
(329,647,cs),
(284,680,o),
(263,712,o),
(263,761,cs),
(263,834,o),
(295,889,o),
(341,928,c),
(388,965,o),
(459,985,o),
(535,985,cs),
(604,985,o),
(667,974,o),
(718,949,cs),
(770,924,o),
(813,888,o),
(842,840,c),
(914,917,l),
(873,969,o),
(825,1008,o),
(764,1033,c),
(705,1059,o),
(638,1070,o),
(559,1070,cs),
(449,1070,o),
(355,1037,o),
(284,977,cs),
(214,918,o),
(175,833,o),
(175,744,cs),
(175,686,o),
(195,639,o),
(240,598,cs),
(284,557,o),
(353,527,o),
(450,491,cs),
(539,457,o),
(601,426,o),
(642,397,cs),
(684,367,o),
(705,335,o),
(705,287,cs),
(705,213,o),
(674,154,o),
(622,114,cs),
(570,73,o),
(497,55,o),
(404,55,cs),
(338,55,o),
(272,68,o),
(219,91,c),
(164,117,o),
(121,153,o),
(88,202,c),
(9,132,l),
(43,83,o),
(96,43,o),
(165,14,cs),
(235,-15,o),
(313,-30,o),
(399,-30,cs)
);
}
);
width = 998;
}
);
leftKerningGroup = _s2;
rightKerningGroup = _s;
unicode = 115;
},
{
glyphname = t;
layers = (
{
layerId = "6FE47AEA-F74C-4003-B51F-DE39BA7C9A54";
shapes = (
{
closed = 1;
nodes = (
(596,-30,o),
(679,-11,o),
(744,18,c),
(783,339,l),
(743,323,o),
(705,314,o),
(665,314,cs),
(622,314,o),
(593,327,o),
(578,347,cs),
(563,368,o),
(565,401,o),
(574,438,c),
(655,733,l),
(874,733,l),
(955,1040,l),
(736,1040,l),
(828,1384,l),
(410,1285,l),
(165,376,ls),
(131,249,o),
(148,149,o),
(208,78,cs),
(268,8,o),
(367,-30,o),
(504,-30,cs)
);
},
{
closed = 1;
nodes = (
(294,733,l),
(374,1040,l),
(157,1040,l),
(76,733,l)
);
}
);
width = 929;
},
{
layerId = "12ED6207-3C14-4312-BF04-326F9D0146DE";
shapes = (
{
closed = 1;
nodes = (
(556,-31,o),
(625,-20,o),
(679,6,c),
(684,182,l),
(647,167,o),
(608,157,o),
(561,157,cs),
(494,157,o),
(452,177,o),
(433,213,cs),
(414,248,o),
(418,302,o),
(436,367,cs),
(571,868,l),
(871,868,l),
(916,1040,l),
(616,1040,l),
(702,1360,l),
(492,1308,l),
(219,318,ls),
(188,207,o),
(199,122,o),
(247,62,cs),
(295,1,o),
(375,-31,o),
(490,-31,cs)
);
},
{
closed = 1;
nodes = (
(396,868,l),
(441,1040,l),
(176,1040,l),
(131,868,l)
);
}
);
width = 901;
},
{
layerId = "51237170-216B-44E4-96C8-4B0B4EBB077A";
shapes = (
{
closed = 1;
nodes = (
(531,-32,o),
(589,-26,o),
(635,-2,c),
(618,77,l),
(583,62,o),
(544,52,o),
(492,52,cs),
(409,52,o),
(358,76,o),
(337,124,c),
(315,169,o),
(320,236,o),
(345,320,c),
(515,956,l),
(869,956,l),
(891,1040,l),
(537,1040,l),
(619,1344,l),
(530,1324,l),
(244,279,ls),
(217,179,o),
(234,103,o),
(272,50,c),
(313,-3,o),
(381,-32,o),
(480,-32,cs)
);
},
{
closed = 1;
nodes = (
(463,956,l),
(485,1040,l),
(188,1040,l),
(167,956,l)
);
}
);
width = 882;
}
);
leftKerningGroup = _t2;
rightKerningGroup = _t;
unicode = 116;
},
{
glyphname = u;
layers = (
{
layerId = "6FE47AEA-F74C-4003-B51F-DE39BA7C9A54";
shapes = (
{
closed = 1;
nodes = (
(485,-30,o),
(556,-8,o),
(616,24,cs),
(676,55,o),
(721,100,o),
(758,146,c),
(721,0,l),
(1056,0,l),
(1336,1040,l),
(942,1040,l),
(792,481,ls),
(778,431,o),
(755,390,o),
(722,364,c),
(688,339,o),
(646,325,o),
(596,325,cs),
(546,325,o),
(518,338,o),
(505,364,c),
(491,389,o),
(494,429,o),
(503,480,c),
(654,1040,l),
(260,1040,l),
(96,426,ls),
(59,283,o),
(73,167,o),
(125,91,cs),
(177,14,o),
(272,-30,o),
(396,-30,cs)
);
}
);
width = 1324;
},
{
layerId = "12ED6207-3C14-4312-BF04-326F9D0146DE";
shapes = (
{
closed = 1;
nodes = (
(506,-31,o),
(570,-17,o),
(635,11,cs),
(698,39,o),
(755,80,o),
(805,134,c),
(771,0,l),
(958,0,l),
(1237,1040,l),
(1031,1040,l),
(870,440,ls),
(846,350,o),
(801,276,o),
(739,230,cs),
(678,183,o),
(609,157,o),
(534,157,cs),
(455,157,o),
(396,179,o),
(361,221,cs),
(326,262,o),
(315,328,o),
(333,409,c),
(502,1040,l),
(297,1040,l),
(117,366,ls),
(87,248,o),
(107,148,o),
(166,79,cs),
(224,10,o),
(317,-31,o),
(434,-31,cs)
);
}
);
width = 1264;
},
{
layerId = "51237170-216B-44E4-96C8-4B0B4EBB077A";
shapes = (
{
closed = 1;
nodes = (
(519,-32,o),
(580,-23,o),
(647,2,cs),
(713,27,o),
(776,67,o),
(836,126,c),
(805,0,l),
(892,0,l),
(1171,1040,l),
(1091,1040,l),
(923,413,ls),
(890,296,o),
(832,201,o),
(751,141,c),
(672,78,o),
(585,44,o),
(492,44,cs),
(394,44,o),
(314,72,o),
(265,125,cs),
(215,178,o),
(196,259,o),
(219,361,c),
(400,1040,l),
(321,1040,l),
(130,326,l),
(105,225,o),
(129,135,o),
(191,71,cs),
(255,7,o),
(346,-32,o),
(458,-32,cs)
);
}
);
width = 1223;
}
);
leftKerningGroup = _u2;
rightKerningGroup = _u;
unicode = 117;
},
{
glyphname = v;
layers = (
{
layerId = "6FE47AEA-F74C-4003-B51F-DE39BA7C9A54";
shapes = (
{
closed = 1;
nodes = (
(686,0,l),
(1304,1040,l),
(875,1040,l),
(467,246,l),
(561,228,l),
(564,1040,l),
(152,1040,l),
(226,0,l)
);
}
);
width = 1175;
},
{
layerId = "12ED6207-3C14-4312-BF04-326F9D0146DE";
shapes = (
{
closed = 1;
nodes = (
(523,0,l),
(1189,1040,l),
(956,1040,l),
(411,140,l),
(465,130,l),
(398,1040,l),
(177,1040,l),
(288,0,l)
);
}
);
width = 1086;
},
{
layerId = "51237170-216B-44E4-96C8-4B0B4EBB077A";
shapes = (
{
closed = 1;
nodes = (
(414,0,l),
(1112,1040,l),
(1010,1040,l),
(373,70,l),
(401,66,l),
(287,1040,l),
(193,1040,l),
(329,0,l)
);
}
);
width = 1026;
}
);
leftKerningGroup = _v2;
rightKerningGroup = _v;
unicode = 118;
},
{
glyphname = w;
layers = (
{
layerId = "6FE47AEA-F74C-4003-B51F-DE39BA7C9A54";
shapes = (
{
closed = 1;
nodes = (
(559,0,l),
(871,552,l),
(870,0,l),
(1254,0,l),
(1847,1040,l),
(1459,1040,l),
(1174,468,l),
(1170,1040,l),
(817,1040,l),
(493,461,l),
(512,1040,l),
(148,1040,l),
(170,0,l)
);
}
);
width = 1714;
},
{
layerId = "12ED6207-3C14-4312-BF04-326F9D0146DE";
shapes = (
{
closed = 1;
nodes = (
(439,0,l),
(898,772,l),
(927,0,l),
(1141,0,l),
(1758,1040,l),
(1548,1040,l),
(1093,249,l),
(1072,1040,l),
(867,1040,l),
(393,244,l),
(374,1040,l),
(173,1040,l),
(221,0,l)
);
}
);
width = 1651;
},
{
layerId = "51237170-216B-44E4-96C8-4B0B4EBB077A";
shapes = (
{
closed = 1;
nodes = (
(360,0,l),
(914,918,l),
(965,0,l),
(1066,0,l),
(1698,1040,l),
(1608,1040,l),
(1039,104,l),
(1006,1040,l),
(901,1040,l),
(327,99,l),
(283,1040,l),
(189,1040,l),
(256,0,l)
);
}
);
width = 1609;
}
);
leftKerningGroup = _v2;
rightKerningGroup = _v;
unicode = 119;
},
{
glyphname = x;
layers = (
{
layerId = "6FE47AEA-F74C-4003-B51F-DE39BA7C9A54";
shapes = (
{
closed = 1;
nodes = (
(379,0,l),
(598,253,l),
(693,0,l),
(1174,0,l),
(935,494,l),
(1427,1040,l),
(913,1040,l),
(718,773,l),
(642,1040,l),
(170,1040,l),
(389,527,l),
(-123,2,l)
);
}
);
width = 1332;
},
{
layerId = "12ED6207-3C14-4312-BF04-326F9D0146DE";
shapes = (
{
closed = 1;
nodes = (
(153,1,l),
(514,384,l),
(674,0,l),
(925,0,l),
(687,522,l),
(1170,1040,l),
(906,1040,l),
(582,674,l),
(435,1040,l),
(190,1040,l),
(414,535,l),
(-109,2,l)
);
}
);
width = 1095;
},
{
layerId = "51237170-216B-44E4-96C8-4B0B4EBB077A";
shapes = (
{
closed = 1;
nodes = (
(3,1,l),
(458,471,l),
(662,0,l),
(760,0,l),
(522,541,l),
(998,1040,l),
(902,1040,l),
(491,608,l),
(297,1040,l),
(203,1040,l),
(430,541,l),
(-100,1,l)
);
}
);
width = 937;
}
);
leftKerningGroup = _x2;
rightKerningGroup = _x;
unicode = 120;
},
{
glyphname = y;
layers = (
{
layerId = "6FE47AEA-F74C-4003-B51F-DE39BA7C9A54";
shapes = (
{
closed = 1;
nodes = (
(215,-450,o),
(306,-431,o),
(394,-379,cs),
(482,-328,o),
(565,-248,o),
(641,-128,cs),
(1371,1040,l),
(927,1040,l),
(582,395,l),
(561,1040,l),
(143,1040,l),
(267,26,l),
(241,-33,l),
(227,-57,o),
(207,-71,o),
(186,-80,cs),
(164,-90,o),
(139,-94,o),
(113,-94,cs),
(61,-94,o),
(6,-76,o),
(-42,-51,c),
(-203,-368,l),
(-162,-396,o),
(-111,-415,o),
(-55,-430,cs),
(0,-445,o),
(64,-450,o),
(124,-450,cs)
);
}
);
width = 1231;
},
{
layerId = "12ED6207-3C14-4312-BF04-326F9D0146DE";
shapes = (
{
closed = 1;
nodes = (
(141,-450,o),
(208,-435,o),
(275,-390,cs),
(341,-345,o),
(407,-277,o),
(472,-171,cs),
(1215,1040,l),
(985,1040,l),
(482,186,l),
(396,1040,l),
(176,1040,l),
(309,-41,l),
(265,-128,l),
(240,-172,o),
(211,-205,o),
(180,-226,cs),
(148,-248,o),
(111,-260,o),
(67,-260,cs),
(8,-260,o),
(-55,-239,o),
(-100,-193,c),
(-190,-365,l),
(-148,-402,o),
(-108,-422,o),
(-64,-436,cs),
(-21,-449,o),
(25,-450,o),
(68,-450,cs)
);
}
);
width = 1102;
},
{
layerId = "51237170-216B-44E4-96C8-4B0B4EBB077A";
shapes = (
{
closed = 1;
nodes = (
(91,-450,o),
(144,-438,o),
(196,-397,cs),
(247,-357,o),
(300,-296,o),
(359,-199,cs),
(1110,1040,l),
(1024,1040,l),
(415,48,l),
(286,1040,l),
(197,1040,l),
(337,-85,l),
(281,-191,l),
(248,-248,o),
(213,-293,o),
(176,-324,c),
(138,-353,o),
(92,-371,o),
(35,-371,cs),
(-27,-371,o),
(-95,-347,o),
(-138,-287,c),
(-182,-363,l),
(-139,-405,o),
(-105,-426,o),
(-70,-439,c),
(-34,-451,o),
(0,-450,o),
(30,-450,cs)
);
}
);
width = 1016;
}
);
leftKerningGroup = _y;
rightKerningGroup = _v;
unicode = 121;
},
{
glyphname = z;
layers = (
{
layerId = "6FE47AEA-F74C-4003-B51F-DE39BA7C9A54";
shapes = (
{
closed = 1;
nodes = (
(849,0,l),
(941,344,l),
(570,344,l),
(1053,785,l),
(1121,1040,l),
(239,1040,l),
(147,696,l),
(522,696,l),
(10,259,l),
(-58,0,l)
);
}
);
width = 1068;
},
{
layerId = "12ED6207-3C14-4312-BF04-326F9D0146DE";
shapes = (
{
closed = 1;
nodes = (
(781,0,l),
(830,184,l),
(283,184,l),
(1013,888,l),
(1053,1040,l),
(251,1040,l),
(201,856,l),
(739,856,l),
(0,154,l),
(-39,0,l)
);
}
);
width = 1021;
},
{
layerId = "51237170-216B-44E4-96C8-4B0B4EBB077A";
shapes = (
{
closed = 1;
nodes = (
(736,0,l),
(757,77,l),
(91,77,l),
(988,957,l),
(1008,1040,l),
(258,1040,l),
(237,963,l),
(884,963,l),
(-6,84,l),
(-27,0,l)
);
}
);
width = 988;
}
);
leftKerningGroup = _z2;
rightKerningGroup = _z;
unicode = 122;
},
{
glyphname = braceleft;
layers = (
{
layerId = "6FE47AEA-F74C-4003-B51F-DE39BA7C9A54";
shapes = (
{
closed = 1;
nodes = (
(520,36,l),
(459,35,o),
(418,42,o),
(398,63,cs),
(378,83,o),
(379,116,o),
(399,160,cs),
(530,442,l),
(558,507,o),
(564,563,o),
(547,605,cs),
(530,648,o),
(489,677,o),
(426,690,c),
(426,692,l),
(494,703,o),
(550,733,o),
(590,776,cs),
(629,818,o),
(653,873,o),
(658,938,c),
(685,1220,ls),
(690,1268,o),
(705,1301,o),
(737,1321,cs),
(768,1340,o),
(812,1348,o),
(872,1344,c),
(943,1606,l),
(762,1622,o),
(627,1595,o),
(530,1528,cs),
(434,1461,o),
(382,1352,o),
(366,1193,cs),
(344,947,ls),
(339,902,o),
(325,870,o),
(294,850,cs),
(262,830,o),
(213,822,o),
(136,822,c),
(66,560,l),
(143,560,o),
(189,552,o),
(210,533,c),
(229,514,o),
(228,484,o),
(208,435,c),
(95,185,ls),
(27,30,o),
(21,-79,o),
(82,-146,cs),
(141,-213,o),
(262,-239,o),
(452,-226,c)
);
}
);
width = 730;
},
{
layerId = "12ED6207-3C14-4312-BF04-326F9D0146DE";
shapes = (
{
closed = 1;
nodes = (
(408,-78,l),
(338,-81,o),
(296,-77,o),
(273,-54,cs),
(251,-32,o),
(253,3,o),
(273,53,cs),
(436,456,ls),
(464,526,o),
(473,580,o),
(462,618,cs),
(450,656,o),
(416,678,o),
(362,690,c),
(362,692,l),
(421,703,o),
(468,727,o),
(500,766,cs),
(532,804,o),
(553,856,o),
(560,925,c),
(617,1327,ls),
(625,1380,o),
(641,1416,o),
(674,1436,cs),
(707,1456,o),
(755,1464,o),
(821,1458,c),
(862,1605,l),
(739,1622,o),
(641,1602,o),
(571,1555,cs),
(499,1507,o),
(457,1430,o),
(441,1322,c),
(389,917,l),
(380,856,o),
(367,819,o),
(336,796,cs),
(305,773,o),
(257,765,o),
(176,765,c),
(137,618,l),
(218,618,o),
(263,611,o),
(281,589,cs),
(299,567,o),
(293,530,o),
(267,465,cs),
(99,54,ls),
(57,-49,o),
(58,-126,o),
(104,-174,cs),
(149,-221,o),
(236,-239,o),
(371,-225,c)
);
}
);
width = 686;
},
{
layerId = "51237170-216B-44E4-96C8-4B0B4EBB077A";
shapes = (
{
closed = 1;
nodes = (
(333,-153,l),
(259,-158,o),
(214,-155,o),
(191,-131,c),
(167,-108,o),
(170,-72,o),
(190,-17,cs),
(374,465,ls),
(402,538,o),
(413,590,o),
(405,626,cs),
(397,660,o),
(368,679,o),
(318,690,c),
(318,692,l),
(373,703,o),
(413,723,o),
(440,759,c),
(468,794,o),
(486,844,o),
(496,917,c),
(572,1397,ls),
(581,1455,o),
(599,1491,o),
(632,1512,cs),
(665,1533,o),
(716,1540,o),
(786,1533,c),
(807,1604,l),
(724,1621,o),
(651,1606,o),
(596,1571,c),
(541,1538,o),
(507,1481,o),
(492,1408,c),
(418,898,ls),
(407,826,o),
(395,784,o),
(364,760,c),
(333,734,o),
(286,727,o),
(201,727,c),
(184,657,l),
(269,657,o),
(313,650,o),
(329,627,cs),
(346,602,o),
(335,561,o),
(306,484,cs),
(102,-33,ls),
(76,-102,o),
(82,-158,o),
(119,-192,c),
(155,-227,o),
(220,-239,o),
(316,-224,c)
);
}
);
width = 657;
}
);
rightKerningGroup = _parenleft;
unicode = 123;
},
{
glyphname = bar;
layers = (
{
layerId = "6FE47AEA-F74C-4003-B51F-DE39BA7C9A54";
shapes = (
{
closed = 1;
nodes = (
(316,-220,l),
(807,1600,l),
(492,1600,l),
(1,-220,l)
);
}
);
width = 715;
},
{
layerId = "12ED6207-3C14-4312-BF04-326F9D0146DE";
shapes = (
{
closed = 1;
nodes = (
(174,-220,l),
(665,1600,l),
(499,1600,l),
(8,-220,l)
);
}
);
width = 566;
},
{
layerId = "51237170-216B-44E4-96C8-4B0B4EBB077A";
shapes = (
{
closed = 1;
nodes = (
(79,-220,l),
(570,1600,l),
(503,1600,l),
(12,-220,l)
);
}
);
width = 467;
}
);
leftKerningGroup = _bar2;
rightKerningGroup = _bar;
unicode = 124;
},
{
glyphname = braceright;
layers = (
{
layerId = "6FE47AEA-F74C-4003-B51F-DE39BA7C9A54";
shapes = (
{
closed = 1;
nodes = (
(-133,-226,l),
(48,-239,o),
(185,-213,o),
(281,-146,cs),
(377,-79,o),
(430,30,o),
(445,185,cs),
(468,435,ls),
(472,484,o),
(487,514,o),
(518,533,cs),
(550,552,o),
(599,560,o),
(676,560,c),
(747,822,l),
(671,822,o),
(627,830,o),
(604,850,cs),
(582,870,o),
(586,902,o),
(607,947,c),
(715,1193,ls),
(786,1352,o),
(791,1461,o),
(731,1528,cs),
(672,1595,o),
(551,1622,o),
(362,1606,c),
(291,1344,l),
(352,1348,o),
(394,1340,o),
(414,1321,cs),
(434,1301,o),
(432,1268,o),
(412,1220,c),
(286,938,l),
(225,809,o),
(262,715,o),
(388,692,c),
(385,690,l),
(317,677,o),
(259,648,o),
(219,605,cs),
(179,563,o),
(153,507,o),
(148,442,cs),
(125,160,ls),
(121,116,o),
(107,83,o),
(76,63,cs),
(45,42,o),
(-1,35,o),
(-61,36,c)
);
}
);
width = 730;
},
{
layerId = "12ED6207-3C14-4312-BF04-326F9D0146DE";
shapes = (
{
closed = 1;
nodes = (
(-79,-225,l),
(45,-239,o),
(144,-221,o),
(215,-174,cs),
(286,-126,o),
(329,-49,o),
(342,54,cs),
(396,465,l),
(402,530,o),
(416,567,o),
(447,589,cs),
(478,611,o),
(526,618,o),
(608,618,c),
(648,765,l),
(567,765,o),
(525,773,o),
(504,796,cs),
(484,819,o),
(492,856,o),
(517,917,cs),
(681,1322,ls),
(726,1430,o),
(723,1507,o),
(677,1555,cs),
(632,1602,o),
(544,1622,o),
(413,1605,c),
(374,1458,l),
(444,1464,o),
(490,1456,o),
(510,1436,cs),
(531,1416,o),
(529,1380,o),
(509,1327,c),
(348,925,l),
(289,787,o),
(315,713,o),
(423,692,c),
(420,690,l),
(360,678,o),
(313,656,o),
(281,618,cs),
(248,580,o),
(228,526,o),
(220,456,c),
(166,53,ls),
(159,3,o),
(143,-32,o),
(110,-54,cs),
(76,-77,o),
(27,-81,o),
(-39,-78,c)
);
}
);
width = 686;
},
{
layerId = "51237170-216B-44E4-96C8-4B0B4EBB077A";
shapes = (
{
closed = 1;
nodes = (
(-41,-224,l),
(42,-239,o),
(116,-227,o),
(171,-192,cs),
(226,-158,o),
(260,-102,o),
(273,-33,c),
(348,484,l),
(355,561,o),
(368,602,o),
(399,627,c),
(430,650,o),
(476,657,o),
(561,657,c),
(582,727,l),
(497,727,o),
(456,734,o),
(438,760,cs),
(420,784,o),
(429,826,o),
(457,898,cs),
(659,1408,l),
(685,1481,o),
(676,1538,o),
(641,1571,cs),
(605,1606,o),
(538,1621,o),
(448,1604,c),
(429,1533,l),
(504,1540,o),
(553,1533,o),
(574,1512,cs),
(595,1491,o),
(593,1455,o),
(573,1397,c),
(390,917,l),
(331,772,o),
(350,711,o),
(446,692,c),
(443,690,l),
(388,679,o),
(348,660,o),
(322,626,cs),
(295,590,o),
(278,538,o),
(268,465,c),
(193,-17,l),
(183,-72,o),
(166,-108,o),
(131,-131,cs),
(95,-155,o),
(46,-158,o),
(-24,-153,c)
);
}
);
width = 657;
}
);
leftKerningGroup = _parenright;
unicode = 125;
},
{
glyphname = asciitilde;
layers = (
{
layerId = "6FE47AEA-F74C-4003-B51F-DE39BA7C9A54";
shapes = (
{
closed = 1;
nodes = (
(1052,462,o),
(1177,520,o),
(1293,640,c),
(1209,871,l),
(1121,776,o),
(1038,730,o),
(954,730,cs),
(890,730,o),
(811,767,o),
(726,804,cs),
(642,841,o),
(551,878,o),
(462,878,cs),
(342,878,o),
(224,817,o),
(111,700,c),
(195,468,l),
(279,564,o),
(364,610,o),
(449,610,cs),
(520,610,o),
(584,573,o),
(660,536,cs),
(735,499,o),
(817,462,o),
(928,462,cs)
);
}
);
width = 1296;
},
{
layerId = "12ED6207-3C14-4312-BF04-326F9D0146DE";
shapes = (
{
closed = 1;
nodes = (
(1021,516,o),
(1128,562,o),
(1230,669,c),
(1182,796,l),
(1098,708,o),
(1015,665,o),
(940,665,cs),
(876,665,o),
(808,702,o),
(733,739,cs),
(656,776,o),
(577,813,o),
(488,813,cs),
(387,813,o),
(282,765,o),
(180,657,c),
(236,539,l),
(311,619,o),
(398,664,o),
(474,664,cs),
(538,664,o),
(604,627,o),
(677,590,cs),
(749,553,o),
(827,516,o),
(922,516,cs)
);
}
);
width = 1296;
},
{
layerId = "51237170-216B-44E4-96C8-4B0B4EBB077A";
shapes = (
{
closed = 1;
nodes = (
(1000,552,o),
(1094,590,o),
(1188,688,c),
(1163,745,l),
(1083,663,o),
(1000,621,o),
(930,621,cs),
(866,621,o),
(806,642,o),
(736,679,cs),
(666,716,o),
(593,769,o),
(504,769,cs),
(416,769,o),
(320,730,o),
(225,629,c),
(261,586,l),
(332,655,o),
(420,700,o),
(490,700,cs),
(550,700,o),
(616,663,o),
(687,626,cs),
(759,589,o),
(833,552,o),
(918,552,cs)
);
}
);
width = 1296;
}
);
leftKerningGroup = _plus2;
rightKerningGroup = _plus;
unicode = 126;
},
{
color = (153, 255, 154, 255);
glyphname = exclamdown;
layers = (
{
layerId = "6FE47AEA-F74C-4003-B51F-DE39BA7C9A54";
shapes = (
{
closed = 1;
nodes = (
(364,-400,l),
(544,505,l),
(186,505,l),
(-119,-400,l)
);
},
{
closed = 1;
nodes = (
(568,629,o),
(683,738,o),
(683,884,cs),
(683,1002,o),
(585,1069,o),
(475,1069,cs),
(328,1069,o),
(214,965,o),
(214,815,cs),
(214,697,o),
(313,629,o),
(424,629,cs)
);
}
);
width = 718;
},
{
layerId = "12ED6207-3C14-4312-BF04-326F9D0146DE";
shapes = (
{
closed = 1;
nodes = (
(208,-400,l),
(425,543,l),
(247,543,l),
(-38,-400,l)
);
},
{
closed = 1;
nodes = (
(502,763,o),
(582,833,o),
(582,924,cs),
(582,996,o),
(519,1042,o),
(451,1042,cs),
(357,1042,o),
(282,978,o),
(282,882,cs),
(282,810,o),
(345,763,o),
(413,763,cs)
);
}
);
width = 664;
},
{
layerId = "51237170-216B-44E4-96C8-4B0B4EBB077A";
shapes = (
{
closed = 1;
nodes = (
(107,-400,l),
(343,524,l),
(283,524,l),
(22,-400,l)
);
},
{
closed = 1;
nodes = (
(455,807,o),
(510,849,o),
(510,905,cs),
(510,948,o),
(472,979,o),
(430,979,cs),
(373,979,o),
(323,940,o),
(323,881,cs),
(323,838,o),
(361,807,o),
(403,807,cs)
);
}
);
width = 628;
}
);
leftKerningGroup = _colon2;
rightKerningGroup = _colon;
unicode = 161;
},
{
glyphname = cent;
layers = (
{
layerId = "6FE47AEA-F74C-4003-B51F-DE39BA7C9A54";
shapes = (
{
closed = 1;
nodes = (
(618,-160,l),
(656,1,l),
(746,5,o),
(843,23,o),
(919,65,c),
(906,359,l),
(849,330,o),
(809,321,o),
(747,316,c),
(847,701,l),
(878,693,o),
(910,680,o),
(941,653,c),
(1123,889,l),
(1081,938,o),
(1008,985,o),
(924,1007,c),
(976,1200,l),
(734,1200,l),
(693,1037,l),
(403,1012,o),
(162,760,o),
(157,439,cs),
(153,243,o),
(254,88,o),
(425,30,c),
(375,-160,l)
);
},
{
closed = 1;
nodes = (
(508,346,l),
(464,371,o),
(441,421,o),
(443,486,c),
(444,578,o),
(507,707,o),
(603,712,c)
);
}
);
width = 1200;
},
{
layerId = "12ED6207-3C14-4312-BF04-326F9D0146DE";
shapes = (
{
closed = 1;
nodes = (
(562,-169,l),
(606,1,l),
(726,2,o),
(827,30,o),
(929,96,c),
(879,244,l),
(807,189,o),
(738,172,o),
(650,171,c),
(832,852,l),
(886,843,o),
(929,819,o),
(970,779,c),
(1089,903,l),
(1033,964,o),
(965,1002,o),
(874,1019,c),
(926,1209,l),
(777,1209,l),
(734,1033,l),
(434,1021,o),
(178,768,o),
(173,434,cs),
(169,229,o),
(282,72,o),
(464,20,c),
(413,-169,l)
);
},
{
closed = 1;
nodes = (
(507,190,l),
(393,226,o),
(337,316,o),
(339,450,cs),
(343,670,o),
(473,859,o),
(685,862,c)
);
}
);
width = 1200;
},
{
layerId = "51237170-216B-44E4-96C8-4B0B4EBB077A";
shapes = (
{
closed = 1;
nodes = (
(524,-175,l),
(572,0,l),
(711,-1,o),
(817,33,o),
(935,115,c),
(860,168,l),
(779,95,o),
(690,73,o),
(586,73,c),
(822,953,l),
(892,942,o),
(941,911,o),
(989,861,c),
(1066,912,l),
(999,980,o),
(937,1012,o),
(840,1026,c),
(892,1215,l),
(805,1215,l),
(761,1030,l),
(453,1027,o),
(188,774,o),
(183,431,cs),
(179,219,o),
(301,60,o),
(489,13,c),
(438,-175,l)
);
},
{
closed = 1;
nodes = (
(506,85,l),
(346,130,o),
(267,246,o),
(270,426,cs),
(274,731,o),
(450,960,o),
(739,961,c)
);
}
);
width = 1200;
}
);
unicode = 162;
},
{
glyphname = sterling;
layers = (
{
layerId = "6FE47AEA-F74C-4003-B51F-DE39BA7C9A54";
shapes = (
{
closed = 1;
nodes = (
(1037,0,l),
(1118,301,l),
(576,301,l),
(633,376,o),
(678,476,o),
(680,574,cs),
(681,636,o),
(688,698,o),
(694,761,c),
(695,810,o),
(707,862,o),
(707,913,c),
(710,1040,o),
(763,1161,o),
(911,1161,cs),
(993,1161,o),
(1075,1133,o),
(1162,1048,c),
(1348,1287,l),
(1267,1417,o),
(1058,1466,o),
(922,1466,cs),
(636,1466,o),
(366,1293,o),
(359,953,cs),
(358,880,o),
(360,808,o),
(360,735,cs),
(361,660,o),
(361,589,o),
(360,544,cs),
(357,337,o),
(217,311,o),
(60,298,c),
(-15,0,l)
);
},
{
closed = 1;
nodes = (
(992,578,l),
(1057,831,l),
(185,831,l),
(119,578,l)
);
}
);
width = 1200;
},
{
layerId = "12ED6207-3C14-4312-BF04-326F9D0146DE";
shapes = (
{
closed = 1;
nodes = (
(996,0,l),
(1041,166,l),
(405,166,l),
(524,256,o),
(585,362,o),
(587,520,cs),
(589,596,o),
(595,674,o),
(604,748,c),
(609,822,o),
(617,893,o),
(619,967,cs),
(622,1156,o),
(717,1301,o),
(905,1301,cs),
(1016,1301,o),
(1105,1264,o),
(1188,1174,c),
(1297,1309,l),
(1208,1425,o),
(1048,1470,o),
(914,1470,cs),
(650,1470,o),
(437,1286,o),
(432,989,cs),
(430,910,o),
(431,832,o),
(428,752,cs),
(425,674,o),
(422,596,o),
(421,525,cs),
(417,286,o),
(278,215,o),
(87,167,c),
(43,0,l)
);
},
{
closed = 1;
nodes = (
(1013,632,l),
(1052,781,l),
(229,781,l),
(190,632,l)
);
}
);
width = 1200;
},
{
layerId = "51237170-216B-44E4-96C8-4B0B4EBB077A";
shapes = (
{
closed = 1;
nodes = (
(968,0,l),
(989,78,l),
(291,78,l),
(449,177,o),
(523,288,o),
(526,484,cs),
(528,571,o),
(534,657,o),
(544,740,c),
(551,828,o),
(558,915,o),
(561,1004,c),
(564,1230,o),
(687,1392,o),
(902,1392,cs),
(1031,1392,o),
(1125,1352,o),
(1205,1258,c),
(1261,1324,l),
(1169,1429,o),
(1040,1472,o),
(908,1472,cs),
(660,1472,o),
(483,1283,o),
(478,1013,c),
(478,929,o),
(476,847,o),
(471,763,cs),
(467,682,o),
(461,600,o),
(460,512,cs),
(455,251,o),
(318,152,o),
(103,82,c),
(83,0,l)
);
},
{
closed = 1;
nodes = (
(1028,668,l),
(1048,747,l),
(257,747,l),
(239,668,l)
);
}
);
width = 1200;
}
);
unicode = 163;
},
{
glyphname = currency;
layers = (
{
layerId = "6FE47AEA-F74C-4003-B51F-DE39BA7C9A54";
shapes = (
{
closed = 1;
nodes = (
(394,220,l),
(449,184,o),
(508,171,o),
(578,171,cs),
(646,171,o),
(702,189,o),
(764,223,c),
(887,65,l),
(1102,263,l),
(985,416,l),
(1037,497,o),
(1064,573,o),
(1066,674,cs),
(1067,726,o),
(1058,782,o),
(1039,830,c),
(1203,982,l),
(1049,1179,l),
(883,1025,l),
(829,1060,o),
(770,1073,o),
(700,1073,cs),
(634,1073,o),
(574,1054,o),
(513,1021,c),
(388,1179,l),
(175,982,l),
(292,831,l),
(247,757,o),
(214,672,o),
(212,569,cs),
(211,519,o),
(216,466,o),
(234,417,c),
(74,264,l),
(228,65,l)
);
},
{
closed = 1;
nodes = (
(539,453,o),
(482,510,o),
(483,596,cs),
(485,700,o),
(562,789,o),
(659,789,cs),
(740,789,o),
(795,736,o),
(793,645,cs),
(791,542,o),
(715,453,o),
(617,453,cs)
);
}
);
width = 1200;
},
{
layerId = "12ED6207-3C14-4312-BF04-326F9D0146DE";
shapes = (
{
closed = 1;
nodes = (
(388,280,l),
(444,231,o),
(508,209,o),
(586,209,cs),
(661,209,o),
(733,232,o),
(803,282,c),
(924,126,l),
(1047,240,l),
(929,392,l),
(995,471,o),
(1034,566,o),
(1036,671,cs),
(1037,733,o),
(1025,794,o),
(994,849,c),
(1157,1000,l),
(1065,1117,l),
(903,966,l),
(849,1013,o),
(783,1033,o),
(705,1033,cs),
(631,1033,o),
(559,1011,o),
(486,960,c),
(365,1117,l),
(243,1004,l),
(362,852,l),
(300,776,o),
(259,683,o),
(257,568,cs),
(256,509,o),
(265,450,o),
(296,395,c),
(133,244,l),
(224,126,l)
);
},
{
closed = 1;
nodes = (
(496,365,o),
(405,453,o),
(408,586,cs),
(411,743,o),
(535,877,o),
(680,877,cs),
(802,877,o),
(885,793,o),
(883,658,cs),
(880,499,o),
(763,365,o),
(615,365,cs)
);
}
);
width = 1200;
},
{
layerId = "51237170-216B-44E4-96C8-4B0B4EBB077A";
shapes = (
{
closed = 1;
nodes = (
(382,320,l),
(440,263,o),
(509,234,o),
(592,234,cs),
(671,234,o),
(752,260,o),
(828,321,c),
(948,167,l),
(1009,225,l),
(891,376,l),
(967,453,o),
(1013,560,o),
(1015,668,cs),
(1016,737,o),
(1004,801,o),
(964,861,c),
(1127,1012,l),
(1075,1075,l),
(916,926,l),
(861,981,o),
(791,1008,o),
(708,1008,cs),
(629,1008,o),
(547,982,o),
(468,919,c),
(349,1075,l),
(290,1019,l),
(407,865,l),
(335,788,o),
(288,689,o),
(286,567,cs),
(285,502,o),
(298,438,o),
(338,380,c),
(173,229,l),
(221,167,l)
);
},
{
closed = 1;
nodes = (
(467,306,o),
(354,414,o),
(357,579,cs),
(360,771,o),
(516,936,o),
(693,936,cs),
(844,936,o),
(945,831,o),
(943,666,cs),
(939,471,o),
(796,306,o),
(613,306,cs)
);
}
);
width = 1200;
}
);
unicode = 164;
},
{
glyphname = yen;
layers = (
{
layerId = "6FE47AEA-F74C-4003-B51F-DE39BA7C9A54";
shapes = (
{
closed = 1;
nodes = (
(645,0,l),
(711,255,l),
(1051,255,l),
(1110,484,l),
(771,484,l),
(799,601,l),
(1144,601,l),
(1204,831,l),
(959,831,l),
(1495,1440,l),
(1100,1440,l),
(715,962,l),
(602,1440,l),
(240,1440,l),
(427,831,l),
(177,831,l),
(117,601,l),
(454,601,l),
(425,484,l),
(84,484,l),
(23,255,l),
(360,255,l),
(295,0,l)
);
}
);
width = 1200;
},
{
layerId = "12ED6207-3C14-4312-BF04-326F9D0146DE";
shapes = (
{
closed = 1;
nodes = (
(578,0,l),
(655,304,l),
(1020,304,l),
(1057,446,l),
(694,446,l),
(743,630,l),
(1106,630,l),
(1145,772,l),
(858,772,l),
(1436,1440,l),
(1223,1440,l),
(697,823,l),
(516,1440,l),
(320,1440,l),
(521,772,l),
(235,772,l),
(196,630,l),
(558,630,l),
(508,446,l),
(146,446,l),
(108,304,l),
(471,304,l),
(393,0,l)
);
}
);
width = 1200;
},
{
layerId = "51237170-216B-44E4-96C8-4B0B4EBB077A";
shapes = (
{
closed = 1;
nodes = (
(533,0,l),
(620,338,l),
(999,338,l),
(1020,422,l),
(641,422,l),
(704,649,l),
(1081,649,l),
(1105,733,l),
(789,733,l),
(1395,1440,l),
(1305,1440,l),
(685,728,l),
(458,1440,l),
(375,1440,l),
(584,733,l),
(274,733,l),
(249,649,l),
(626,649,l),
(565,422,l),
(187,422,l),
(164,338,l),
(543,338,l),
(456,0,l)
);
}
);
width = 1200;
}
);
unicode = 165;
},
{
glyphname = brokenbar;
layers = (
{
layerId = "6FE47AEA-F74C-4003-B51F-DE39BA7C9A54";
shapes = (
{
closed = 1;
nodes = (
(594,810,l),
(774,1480,l),
(459,1480,l),
(279,810,l)
);
},
{
closed = 1;
nodes = (
(349,-100,l),
(528,570,l),
(213,570,l),
(34,-100,l)
);
}
);
width = 715;
},
{
layerId = "12ED6207-3C14-4312-BF04-326F9D0146DE";
shapes = (
{
closed = 1;
nodes = (
(452,810,l),
(632,1480,l),
(466,1480,l),
(286,810,l)
);
},
{
closed = 1;
nodes = (
(208,-100,l),
(386,570,l),
(220,570,l),
(42,-100,l)
);
}
);
width = 566;
},
{
layerId = "51237170-216B-44E4-96C8-4B0B4EBB077A";
shapes = (
{
closed = 1;
nodes = (
(357,810,l),
(537,1480,l),
(470,1480,l),
(290,810,l)
);
},
{
closed = 1;
nodes = (
(113,-100,l),
(291,570,l),
(224,570,l),
(46,-100,l)
);
}
);
width = 467;
}
);
leftKerningGroup = _bar2;
rightKerningGroup = _bar;
unicode = 166;
},
{
glyphname = section;
layers = (
{
layerId = "6FE47AEA-F74C-4003-B51F-DE39BA7C9A54";
shapes = (
{
closed = 1;
nodes = (
(622,-463,o),
(763,-421,o),
(869,-341,cs),
(976,-263,o),
(1040,-146,o),
(1040,2,cs),
(1040,85,o),
(1010,151,o),
(953,207,cs),
(895,264,o),
(806,306,o),
(687,343,c),
(616,362,o),
(558,386,o),
(518,411,cs),
(478,436,o),
(455,465,o),
(455,502,cs),
(455,562,o),
(486,604,o),
(538,632,c),
(588,661,o),
(655,675,o),
(728,669,c),
(768,878,l),
(679,879,o),
(593,872,o),
(512,856,cs),
(430,838,o),
(358,813,o),
(297,777,cs),
(237,741,o),
(187,696,o),
(151,641,cs),
(115,585,o),
(97,521,o),
(97,446,cs),
(97,354,o),
(137,290,o),
(210,233,cs),
(284,175,o),
(393,131,o),
(533,89,cs),
(599,68,o),
(641,52,o),
(670,31,cs),
(698,10,o),
(708,-12,o),
(708,-36,cs),
(708,-74,o),
(685,-101,o),
(650,-121,c),
(616,-142,o),
(567,-151,o),
(517,-151,cs),
(443,-151,o),
(370,-138,o),
(300,-110,cs),
(231,-83,o),
(165,-47,o),
(113,-5,c),
(-79,-275,l),
(-16,-327,o),
(61,-375,o),
(156,-408,cs),
(251,-441,o),
(357,-463,o),
(470,-463,cs)
);
},
{
closed = 1;
nodes = (
(594,136,l),
(775,137,o),
(941,167,o),
(1065,239,cs),
(1189,308,o),
(1267,416,o),
(1267,572,cs),
(1267,658,o),
(1230,725,o),
(1159,781,cs),
(1085,837,o),
(987,879,o),
(857,917,c),
(781,941,o),
(730,960,o),
(701,980,cs),
(671,1000,o),
(658,1019,o),
(658,1044,cs),
(658,1087,o),
(680,1115,o),
(714,1134,c),
(745,1153,o),
(790,1159,o),
(836,1159,cs),
(897,1159,o),
(966,1145,o),
(1036,1119,cs),
(1106,1093,o),
(1169,1059,o),
(1217,1013,c),
(1408,1283,l),
(1346,1344,o),
(1265,1388,o),
(1174,1421,cs),
(1083,1454,o),
(982,1470,o),
(883,1470,cs),
(731,1470,o),
(594,1429,o),
(492,1351,cs),
(390,1273,o),
(327,1156,o),
(327,1008,cs),
(327,841,o),
(442,737,o),
(667,676,cs),
(749,652,o),
(810,629,o),
(850,604,cs),
(890,580,o),
(910,549,o),
(910,514,cs),
(910,451,o),
(877,408,o),
(827,381,c),
(775,350,o),
(707,339,o),
(635,344,c)
);
}
);
width = 1318;
},
{
layerId = "12ED6207-3C14-4312-BF04-326F9D0146DE";
shapes = (
{
closed = 1;
nodes = (
(568,-463,o),
(692,-424,o),
(785,-350,cs),
(878,-278,o),
(934,-173,o),
(934,-39,cs),
(934,38,o),
(906,97,o),
(856,148,c),
(803,198,o),
(724,237,o),
(624,275,c),
(546,302,o),
(480,332,o),
(435,368,cs),
(389,403,o),
(362,444,o),
(362,501,cs),
(362,588,o),
(405,651,o),
(476,695,cs),
(546,737,o),
(642,759,o),
(748,757,c),
(778,884,l),
(706,892,o),
(633,887,o),
(561,872,cs),
(487,856,o),
(424,829,o),
(367,791,c),
(310,756,o),
(264,711,o),
(229,653,c),
(192,596,o),
(176,535,o),
(176,464,cs),
(176,384,o),
(207,323,o),
(264,269,c),
(320,213,o),
(405,168,o),
(514,128,cs),
(600,96,o),
(655,67,o),
(696,37,c),
(735,4,o),
(750,-29,o),
(750,-70,cs),
(750,-142,o),
(720,-194,o),
(666,-234,cs),
(613,-274,o),
(540,-293,o),
(458,-293,cs),
(387,-293,o),
(315,-281,o),
(251,-253,cs),
(186,-226,o),
(126,-188,o),
(82,-138,c),
(-42,-285,l),
(6,-332,o),
(74,-377,o),
(156,-409,cs),
(239,-442,o),
(331,-463,o),
(432,-463,cs)
);
},
{
closed = 1;
nodes = (
(570,150,l),
(726,145,o),
(871,180,o),
(980,253,cs),
(1088,326,o),
(1158,433,o),
(1158,576,cs),
(1158,653,o),
(1127,715,o),
(1068,767,cs),
(1010,818,o),
(928,859,o),
(826,895,cs),
(743,926,o),
(680,952,o),
(637,981,cs),
(594,1011,o),
(573,1043,o),
(573,1091,cs),
(573,1160,o),
(602,1211,o),
(649,1248,cs),
(697,1284,o),
(764,1302,o),
(838,1302,cs),
(909,1302,o),
(976,1287,o),
(1040,1262,cs),
(1104,1236,o),
(1159,1201,o),
(1200,1152,c),
(1317,1301,l),
(1265,1357,o),
(1201,1397,o),
(1126,1428,c),
(1050,1457,o),
(965,1470,o),
(876,1470,cs),
(745,1470,o),
(627,1432,o),
(539,1360,cs),
(450,1289,o),
(397,1187,o),
(397,1059,cs),
(397,917,o),
(499,827,o),
(698,752,cs),
(788,720,o),
(854,691,o),
(898,660,cs),
(942,629,o),
(964,593,o),
(964,549,cs),
(964,459,o),
(923,391,o),
(857,342,cs),
(789,293,o),
(699,271,o),
(597,276,c)
);
}
);
width = 1254;
},
{
layerId = "51237170-216B-44E4-96C8-4B0B4EBB077A";
shapes = (
{
closed = 1;
nodes = (
(531,-463,o),
(643,-426,o),
(729,-356,cs),
(812,-288,o),
(864,-189,o),
(864,-64,cs),
(864,7,o),
(837,60,o),
(789,108,cs),
(741,155,o),
(669,190,o),
(582,229,c),
(497,261,o),
(428,296,o),
(379,339,cs),
(328,382,o),
(301,431,o),
(301,500,cs),
(301,604,o),
(350,684,o),
(434,736,cs),
(518,786,o),
(633,815,o),
(761,815,c),
(784,887,l),
(722,901,o),
(659,897,o),
(593,882,cs),
(527,866,o),
(467,839,o),
(414,801,c),
(359,765,o),
(317,720,o),
(281,661,cs),
(245,603,o),
(229,544,o),
(229,474,cs),
(229,403,o),
(254,344,o),
(300,291,cs),
(343,239,o),
(412,193,o),
(501,153,c),
(600,112,o),
(666,79,o),
(713,40,cs),
(759,1,o),
(779,-39,o),
(779,-93,cs),
(779,-187,o),
(742,-256,o),
(677,-308,cs),
(611,-360,o),
(521,-388,o),
(419,-388,cs),
(347,-388,o),
(279,-376,o),
(216,-347,cs),
(156,-320,o),
(100,-283,o),
(59,-227,c),
(-18,-291,l),
(21,-335,o),
(82,-378,o),
(156,-410,cs),
(231,-442,o),
(314,-463,o),
(406,-463,cs)
);
},
{
closed = 1;
nodes = (
(553,159,l),
(692,149,o),
(823,187,o),
(922,262,cs),
(1023,336,o),
(1085,443,o),
(1085,578,cs),
(1085,650,o),
(1056,709,o),
(1007,758,c),
(957,806,o),
(889,845,o),
(806,880,cs),
(718,916,o),
(644,945,o),
(594,982,c),
(543,1018,o),
(515,1060,o),
(515,1124,cs),
(515,1208,o),
(550,1274,o),
(606,1323,cs),
(663,1371,o),
(745,1397,o),
(839,1397,cs),
(915,1397,o),
(982,1382,o),
(1042,1358,c),
(1102,1332,o),
(1152,1296,o),
(1187,1243,c),
(1255,1313,l),
(1211,1365,o),
(1158,1403,o),
(1091,1431,cs),
(1027,1459,o),
(955,1470,o),
(870,1470,cs),
(755,1470,o),
(648,1435,o),
(569,1366,cs),
(490,1299,o),
(442,1207,o),
(442,1093,cs),
(442,966,o),
(539,885,o),
(718,805,c),
(814,765,o),
(882,732,o),
(930,697,cs),
(978,662,o),
(1001,622,o),
(1001,571,cs),
(1001,466,o),
(953,379,o),
(876,317,cs),
(798,254,o),
(695,225,o),
(573,230,c)
);
}
);
width = 1210;
}
);
unicode = 167;
},
{
glyphname = copyright;
layers = (
{
layerId = "6FE47AEA-F74C-4003-B51F-DE39BA7C9A54";
shapes = (
{
closed = 1;
nodes = (
(1047,-48,o),
(1230,30,o),
(1363,162,cs),
(1496,294,o),
(1576,474,o),
(1576,682,cs),
(1576,887,o),
(1496,1067,o),
(1363,1200,cs),
(1230,1333,o),
(1047,1412,o),
(838,1412,cs),
(629,1412,o),
(446,1335,o),
(313,1203,cs),
(180,1071,o),
(100,891,o),
(100,682,cs),
(100,475,o),
(181,295,o),
(314,163,cs),
(447,30,o),
(630,-48,o),
(839,-48,cs)
);
},
{
closed = 1;
nodes = (
(681,111,o),
(542,168,o),
(441,268,cs),
(339,368,o),
(276,509,o),
(276,682,cs),
(276,858,o),
(339,997,o),
(441,1098,cs),
(542,1198,o),
(685,1252,o),
(838,1252,cs),
(995,1252,o),
(1134,1198,o),
(1235,1098,cs),
(1337,997,o),
(1400,858,o),
(1400,682,cs),
(1400,509,o),
(1339,368,o),
(1237,268,cs),
(1136,168,o),
(995,111,o),
(838,111,cs)
);
},
{
closed = 1;
nodes = (
(1005,274,o),
(1103,310,o),
(1179,366,c),
(1089,534,l),
(1024,489,o),
(953,468,o),
(880,468,cs),
(806,468,o),
(747,489,o),
(706,527,cs),
(666,563,o),
(644,617,o),
(644,682,cs),
(644,748,o),
(665,802,o),
(705,839,cs),
(746,877,o),
(805,897,o),
(878,897,cs),
(958,897,o),
(1018,875,o),
(1062,831,c),
(1161,995,l),
(1087,1058,o),
(1000,1090,o),
(864,1090,cs),
(739,1090,o),
(632,1048,o),
(556,976,cs),
(479,904,o),
(434,801,o),
(434,680,cs),
(434,556,o),
(479,457,o),
(555,385,cs),
(631,314,o),
(737,274,o),
(862,274,cs)
);
}
);
width = 1676;
},
{
layerId = "12ED6207-3C14-4312-BF04-326F9D0146DE";
shapes = (
{
closed = 1;
nodes = (
(1050,-35,o),
(1232,43,o),
(1365,175,cs),
(1497,307,o),
(1576,487,o),
(1576,695,cs),
(1576,901,o),
(1497,1081,o),
(1365,1214,cs),
(1232,1347,o),
(1050,1425,o),
(839,1425,cs),
(627,1425,o),
(445,1349,o),
(312,1217,cs),
(179,1085,o),
(100,905,o),
(100,695,cs),
(100,489,o),
(179,309,o),
(312,176,cs),
(445,43,o),
(627,-35,o),
(839,-35,cs)
);
},
{
closed = 1;
nodes = (
(671,73,o),
(520,135,o),
(406,244,cs),
(292,353,o),
(219,506,o),
(219,695,cs),
(219,885,o),
(291,1038,o),
(405,1146,cs),
(519,1256,o),
(674,1316,o),
(838,1316,cs),
(1006,1316,o),
(1157,1256,o),
(1271,1146,cs),
(1385,1038,o),
(1457,885,o),
(1457,695,cs),
(1457,506,o),
(1387,353,o),
(1272,244,cs),
(1158,135,o),
(1005,73,o),
(838,73,cs)
);
},
{
closed = 1;
nodes = (
(990,287,o),
(1086,318,o),
(1165,377,c),
(1103,490,l),
(1034,436,o),
(957,415,o),
(879,415,cs),
(787,415,o),
(712,443,o),
(660,491,cs),
(609,538,o),
(580,607,o),
(580,695,cs),
(580,782,o),
(608,850,o),
(659,900,cs),
(711,949,o),
(784,974,o),
(872,974,cs),
(955,974,o),
(1021,953,o),
(1073,906,c),
(1142,1016,l),
(1076,1072,o),
(988,1103,o),
(863,1103,cs),
(740,1103,o),
(636,1060,o),
(560,988,cs),
(484,916,o),
(441,815,o),
(441,694,cs),
(441,570,o),
(485,471,o),
(559,399,cs),
(632,328,o),
(737,287,o),
(862,287,cs)
);
}
);
width = 1676;
},
{
layerId = "51237170-216B-44E4-96C8-4B0B4EBB077A";
shapes = (
{
closed = 1;
nodes = (
(1052,-27,o),
(1233,51,o),
(1366,183,cs),
(1498,315,o),
(1576,495,o),
(1576,703,cs),
(1576,910,o),
(1498,1089,o),
(1366,1222,cs),
(1233,1355,o),
(1052,1433,o),
(839,1433,cs),
(625,1433,o),
(444,1357,o),
(311,1225,cs),
(178,1093,o),
(100,914,o),
(100,703,cs),
(100,498,o),
(177,317,o),
(310,184,cs),
(443,51,o),
(625,-27,o),
(839,-27,cs)
);
},
{
closed = 1;
nodes = (
(665,48,o),
(505,113,o),
(383,228,cs),
(259,343,o),
(181,504,o),
(181,703,cs),
(181,903,o),
(258,1063,o),
(381,1179,cs),
(504,1294,o),
(667,1358,o),
(838,1358,cs),
(1012,1358,o),
(1172,1294,o),
(1294,1179,cs),
(1418,1063,o),
(1495,903,o),
(1495,703,cs),
(1495,504,o),
(1419,343,o),
(1295,228,cs),
(1173,113,o),
(1011,48,o),
(838,48,cs)
);
},
{
closed = 1;
nodes = (
(980,295,o),
(1074,324,o),
(1155,384,c),
(1113,461,l),
(1040,401,o),
(959,380,o),
(878,380,cs),
(774,380,o),
(689,411,o),
(630,467,cs),
(571,522,o),
(538,601,o),
(538,703,cs),
(538,803,o),
(570,882,o),
(629,940,cs),
(688,997,o),
(769,1025,o),
(869,1025,cs),
(953,1025,o),
(1023,1006,o),
(1080,957,c),
(1130,1031,l),
(1069,1081,o),
(980,1111,o),
(862,1111,cs),
(741,1111,o),
(639,1067,o),
(563,995,cs),
(487,923,o),
(445,824,o),
(445,703,cs),
(445,579,o),
(488,480,o),
(561,408,cs),
(632,336,o),
(737,295,o),
(862,295,cs)
);
}
);
width = 1676;
}
);
rightKerningGroup = _at;
unicode = 169;
},
{
glyphname = ordfeminine;
layers = (
{
layerId = "6FE47AEA-F74C-4003-B51F-DE39BA7C9A54";
shapes = (
{
closed = 1;
nodes = (
(492,717,o),
(609,758,o),
(671,831,c),
(698,773,o),
(757,717,o),
(839,717,cs),
(851,717,o),
(877,720,o),
(887,723,c),
(947,906,l),
(940,903,o),
(935,902,o),
(929,902,cs),
(898,902,o),
(887,937,o),
(899,977,cs),
(939,1121,l),
(969,1221,o),
(957,1309,o),
(896,1372,c),
(842,1436,o),
(745,1470,o),
(604,1470,cs),
(489,1470,o),
(393,1447,o),
(311,1391,c),
(349,1211,l),
(398,1233,o),
(484,1245,o),
(553,1245,cs),
(600,1245,o),
(644,1239,o),
(670,1226,cs),
(692,1215,o),
(702,1199,o),
(693,1174,c),
(689,1162,l),
(729,1183,l),
(675,1184,o),
(624,1190,o),
(570,1190,cs),
(412,1190,o),
(147,1141,o),
(151,927,cs),
(154,794,o),
(258,717,o),
(394,717,cs)
);
},
{
closed = 1;
nodes = (
(481,926,o),
(432,938,o),
(432,967,cs),
(431,1014,o),
(558,1021,o),
(613,1021,cs),
(634,1021,o),
(657,1021,o),
(680,1018,c),
(663,1027,l),
(655,1005,ls),
(638,956,o),
(582,926,o),
(521,926,cs)
);
}
);
width = 832;
},
{
layerId = "12ED6207-3C14-4312-BF04-326F9D0146DE";
shapes = (
{
closed = 1;
nodes = (
(538,717,o),
(639,755,o),
(703,843,c),
(709,786,o),
(744,717,o),
(827,717,cs),
(839,717,o),
(865,720,o),
(879,722,c),
(918,836,l),
(911,834,o),
(892,833,o),
(886,833,cs),
(843,833,o),
(834,882,o),
(845,923,cs),
(910,1159,ls),
(936,1256,o),
(918,1334,o),
(864,1389,cs),
(811,1444,o),
(727,1470,o),
(618,1470,cs),
(512,1470,o),
(420,1445,o),
(338,1385,c),
(359,1281,l),
(420,1315,o),
(507,1340,o),
(587,1340,cs),
(642,1340,o),
(696,1327,o),
(732,1301,c),
(765,1275,o),
(780,1234,o),
(763,1173,cs),
(757,1150,l),
(790,1159,l),
(725,1169,o),
(658,1174,o),
(596,1174,cs),
(418,1174,o),
(169,1128,o),
(178,918,cs),
(184,780,o),
(294,717,o),
(431,717,cs)
);
},
{
closed = 1;
nodes = (
(405,843,o),
(333,873,o),
(330,940,cs),
(324,1053,o),
(508,1065,o),
(602,1065,cs),
(660,1065,o),
(714,1061,o),
(762,1056,c),
(741,1081,l),
(719,999,ls),
(691,898,o),
(577,843,o),
(477,843,cs)
);
}
);
width = 820;
},
{
layerId = "51237170-216B-44E4-96C8-4B0B4EBB077A";
shapes = (
{
closed = 1;
nodes = (
(566,717,o),
(659,752,o),
(723,850,c),
(715,794,o),
(734,717,o),
(816,717,cs),
(830,717,o),
(855,719,o),
(872,721,c),
(898,789,l),
(889,788,o),
(863,787,o),
(857,787,cs),
(804,787,o),
(796,845,o),
(808,887,cs),
(888,1183,ls),
(915,1279,o),
(892,1351,o),
(841,1399,cs),
(789,1448,o),
(714,1470,o),
(624,1470,cs),
(525,1470,o),
(435,1443,o),
(354,1382,c),
(366,1326,l),
(432,1369,o),
(521,1401,o),
(609,1401,cs),
(668,1401,o),
(730,1385,o),
(771,1350,c),
(811,1314,o),
(830,1257,o),
(808,1172,c),
(799,1141,l),
(831,1142,l),
(758,1159,o),
(678,1164,o),
(613,1164,cs),
(421,1164,o),
(183,1120,o),
(194,912,cs),
(202,771,o),
(315,717,o),
(453,717,cs)
);
},
{
closed = 1;
nodes = (
(352,786,o),
(265,828,o),
(259,924,cs),
(252,1078,o),
(474,1093,o),
(594,1093,cs),
(676,1093,o),
(749,1086,o),
(814,1080,c),
(790,1117,l),
(760,994,ls),
(725,860,o),
(571,786,o),
(447,786,cs)
);
}
);
width = 808;
}
);
leftKerningGroup = _degree2;
rightKerningGroup = _degree;
unicode = 170;
},
{
glyphname = guillemotleft;
layers = (
{
layerId = "6FE47AEA-F74C-4003-B51F-DE39BA7C9A54";
shapes = (
{
closed = 1;
nodes = (
(1044,178,l),
(921,504,l),
(1172,810,l),
(949,995,l),
(563,527,l),
(738,61,l)
);
},
{
closed = 1;
nodes = (
(527,178,l),
(404,504,l),
(655,810,l),
(432,995,l),
(46,527,l),
(221,61,l)
);
}
);
width = 1223;
},
{
layerId = "12ED6207-3C14-4312-BF04-326F9D0146DE";
shapes = (
{
closed = 1;
nodes = (
(855,166,l),
(677,495,l),
(1011,821,l),
(905,920,l),
(483,507,l),
(707,96,l)
);
},
{
closed = 1;
nodes = (
(433,166,l),
(255,495,l),
(589,821,l),
(483,920,l),
(61,507,l),
(285,96,l)
);
}
);
width = 1038;
},
{
layerId = "51237170-216B-44E4-96C8-4B0B4EBB077A";
shapes = (
{
closed = 1;
nodes = (
(728,158,l),
(514,489,l),
(903,827,l),
(875,869,l),
(429,494,l),
(685,118,l)
);
},
{
closed = 1;
nodes = (
(369,158,l),
(155,489,l),
(544,827,l),
(516,869,l),
(70,494,l),
(326,118,l)
);
}
);
width = 915;
}
);
unicode = 171;
},
{
glyphname = logicalnot;
layers = (
{
layerId = "6FE47AEA-F74C-4003-B51F-DE39BA7C9A54";
shapes = (
{
closed = 1;
nodes = (
(1169,294,l),
(1367,1046,l),
(213,1046,l),
(143,782,l),
(1018,782,l),
(889,294,l)
);
}
);
width = 1296;
},
{
layerId = "12ED6207-3C14-4312-BF04-326F9D0146DE";
shapes = (
{
closed = 1;
nodes = (
(1129,408,l),
(1266,924,l),
(263,924,l),
(224,776,l),
(1072,776,l),
(974,408,l)
);
}
);
width = 1296;
},
{
layerId = "51237170-216B-44E4-96C8-4B0B4EBB077A";
shapes = (
{
closed = 1;
nodes = (
(1102,483,l),
(1199,843,l),
(297,843,l),
(278,773,l),
(1108,773,l),
(1030,483,l)
);
}
);
width = 1296;
}
);
leftKerningGroup = _plus2;
rightKerningGroup = _plus;
unicode = 172;
},
{
glyphname = registered;
layers = (
{
layerId = "6FE47AEA-F74C-4003-B51F-DE39BA7C9A54";
shapes = (
{
closed = 1;
nodes = (
(886,470,o),
(1019,526,o),
(1112,618,cs),
(1205,710,o),
(1262,834,o),
(1262,979,cs),
(1262,1123,o),
(1206,1249,o),
(1110,1342,cs),
(1014,1435,o),
(884,1492,o),
(735,1492,cs),
(587,1492,o),
(460,1438,o),
(364,1346,cs),
(268,1254,o),
(214,1128,o),
(214,983,cs),
(214,838,o),
(269,711,o),
(365,619,cs),
(461,527,o),
(592,470,o),
(741,470,cs)
);
},
{
closed = 1;
nodes = (
(628,565,o),
(522,608,o),
(446,681,cs),
(370,753,o),
(322,855,o),
(322,983,cs),
(322,1108,o),
(369,1211,o),
(445,1283,cs),
(521,1355,o),
(622,1395,o),
(735,1395,cs),
(849,1395,o),
(954,1355,o),
(1031,1282,cs),
(1107,1209,o),
(1155,1104,o),
(1155,979,cs),
(1155,855,o),
(1109,753,o),
(1033,681,cs),
(957,609,o),
(854,565,o),
(741,565,cs)
);
},
{
closed = 1;
nodes = (
(663,706,l),
(664,913,l),
(724,913,l),
(865,706,l),
(1011,706,l),
(847,936,l),
(924,956,o),
(977,1008,o),
(977,1088,cs),
(977,1141,o),
(957,1183,o),
(921,1212,c),
(884,1240,o),
(833,1256,o),
(769,1256,cs),
(542,1256,l),
(543,706,l)
);
},
{
closed = 1;
nodes = (
(664,1157,l),
(758,1157,ls),
(823,1157,o),
(855,1131,o),
(855,1082,cs),
(855,1034,o),
(819,1010,o),
(754,1010,cs),
(664,1010,l)
);
}
);
width = 1212;
},
{
layerId = "12ED6207-3C14-4312-BF04-326F9D0146DE";
shapes = (
{
closed = 1;
nodes = (
(899,476,o),
(1030,531,o),
(1123,623,cs),
(1216,715,o),
(1273,838,o),
(1273,983,cs),
(1273,1127,o),
(1217,1255,o),
(1121,1348,cs),
(1025,1441,o),
(896,1498,o),
(745,1498,cs),
(596,1498,o),
(469,1444,o),
(374,1353,cs),
(279,1261,o),
(225,1134,o),
(225,990,cs),
(225,842,o),
(280,716,o),
(376,624,cs),
(472,532,o),
(603,476,o),
(752,476,cs)
);
},
{
closed = 1;
nodes = (
(634,551,o),
(523,594,o),
(442,671,cs),
(360,748,o),
(309,855,o),
(309,990,cs),
(309,1119,o),
(361,1228,o),
(440,1303,cs),
(520,1379,o),
(629,1422,o),
(745,1422,cs),
(863,1422,o),
(973,1381,o),
(1055,1303,cs),
(1136,1225,o),
(1189,1117,o),
(1189,983,cs),
(1189,853,o),
(1138,746,o),
(1057,671,cs),
(975,595,o),
(868,551,o),
(752,551,cs)
);
},
{
closed = 1;
nodes = (
(656,712,l),
(655,930,l),
(733,930,l),
(892,712,l),
(1008,712,l),
(832,946,l),
(919,963,o),
(974,1016,o),
(974,1096,cs),
(974,1147,o),
(956,1188,o),
(922,1217,cs),
(888,1245,o),
(839,1260,o),
(777,1260,cs),
(559,1260,l),
(563,712,l)
);
},
{
closed = 1;
nodes = (
(655,1183,l),
(772,1183,ls),
(844,1183,o),
(882,1150,o),
(882,1093,cs),
(882,1037,o),
(840,1007,o),
(765,1007,cs),
(655,1007,l)
);
}
);
width = 1223;
},
{
layerId = "51237170-216B-44E4-96C8-4B0B4EBB077A";
shapes = (
{
closed = 1;
nodes = (
(907,479,o),
(1036,534,o),
(1129,626,cs),
(1222,718,o),
(1279,841,o),
(1279,986,cs),
(1279,1130,o),
(1223,1258,o),
(1127,1351,cs),
(1031,1444,o),
(903,1501,o),
(751,1501,cs),
(602,1501,o),
(475,1447,o),
(380,1356,cs),
(285,1265,o),
(231,1137,o),
(231,993,cs),
(231,845,o),
(286,719,o),
(382,627,cs),
(478,535,o),
(609,479,o),
(758,479,cs)
);
},
{
closed = 1;
nodes = (
(637,541,o),
(524,585,o),
(439,665,cs),
(354,745,o),
(300,855,o),
(300,993,cs),
(300,1126,o),
(355,1238,o),
(437,1316,cs),
(519,1394,o),
(633,1440,o),
(751,1440,cs),
(872,1440,o),
(985,1397,o),
(1070,1316,cs),
(1155,1235,o),
(1210,1125,o),
(1210,986,cs),
(1210,851,o),
(1157,742,o),
(1072,664,cs),
(987,586,o),
(876,541,o),
(758,541,cs)
);
},
{
closed = 1;
nodes = (
(652,715,l),
(649,942,l),
(739,942,l),
(910,715,l),
(1005,715,l),
(822,952,l),
(916,966,o),
(972,1022,o),
(972,1102,cs),
(972,1150,o),
(955,1191,o),
(923,1220,cs),
(891,1248,o),
(842,1263,o),
(783,1263,cs),
(571,1263,l),
(575,715,l)
);
},
{
closed = 1;
nodes = (
(649,1199,l),
(780,1199,ls),
(857,1199,o),
(898,1162,o),
(898,1100,cs),
(898,1039,o),
(853,1005,o),
(771,1005,cs),
(649,1005,l)
);
}
);
width = 1230;
}
);
leftKerningGroup = _degree2;
rightKerningGroup = _degree;
unicode = 174;
},
{
glyphname = degree;
layers = (
{
layerId = "6FE47AEA-F74C-4003-B51F-DE39BA7C9A54";
shapes = (
{
closed = 1;
nodes = (
(657,613,o),
(774,666,o),
(863,751,cs),
(952,837,o),
(1008,954,o),
(1008,1079,cs),
(1008,1180,o),
(970,1267,o),
(905,1330,cs),
(841,1394,o),
(750,1430,o),
(637,1430,cs),
(511,1430,o),
(393,1376,o),
(304,1293,cs),
(214,1208,o),
(159,1092,o),
(159,968,cs),
(159,867,o),
(195,780,o),
(263,716,cs),
(330,651,o),
(419,613,o),
(532,613,cs)
);
},
{
closed = 1;
nodes = (
(521,857,o),
(483,871,o),
(459,895,cs),
(435,919,o),
(419,956,o),
(419,998,cs),
(419,1048,o),
(441,1094,o),
(473,1131,c),
(506,1166,o),
(553,1186,o),
(602,1186,cs),
(647,1186,o),
(683,1171,o),
(708,1148,cs),
(733,1125,o),
(748,1089,o),
(748,1049,cs),
(748,992,o),
(726,944,o),
(693,911,cs),
(658,877,o),
(614,857,o),
(566,857,cs)
);
}
);
width = 891;
},
{
layerId = "12ED6207-3C14-4312-BF04-326F9D0146DE";
shapes = (
{
closed = 1;
nodes = (
(675,684,o),
(784,731,o),
(865,808,cs),
(945,884,o),
(1001,990,o),
(1001,1105,cs),
(1001,1197,o),
(967,1278,o),
(907,1336,c),
(849,1395,o),
(764,1430,o),
(664,1430,cs),
(550,1430,o),
(443,1383,o),
(359,1307,c),
(277,1230,o),
(226,1127,o),
(226,1012,cs),
(226,919,o),
(259,839,o),
(319,779,cs),
(380,720,o),
(462,684,o),
(564,684,cs)
);
},
{
closed = 1;
nodes = (
(522,826,o),
(467,847,o),
(432,880,cs),
(396,913,o),
(375,965,o),
(375,1023,cs),
(375,1097,o),
(406,1164,o),
(453,1212,cs),
(499,1260,o),
(568,1288,o),
(640,1288,cs),
(707,1288,o),
(757,1269,o),
(793,1236,cs),
(830,1203,o),
(850,1156,o),
(850,1099,cs),
(850,1023,o),
(823,956,o),
(775,906,cs),
(729,857,o),
(663,826,o),
(586,826,cs)
);
}
);
width = 915;
},
{
layerId = "51237170-216B-44E4-96C8-4B0B4EBB077A";
shapes = (
{
closed = 1;
nodes = (
(687,731,o),
(790,773,o),
(866,846,c),
(942,916,o),
(995,1013,o),
(995,1121,cs),
(995,1207,o),
(964,1284,o),
(908,1339,cs),
(853,1395,o),
(774,1430,o),
(680,1430,cs),
(574,1430,o),
(477,1387,o),
(398,1316,cs),
(318,1246,o),
(270,1148,o),
(270,1040,cs),
(270,955,o),
(301,877,o),
(357,822,c),
(413,765,o),
(490,731,o),
(585,731,cs)
);
},
{
closed = 1;
nodes = (
(522,805,o),
(457,831,o),
(414,870,cs),
(371,909,o),
(345,971,o),
(345,1039,cs),
(345,1130,o),
(383,1211,o),
(438,1267,c),
(495,1321,o),
(578,1355,o),
(665,1355,cs),
(746,1355,o),
(808,1333,o),
(851,1296,c),
(894,1257,o),
(917,1200,o),
(917,1132,cs),
(917,1042,o),
(886,963,o),
(831,903,cs),
(776,844,o),
(696,805,o),
(599,805,cs)
);
}
);
width = 931;
}
);
leftKerningGroup = _degree2;
rightKerningGroup = _degree;
unicode = 176;
},
{
glyphname = twosuperior;
layers = (
{
layerId = "6FE47AEA-F74C-4003-B51F-DE39BA7C9A54";
shapes = (
{
closed = 1;
nodes = (
(463,1270,l),
(504,1338,o),
(600,1445,o),
(683,1445,cs),
(729,1445,o),
(777,1425,o),
(777,1373,cs),
(777,1228,o),
(340,987,o),
(213,919,c),
(160,722,l),
(847,722,l),
(906,938,l),
(603,938,l),
(787,1008,o),
(1031,1164,o),
(1031,1384,cs),
(1031,1573,o),
(864,1652,o),
(692,1652,cs),
(486,1652,o),
(372,1517,o),
(261,1368,c)
);
}
);
width = 854;
},
{
layerId = "12ED6207-3C14-4312-BF04-326F9D0146DE";
shapes = (
{
closed = 1;
nodes = (
(453,1342,l),
(494,1430,o),
(590,1523,o),
(691,1523,cs),
(786,1523,o),
(839,1489,o),
(839,1415,cs),
(839,1214,o),
(379,939,o),
(214,844,c),
(181,722,l),
(803,722,l),
(840,859,l),
(462,859,l),
(652,955,o),
(994,1183,o),
(994,1415,cs),
(994,1580,o),
(882,1652,o),
(696,1652,cs),
(527,1652,o),
(399,1537,o),
(322,1402,c)
);
}
);
width = 855;
},
{
layerId = "51237170-216B-44E4-96C8-4B0B4EBB077A";
shapes = (
{
closed = 1;
nodes = (
(446,1390,l),
(487,1490,o),
(584,1576,o),
(697,1576,cs),
(824,1576,o),
(881,1531,o),
(881,1442,cs),
(881,1204,o),
(404,906,o),
(215,793,c),
(196,722,l),
(774,722,l),
(796,806,l),
(368,806,l),
(561,919,o),
(970,1195,o),
(970,1436,cs),
(970,1583,o),
(894,1652,o),
(699,1652,cs),
(554,1652,o),
(415,1549,o),
(362,1424,c)
);
}
);
width = 856;
}
);
unicode = 178;
},
{
glyphname = threesuperior;
layers = (
{
layerId = "6FE47AEA-F74C-4003-B51F-DE39BA7C9A54";
shapes = (
{
closed = 1;
nodes = (
(581,702,o),
(679,734,o),
(751,791,cs),
(823,847,o),
(868,929,o),
(868,1029,cs),
(868,1090,o),
(847,1137,o),
(816,1176,c),
(783,1215,o),
(738,1238,o),
(693,1250,c),
(948,1447,l),
(995,1632,l),
(373,1632,l),
(320,1425,l),
(647,1425,l),
(388,1255,l),
(411,1106,l),
(444,1114,o),
(473,1114,o),
(497,1114,cs),
(580,1114,o),
(631,1082,o),
(631,1025,cs),
(631,992,o),
(618,965,o),
(591,946,cs),
(563,925,o),
(527,915,o),
(483,915,cs),
(440,915,o),
(399,924,o),
(360,943,cs),
(320,962,o),
(290,987,o),
(270,1016,c),
(152,829,l),
(175,795,o),
(222,763,o),
(281,740,cs),
(339,716,o),
(408,702,o),
(476,702,cs)
);
}
);
width = 826;
},
{
layerId = "12ED6207-3C14-4312-BF04-326F9D0146DE";
shapes = (
{
closed = 1;
nodes = (
(580,702,o),
(673,735,o),
(742,792,cs),
(811,848,o),
(853,930,o),
(853,1025,cs),
(853,1094,o),
(824,1145,o),
(779,1184,cs),
(733,1223,o),
(669,1246,o),
(602,1253,c),
(950,1518,l),
(979,1632,l),
(388,1632,l),
(355,1505,l),
(757,1505,l),
(402,1242,l),
(417,1154,l),
(441,1160,o),
(469,1160,o),
(494,1160,cs),
(625,1160,o),
(704,1107,o),
(704,1020,cs),
(704,963,o),
(682,918,o),
(643,885,cs),
(604,852,o),
(548,835,o),
(484,835,cs),
(436,835,o),
(390,844,o),
(348,862,c),
(306,878,o),
(271,902,o),
(244,929,c),
(168,815,l),
(195,785,o),
(243,756,o),
(298,735,cs),
(353,714,o),
(418,702,o),
(477,702,cs)
);
}
);
width = 819;
},
{
layerId = "51237170-216B-44E4-96C8-4B0B4EBB077A";
shapes = (
{
closed = 1;
nodes = (
(579,702,o),
(669,736,o),
(736,793,cs),
(803,849,o),
(843,931,o),
(843,1022,cs),
(843,1097,o),
(808,1151,o),
(754,1190,cs),
(699,1229,o),
(622,1250,o),
(541,1255,c),
(951,1565,l),
(967,1632,l),
(398,1632,l),
(377,1558,l),
(830,1558,l),
(411,1234,l),
(420,1187,l),
(439,1191,o),
(466,1191,o),
(491,1191,cs),
(654,1191,o),
(752,1123,o),
(752,1017,cs),
(752,944,o),
(724,886,o),
(678,844,c),
(629,802,o),
(561,781,o),
(485,781,cs),
(433,781,o),
(384,790,o),
(340,807,c),
(296,822,o),
(258,845,o),
(228,872,c),
(178,805,l),
(207,778,o),
(256,750,o),
(308,732,c),
(361,712,o),
(424,702,o),
(478,702,cs)
);
}
);
width = 815;
}
);
leftKerningGroup = _degree2;
rightKerningGroup = _degree;
unicode = 179;
},
{
glyphname = mu;
layers = (
{
layerId = "6FE47AEA-F74C-4003-B51F-DE39BA7C9A54";
shapes = (
{
closed = 1;
nodes = (
(238,-419,l),
(355,14,l),
(372,-4,o),
(394,-13,o),
(417,-21,c),
(441,-28,o),
(464,-30,o),
(493,-30,cs),
(540,-30,o),
(587,-23,o),
(636,2,cs),
(684,27,o),
(734,73,o),
(780,145,c),
(739,0,l),
(1068,0,l),
(1350,1040,l),
(956,1040,l),
(804,481,ls),
(791,434,o),
(770,396,o),
(738,368,cs),
(704,340,o),
(665,325,o),
(613,325,cs),
(563,325,o),
(531,341,o),
(515,366,cs),
(498,391,o),
(498,428,o),
(510,468,c),
(664,1040,l),
(270,1040,l),
(-124,-419,l)
);
}
);
width = 1336;
},
{
layerId = "12ED6207-3C14-4312-BF04-326F9D0146DE";
shapes = (
{
closed = 1;
nodes = (
(87,-400,l),
(217,79,l),
(234,37,o),
(267,11,o),
(308,-7,cs),
(348,-25,o),
(396,-30,o),
(451,-30,cs),
(510,-30,o),
(568,-23,o),
(626,3,cs),
(683,30,o),
(742,78,o),
(801,149,c),
(762,0,l),
(946,0,l),
(1228,1040,l),
(1023,1040,l),
(862,440,ls),
(837,348,o),
(788,277,o),
(724,230,cs),
(660,182,o),
(585,158,o),
(512,158,cs),
(434,158,o),
(374,181,o),
(339,226,cs),
(305,270,o),
(296,337,o),
(319,422,cs),
(484,1040,l),
(280,1040,l),
(-108,-400,l)
);
}
);
width = 1225;
},
{
layerId = "51237170-216B-44E4-96C8-4B0B4EBB077A";
shapes = (
{
closed = 1;
nodes = (
(-17,-400,l),
(126,121,l),
(143,64,o),
(184,26,o),
(236,2,cs),
(287,-22,o),
(352,-30,o),
(423,-30,cs),
(491,-30,o),
(556,-23,o),
(620,4,cs),
(683,32,o),
(748,81,o),
(816,152,c),
(778,0,l),
(867,0,l),
(1147,1040,l),
(1068,1040,l),
(901,413,ls),
(869,291,o),
(800,198,o),
(715,137,cs),
(631,77,o),
(532,47,o),
(445,47,cs),
(348,47,o),
(269,74,o),
(223,132,c),
(176,189,o),
(163,277,o),
(192,392,cs),
(365,1040,l),
(286,1040,l),
(-100,-400,l)
);
}
);
width = 1152;
}
);
unicode = (181,956);
},
{
glyphname = paragraph;
layers = (
{
layerId = "6FE47AEA-F74C-4003-B51F-DE39BA7C9A54";
shapes = (
{
closed = 1;
nodes = (
(583,-411,l),
(1024,1222,l),
(1161,1222,l),
(721,-411,l),
(984,-411,l),
(1425,1222,l),
(1635,1222,l),
(1695,1440,l),
(846,1440,ls),
(657,1440,o),
(484,1389,o),
(357,1296,c),
(232,1200,o),
(152,1066,o),
(152,891,cs),
(152,768,o),
(201,661,o),
(287,590,cs),
(373,519,o),
(491,480,o),
(639,482,c),
(574,530,l),
(320,-411,l)
);
}
);
width = 1438;
},
{
layerId = "12ED6207-3C14-4312-BF04-326F9D0146DE";
shapes = (
{
closed = 1;
nodes = (
(436,-411,l),
(897,1302,l),
(1085,1302,l),
(624,-411,l),
(779,-411,l),
(1241,1302,l),
(1464,1302,l),
(1503,1440,l),
(786,1440,ls),
(633,1440,o),
(491,1398,o),
(387,1318,cs),
(283,1237,o),
(215,1128,o),
(215,985,cs),
(215,884,o),
(256,795,o),
(327,735,cs),
(398,674,o),
(495,639,o),
(622,641,c),
(577,683,l),
(281,-411,l)
);
}
);
width = 1270;
},
{
layerId = "51237170-216B-44E4-96C8-4B0B4EBB077A";
shapes = (
{
closed = 1;
nodes = (
(337,-411,l),
(813,1354,l),
(1036,1354,l),
(561,-411,l),
(643,-411,l),
(1119,1354,l),
(1350,1354,l),
(1374,1440,l),
(746,1440,ls),
(618,1440,o),
(495,1404,o),
(406,1333,cs),
(318,1262,o),
(259,1169,o),
(259,1047,cs),
(259,961,o),
(292,885,o),
(352,832,cs),
(415,777,o),
(498,746,o),
(610,746,c),
(579,784,l),
(255,-411,l)
);
}
);
width = 1159;
}
);
unicode = 182;
},
{
glyphname = periodcentered;
layers = (
{
layerId = "6FE47AEA-F74C-4003-B51F-DE39BA7C9A54";
shapes = (
{
closed = 1;
nodes = (
(394,493,o),
(458,516,o),
(507,560,cs),
(554,602,o),
(587,666,o),
(587,745,cs),
(587,804,o),
(566,853,o),
(527,884,c),
(489,916,o),
(439,934,o),
(379,934,cs),
(312,934,o),
(249,912,o),
(199,869,cs),
(148,825,o),
(118,763,o),
(118,680,c),
(115,624,o),
(138,576,o),
(177,545,c),
(215,513,o),
(268,493,o),
(327,493,cs)
);
}
);
width = 598;
},
{
layerId = "12ED6207-3C14-4312-BF04-326F9D0146DE";
shapes = (
{
closed = 1;
nodes = (
(340,533,o),
(382,549,o),
(413,577,cs),
(443,603,o),
(464,644,o),
(464,692,cs),
(464,728,o),
(451,759,o),
(427,780,cs),
(404,800,o),
(372,812,o),
(334,812,cs),
(291,812,o),
(248,798,o),
(216,770,cs),
(184,742,o),
(165,702,o),
(165,652,c),
(163,617,o),
(177,587,o),
(202,567,cs),
(227,547,o),
(258,533,o),
(296,533,cs)
);
}
);
width = 530;
},
{
layerId = "51237170-216B-44E4-96C8-4B0B4EBB077A";
shapes = (
{
closed = 1;
nodes = (
(302,558,o),
(331,570,o),
(350,587,cs),
(370,604,o),
(382,629,o),
(382,657,cs),
(382,677,o),
(374,696,o),
(361,710,c),
(347,723,o),
(327,731,o),
(304,731,cs),
(276,731,o),
(247,722,o),
(228,704,c),
(207,686,o),
(196,661,o),
(196,633,c),
(195,613,o),
(202,594,o),
(218,582,c),
(234,568,o),
(252,558,o),
(275,558,cs)
);
}
);
width = 485;
}
);
leftKerningGroup = _hyphen2;
rightKerningGroup = _hyphen;
unicode = 183;
},
{
glyphname = onesuperior;
layers = (
{
layerId = "6FE47AEA-F74C-4003-B51F-DE39BA7C9A54";
shapes = (
{
closed = 1;
nodes = (
(621,722,l),
(863,1632,l),
(785,1632,l),
(279,1480,l),
(340,1284,l),
(555,1343,l),
(385,722,l)
);
}
);
width = 665;
},
{
layerId = "12ED6207-3C14-4312-BF04-326F9D0146DE";
shapes = (
{
closed = 1;
nodes = (
(547,722,l),
(790,1632,l),
(720,1632,l),
(305,1501,l),
(342,1387,l),
(607,1466,l),
(405,722,l)
);
}
);
width = 631;
},
{
layerId = "51237170-216B-44E4-96C8-4B0B4EBB077A";
shapes = (
{
closed = 1;
nodes = (
(496,722,l),
(742,1632,l),
(676,1632,l),
(321,1514,l),
(343,1456,l),
(642,1548,l),
(417,722,l)
);
}
);
width = 609;
}
);
leftKerningGroup = _degree2;
rightKerningGroup = _degree;
unicode = 185;
},
{
glyphname = ordmasculine;
layers = (
{
layerId = "6FE47AEA-F74C-4003-B51F-DE39BA7C9A54";
shapes = (
{
closed = 1;
nodes = (
(829,717,o),
(1068,903,o),
(1068,1144,cs),
(1068,1362,o),
(870,1470,o),
(674,1470,cs),
(423,1470,o),
(182,1286,o),
(182,1044,cs),
(182,828,o),
(379,717,o),
(575,717,cs)
);
},
{
closed = 1;
nodes = (
(533,975,o),
(481,1013,o),
(481,1071,cs),
(481,1147,o),
(548,1212,o),
(644,1212,cs),
(718,1212,o),
(769,1178,o),
(769,1117,cs),
(769,1041,o),
(702,975,o),
(604,975,cs)
);
}
);
width = 914;
},
{
layerId = "12ED6207-3C14-4312-BF04-326F9D0146DE";
shapes = (
{
closed = 1;
nodes = (
(801.485,716.742,o),
(1016.916,913.795,o),
(1016.916,1146.583,cs),
(1016.916,1350.783,o),
(851.514,1470.24,o),
(657.524,1470.24,cs),
(417.589,1470.24,o),
(200.116,1276.25,o),
(200.116,1041.42,cs),
(200.116,842.325,o),
(361.434,716.742,o),
(558.487,716.742,cs)
);
},
{
closed = 1;
nodes = (
(451.282,857.64,o),
(361.434,928.089,o),
(361.434,1049.588,cs),
(361.434,1198.654,o),
(472.723,1328.321,o),
(639.146,1328.321,cs),
(766.771,1328.321,o),
(854.577,1262.977,o),
(854.577,1139.436,cs),
(854.577,989.349,o),
(744.309,857.64,o),
(577.886,857.64,cs)
);
}
);
width = 883;
},
{
layerId = "51237170-216B-44E4-96C8-4B0B4EBB077A";
shapes = (
{
closed = 1;
nodes = (
(782.086,716.742,o),
(981.181,919.921,o),
(981.181,1148.625,cs),
(981.181,1343.636,o),
(838.241,1470.24,o),
(647.314,1470.24,cs),
(413.505,1470.24,o),
(210.326,1269.103,o),
(210.326,1039.378,cs),
(210.326,851.514,o),
(349.182,716.742,o),
(546.235,716.742,cs)
);
},
{
closed = 1;
nodes = (
(396.148,780.044,o),
(281.796,871.934,o),
(281.796,1034.273,cs),
(281.796,1234.389,o),
(421.673,1404.896,o),
(635.062,1404.896,cs),
(799.443,1404.896,o),
(910.732,1320.153,o),
(910.732,1152.709,cs),
(910.732,952.593,o),
(769.834,780.044,o),
(558.487,780.044,cs)
);
}
);
width = 861;
}
);
leftKerningGroup = _degree2;
rightKerningGroup = _degree;
unicode = 186;
},
{
glyphname = guillemotright;
layers = (
{
layerId = "6FE47AEA-F74C-4003-B51F-DE39BA7C9A54";
shapes = (
{
closed = 1;
nodes = (
(1186,529,l),
(1009,997,l),
(705,881,l),
(827,555,l),
(576,248,l),
(800,61,l)
);
},
{
closed = 1;
nodes = (
(669,529,l),
(492,997,l),
(188,881,l),
(310,555,l),
(59,248,l),
(283,61,l)
);
}
);
width = 1223;
},
{
layerId = "12ED6207-3C14-4312-BF04-326F9D0146DE";
shapes = (
{
closed = 1;
nodes = (
(987,508,l),
(762,921,l),
(617,851,l),
(794,522,l),
(460,196,l),
(567,95,l)
);
},
{
closed = 1;
nodes = (
(565,508,l),
(340,921,l),
(195,851,l),
(372,522,l),
(38,196,l),
(145,95,l)
);
}
);
width = 1038;
},
{
layerId = "51237170-216B-44E4-96C8-4B0B4EBB077A";
shapes = (
{
closed = 1;
nodes = (
(855,493,l),
(598,870,l),
(557,830,l),
(772,500,l),
(382,161,l),
(411,117,l)
);
},
{
closed = 1;
nodes = (
(496,493,l),
(239,870,l),
(198,830,l),
(413,500,l),
(23,161,l),
(52,117,l)
);
}
);
width = 915;
}
);
unicode = 187;
},
{
glyphname = onequarter;
layers = (
{
layerId = "6FE47AEA-F74C-4003-B51F-DE39BA7C9A54";
shapes = (
{
closed = 1;
nodes = (
(1581,1300,l),
(1417,1440,l),
(286,99,l),
(450,-40,l)
);
},
{
closed = 1;
nodes = (
(554,490,l),
(798,1400,l),
(720,1400,l),
(214,1248,l),
(273,1052,l),
(488,1111,l),
(319,490,l)
);
},
{
closed = 1;
nodes = (
(1612,0,l),
(1655,161,l),
(1774,161,l),
(1826,364,l),
(1708,364,l),
(1750,527,l),
(1543,527,l),
(1496,364,l),
(1338,364,l),
(1737,910,l),
(1471,910,l),
(1056,339,l),
(1009,161,l),
(1444,161,l),
(1401,0,l)
);
}
);
width = 1888;
},
{
layerId = "12ED6207-3C14-4312-BF04-326F9D0146DE";
shapes = (
{
closed = 1;
nodes = (
(1520,1355,l),
(1431,1433,l),
(274,45,l),
(369,-33,l)
);
},
{
closed = 1;
nodes = (
(483,490,l),
(727,1400,l),
(659,1400,l),
(243,1269,l),
(280,1155,l),
(543,1234,l),
(341,490,l)
);
},
{
closed = 1;
nodes = (
(1501,0,l),
(1551,185,l),
(1694,185,l),
(1727,311,l),
(1583,311,l),
(1635,511,l),
(1506,511,l),
(1451,311,l),
(1153,311,l),
(1638,910,l),
(1475,910,l),
(982,299,l),
(953,185,l),
(1419,185,l),
(1369,0,l)
);
}
);
width = 1823;
},
{
layerId = "51237170-216B-44E4-96C8-4B0B4EBB077A";
shapes = (
{
closed = 1;
nodes = (
(1479,1393,l),
(1439,1429,l),
(266,9,l),
(314,-29,l)
);
},
{
closed = 1;
nodes = (
(435,490,l),
(680,1400,l),
(617,1400,l),
(262,1282,l),
(283,1224,l),
(581,1316,l),
(356,490,l)
);
},
{
closed = 1;
nodes = (
(1426,0,l),
(1481,201,l),
(1640,201,l),
(1661,276,l),
(1500,276,l),
(1559,501,l),
(1481,501,l),
(1421,276,l),
(1029,276,l),
(1572,910,l),
(1478,910,l),
(931,272,l),
(915,201,l),
(1403,201,l),
(1348,0,l)
);
}
);
width = 1779;
}
);
leftKerningGroup = _onehalf;
unicode = 188;
},
{
glyphname = onehalf;
layers = (
{
layerId = "6FE47AEA-F74C-4003-B51F-DE39BA7C9A54";
shapes = (
{
closed = 1;
nodes = (
(1572,1300,l),
(1407,1440,l),
(275,99,l),
(439,-40,l)
);
},
{
closed = 1;
nodes = (
(546,490,l),
(789,1400,l),
(709,1400,l),
(203,1248,l),
(262,1052,l),
(479,1111,l),
(308,490,l)
);
},
{
alignment = -1;
pos = (879,-723);
ref = twosuperior;
}
);
width = 1904;
},
{
layerId = "12ED6207-3C14-4312-BF04-326F9D0146DE";
shapes = (
{
closed = 1;
nodes = (
(1518,1355,l),
(1426,1433,l),
(269,45,l),
(364,-33,l)
);
},
{
closed = 1;
nodes = (
(480,490,l),
(725,1400,l),
(654,1400,l),
(238,1269,l),
(275,1155,l),
(541,1234,l),
(336,490,l)
);
},
{
alignment = -1;
pos = (835,-723);
ref = twosuperior;
}
);
width = 1856;
},
{
layerId = "51237170-216B-44E4-96C8-4B0B4EBB077A";
shapes = (
{
closed = 1;
nodes = (
(1480,1393,l),
(1438,1429,l),
(266,9,l),
(313,-29,l)
);
},
{
closed = 1;
nodes = (
(436,490,l),
(681,1400,l),
(616,1400,l),
(261,1282,l),
(283,1224,l),
(582,1316,l),
(355,490,l)
);
},
{
alignment = -1;
pos = (806,-722);
ref = twosuperior;
}
);
width = 1823;
}
);
leftKerningGroup = _onehalf;
unicode = 189;
},
